<?xml version="1.0" encoding="UTF-8" standalone="no"?>
<svg
   version="1.0"
   width="868.09998"
   height="179"
   viewBox="0 0 868.09998 179"
   preserveAspectRatio="xMidYMid"
   id="svg6"
   sodipodi:docname="logo.svg"
   inkscape:export-filename="logo1.svg"
   inkscape:export-xdpi="96"
   inkscape:export-ydpi="96"
   xmlns:inkscape="http://www.inkscape.org/namespaces/inkscape"
   xmlns:sodipodi="http://sodipodi.sourceforge.net/DTD/sodipodi-0.dtd"
   xmlns="http://www.w3.org/2000/svg"
   xmlns:svg="http://www.w3.org/2000/svg">
  <defs
     id="defs10" />
  <sodipodi:namedview
     id="namedview8"
     pagecolor="#ffffff"
     bordercolor="#000000"
     borderopacity="0.25"
     inkscape:showpageshadow="2"
     inkscape:pageopacity="0.0"
     inkscape:pagecheckerboard="0"
     inkscape:deskcolor="#d1d1d1"
     showgrid="false" />
  <g
     class="logo-paths"
     transform="matrix(0.1,0,0,-0.1,0,179)"
     fill="#2bb5b8"
     stroke="none"
     id="g4">
    <path
       d="M 5066,849 C 4764,119 4743,64 4761,56 c 12,-6 23,-6 28,0 4,5 136,318 292,697 156,378 286,687 289,687 3,0 147,-324 319,-720 173,-396 317,-720 320,-720 4,0 14,6 23,13 13,10 -24,102 -308,752 -178,407 -324,745 -324,752 0,12 49,133 60,145 3,4 158,-356 345,-800 186,-444 341,-810 345,-815 3,-4 14,-1 25,6 17,13 -3,63 -344,874 l -367.6293,858.6126 C 5314.4183,1445.2443 5179.51,1121.7932 5066,849 Z m 1274,76 V 60 h 23 c 12,0 144,16 292,35 318,41 433,71 574,148 121,67 243,192 296,302 47,99 75,217 75,313 0,137 -71,341 -159,461 -56,76 -165,183 -231,228 -59,40 -192,106 -255,126 -45,15 -572,117 -602,117 -10,0 -13,-180 -13,-865 z m -3335,815 c -362,-38 -663,-247 -790,-549 -40,-95 -69,-271 -61,-371 16,-191 137,-433 288,-576 C 2634,63 2817,4 3160,11 l 165,4 41.8105,26.572543 L 3403,75 l -6,170 c -4,93 -7,270 -7,393 v 222 h -27 -26 l 6,-384 6,-384 -34,-16 c -50,-24 -339,-22 -460,3 -242,50 -439,209 -560,451 -90,179 -111,312 -77,486 64,322 273,539 617,639 136,39 257,50 358,31 105,-20 104,-20 110,4 4,16 -2,22 -31,29 -47,13 -162,31 -182,30 -8,-1 -47,-5 -85,-9 z M 0,1010 V 310 L 36,239 C 83,145 138,87 218,48 273,20 296,15 374,12 c 75,-3 101,0 149,18 74,28 163,110 205,188 l 32,60 v 716 716 H 735 710 V 998 285 L 681,234 C 643,168 562,96 503,76 477,67 426,60 389,60 257,60 154,123 89,242 l -34,63 -5,700 -5,700 -22,3 -23,3 z M 7790,875 V 40 h 446 445 l -3,23 -3,22 -417,3 -418,2 v 360 360 h 240 240 v 25 25 h -240 c -207,0 -240,2 -240,15 0,13 33,15 240,15 h 240 v 25 25 h -240 -240 v 360 360 l 418,2 c 409,3 417,3 417,23 0,20 -8,20 -442,23 l -443,2 z m -6515,819 c -16,-2 -54,-7 -82,-10 l -53,-5 V 854 30 h 25 25 v 804 804 l 118,7 c 220,14 403,-11 513,-72 66,-36 124,-100 162,-181 30,-62 32,-75 32,-172 0,-94 -3,-111 -28,-161 -52,-107 -158,-179 -292,-199 -39,-5 -141,-10 -227,-10 H 1310 V 440 30 h 25 25 v 385 385 h 129 c 259,0 380,37 479,145 75,82 96,144 97,280 0,106 -1,113 -37,187 -94,198 -253,277 -568,283 -85,2 -168,1 -185,-1 z m 2500,-23 c -47,-4 -70,-10 -69,-18 1,-7 2,-371 3,-809 l 1,-795 23,3 22,3 3,782 2,781 88,8 c 108,9 315,-2 403,-20 183,-39 280,-150 310,-350 25,-167 -58,-316 -209,-376 -51,-21 -79,-24 -282,-29 -224,-6 -225,-6 -228,-28 -3,-22 0,-23 61,-23 h 64 l 259,-390 c 142,-214 262,-390 265,-390 3,0 12,6 21,13 14,10 -16,59 -233,387 -136,206 -244,377 -238,378 5,2 16,2 23,-1 7,-3 120,-169 251,-369 131,-199 244,-370 251,-378 12,-12 16,-12 30,1 14,15 -7,50 -224,380 l -238,364 35,3 c 162,12 272,53 340,127 51,55 77,108 97,192 13,57 14,81 4,148 -28,194 -119,313 -284,371 -99,36 -347,51 -551,35 z M 3200,490 V 90 h 25 25 v 400 400 h -25 -25 z"
       id="path2"
       sodipodi:nodetypes="ccccscsccscccccccscscccscccsscccccccccsccccccsccccscccccccccccccccccccscccccccccccccccccccccsssccccccccscccccccccccccccsccscccccccsccccccccccccccccccssccscccscccccccccccccccccccc" />
  </g>
</svg>
