<?xml version="1.0" encoding="UTF-8" standalone="no"?>
<svg
   version="1.0"
   width="468.20737"
   height="430.98087"
   viewBox="0 0 468.20737 430.98087"
   preserveAspectRatio="xMidYMid"
   id="svg6"
   xmlns="http://www.w3.org/2000/svg"
   xmlns:svg="http://www.w3.org/2000/svg">
  <defs
     id="defs10" />
  <g
     class="logo-paths"
     transform="matrix(0.1,0,0,-0.1,-190.6929,594.75148)"
     fill="#2bb5b8"
     stroke="none"
     id="g4">
    <path
       d="m 3077,5938 c -2,-7 -269,-649 -592,-1427 -323,-777 -583,-1417 -578,-1421 4,-4 786,-330 1738,-724 952,-395 1763.1691,-728.2939 1763.1691,-728.2939 L 5470,1788 6031,3139 c 309,744 559,1354 558,1355 -3,3 -3385,1408 -3495,1453 -6,2 -14,-2 -17,-9 z m 1757,-744 c 940,-390 1710,-714 1712,-719 5,-13 -1150,-2800 -1160,-2799 -30,4 -3446,1430 -3446,1438 0,6 260,638 578,1404 439,1060 581,1392 592,1389 8,-2 784,-323 1724,-713 z m -614,52 c -85,-24 -166,-83 -212,-155 -31,-50 -35,-83 -13,-121 8,-14 14,-48 15,-76 0,-60 15,-111 42,-140 16,-19 17,-26 7,-73 -12,-59 -3,-81 36,-81 13,0 26,-9 32,-22 6,-13 27,-41 46,-63 32,-37 38,-40 76,-37 35,3 47,11 77,48 20,24 40,44 44,44 19,0 19,-51 1,-94 -27,-61 -54,-76 -148,-83 -91,-7 -122,-20 -181,-77 -81,-76 -85,-101 -46,-239 30,-104 38,-121 99,-216 90,-139 110,-251 59,-327 -51,-75 -150,-178 -256,-265 -188,-156 -288,-329 -288,-500 0,-91 28,-229 57,-279 39,-69 114,-135 170,-151 69,-20 170,-18 214,4 41,20 100,72 116,102 11,18 12,18 40,-11 38,-41 77,-60 151,-74 78,-14 151,3 254,57 81,42 128,93 172,183 29,61 31,71 29,170 -3,124 -23,195 -109,379 -71,154 -70,163 27,268 71,77 190,245 233,331 13,26 38,89 55,141 41,121 80,204 123,264 l 35,48 7,-109 c 8,-116 0,-164 -36,-235 -21,-42 -72,-241 -83,-324 -5,-38 -1,-71 15,-130 20,-69 22,-94 17,-213 -2,-74 -15,-205 -27,-292 -13,-86 -20,-172 -16,-190 3,-19 19,-55 36,-81 36,-58 75,-68 166,-44 76,21 183,22 209,3 17,-12 16,-14 -17,-25 -47,-16 -184,-31 -288,-32 -47,0 -93,-4 -104,-8 -17,-6 -15,-10 15,-36 60,-50 87,-56 262,-57 166,-2 210,4 201,25 -3,9 -52,13 -183,14 -107,1 -187,5 -198,12 -14,8 -7,10 36,11 84,0 231,20 279,37 41,15 63,47 48,71 -25,40 -148,54 -249,27 -90,-23 -112,-20 -142,19 -38,50 -40,85 -14,267 30,214 32,441 5,511 -14,37 -17,61 -12,105 9,80 58,266 89,338 33,76 41,140 29,235 -5,41 -5,90 -1,109 5,22 4,38 -2,42 -7,4 -6,21 1,51 16,62 -1,118 -51,173 -50,54 -109,79 -260,110 -153,31 -190,48 -237,109 -31,40 -30,62 2,41 42,-28 146,-2 194,48 76,79 69,220 -15,299 -53,50 -204,118 -295,133 -45,8 -105,21 -132,30 -58,18 -143,18 -206,1 z m -35,-72 c -81,-49 -113,-80 -141,-139 -24,-50 -24,-50 -24,-16 0,28 11,44 68,101 60,61 101,85 147,89 6,1 -17,-15 -50,-35 z m 346,-16 c 90,-55 120,-118 111,-237 -6,-84 -24,-91 -28,-12 -5,101 -23,150 -73,201 -25,25 -59,56 -76,69 -28,20 -28,22 -6,15 14,-4 46,-20 72,-36 z m -116,3 c 74,-43 132,-104 147,-154 8,-28 12,-94 10,-197 -3,-177 5,-217 61,-299 58,-84 69,-137 70,-340 2,-166 0,-181 -26,-266 -37,-121 -90,-228 -176,-360 -40,-60 -97,-160 -127,-220 -55,-110 -56,-112 -64,-230 -11,-162 -61,-313 -143,-435 -75,-110 -219,-260 -250,-260 -5,0 -7,-9 -4,-20 4,-17 1,-19 -21,-14 -69,15 -93,28 -135,73 -58,62 -75,96 -93,188 -47,247 26,418 267,619 114,95 234,226 268,291 45,89 21,201 -75,350 -69,106 -124,271 -110,326 16,67 110,137 183,137 64,1 121,15 152,38 35,26 73,96 73,135 0,32 -51,145 -80,179 -13,15 -12,19 2,33 22,22 20,80 -4,133 -16,36 -23,42 -49,42 -32,0 -61,-30 -61,-64 0,-32 -12,-10 -21,40 -5,26 -16,56 -25,66 -22,24 -82,34 -107,19 -18,-12 -19,-11 -13,16 17,69 85,132 196,182 61,28 96,26 155,-8 z m 323,-53 c 113,-61 142,-97 142,-176 0,-99 -42,-152 -132,-166 -30,-5 -46,-3 -56,8 -16,16 -17,28 -12,166 3,98 -12,145 -63,199 l -32,34 30,-7 c 17,-4 72,-30 123,-58 z m -589,-177 c 7,-5 17,-29 22,-55 12,-64 35,-96 69,-96 23,0 27,-3 23,-24 -4,-17 5,-35 30,-62 51,-57 54,-90 14,-135 -46,-52 -74,-58 -103,-23 -14,16 -33,46 -44,67 -16,28 -27,37 -46,37 -23,0 -25,3 -20,26 20,78 19,84 -9,114 -22,23 -29,42 -33,83 -4,48 -2,54 19,64 29,14 59,16 78,4 z m 161,-87 c 6,-14 10,-39 10,-56 0,-23 -4,-29 -16,-24 -9,3 -17,6 -19,6 -8,0 -17,70 -11,85 8,23 25,18 36,-11 z m 336,-181 c 41,-54 100,-81 249,-113 199,-43 259,-78 286,-168 16,-54 0,-103 -69,-208 -64,-98 -87,-146 -142,-305 -29,-84 -55,-134 -122,-235 -47,-71 -115,-160 -152,-198 -103,-107 -106,-145 -26,-306 76,-152 101,-238 103,-361 2,-98 0,-107 -28,-162 -39,-77 -95,-131 -172,-167 -91,-43 -150,-54 -217,-40 -66,14 -113,43 -144,92 -29,43 -53,41 -71,-7 -22,-62 -126,-132 -181,-123 -16,2 -10,11 34,45 65,50 163,166 227,269 71,114 120,271 129,414 7,113 8,117 60,220 29,58 87,159 130,225 116,181 149,254 190,425 20,86 21,109 15,250 -8,175 -26,251 -77,321 -41,56 -57,103 -56,159 0,25 3,36 5,25 3,-11 16,-35 29,-52 z"
       id="path2" />
  </g>
</svg>
