<svg xmlns="http://www.w3.org/2000/svg" width="468.207" height="430.981" preserveAspectRatio="xMidYMid" viewBox="0 0 468.207 430.981"><path fill="#2bb5b8" d="M178.632 417.449c-3.577-.025-7.156-.326-10.676-.966-1.683-.312-3.356-.696-4.99-1.21-2.297-.75-4.452-1.879-6.49-3.166-2.976-1.891-5.712-4.142-8.237-6.598-2.81-2.747-5.363-5.764-7.539-9.038a43 43 0 0 1-2.066-3.44c-.963-1.862-1.7-3.832-2.36-5.819-1.127-3.432-2-6.942-2.743-10.475a132 132 0 0 1-2.146-13.93c-.383-3.967-.581-7.962-.349-11.944.351-6.27 1.655-12.47 3.716-18.396 2.801-8.066 6.968-15.613 11.932-22.543 5.133-7.164 11.114-13.695 17.568-19.686 2.58-2.394 5.242-4.7 7.964-6.932a242 242 0 0 0 5.097-4.35c.036-.034.124-.11.18-.16q.569-.5 1.135-1.004l.18-.16q2.187-1.952 4.327-3.956l.176-.165c4.36-4.093 8.579-8.34 12.593-12.773l.16-.177c2.83-3.143 5.565-6.377 8.09-9.77a70 70 0 0 0 2.15-3.038c1.387-2.143 2.33-4.562 2.813-7.066.56-2.881.539-5.852.153-8.754 0 .01-.021-.154-.03-.211-.484-3.468-1.469-6.85-2.716-10.117a66 66 0 0 0-.894-2.212c-1.5-3.521-3.285-6.916-5.235-10.208l-.122-.205c-.881-1.485-1.81-2.942-2.746-4.393-1.768-2.766-3.537-5.535-5.186-8.374-1.364-2.353-2.619-4.772-3.665-7.284-1.422-3.392-2.505-6.912-3.555-10.432a271 271 0 0 1-1.926-6.767c-.728-2.72-1.423-5.453-1.914-8.227-.432-2.477-.701-5.007-.457-7.52.179-1.872.68-3.714 1.493-5.412 1.083-2.273 2.657-4.27 4.35-6.117 1.427-1.557 2.954-3.018 4.489-4.467 2.088-2.005 4.251-3.95 6.647-5.585a26 26 0 0 1 5.974-3.06c2.935-1.05 6.026-1.571 9.113-1.928 1.789-.21 3.585-.347 5.38-.488 2.387-.205 4.777-.46 7.12-.973 1.738-.39 3.47-.933 4.988-1.884 1.116-.696 2.075-1.628 2.856-2.683 1.048-1.411 1.835-2.993 2.548-4.594a22.5 22.5 0 0 0 1.577-6.101c.11-1.078.154-2.175-.025-3.248-.02-.056-.007-.233-.083-.122-1.206 1.154-2.328 2.394-3.421 3.654-.693.79-1.343 1.617-2.024 2.417-1.134 1.323-2.319 2.627-3.735 3.655a10.8 10.8 0 0 1-3.696 1.736c-1.549.402-3.151.532-4.744.623-1.394.072-2.823.067-4.167-.355-1.196-.363-2.26-1.064-3.186-1.889-1.094-.974-2.06-2.078-3.025-3.177a82 82 0 0 1-4.878-6.136c-.716-1.015-1.423-2.042-1.994-3.146-.17-.353-.337-.714-.594-1.015-.49-.599-1.192-1.066-1.975-1.141-.493-.014-.988-.016-1.48-.068-1.271-.12-2.552-.464-3.612-1.198-.944-.642-1.664-1.587-2.084-2.645-.525-1.308-.645-2.738-.615-4.135.052-1.89.363-3.761.74-5.61l.104-.496.048-.236c.258-1.27.523-2.544.643-3.837.053-.691.08-1.421-.216-2.066-.281-.595-.713-1.1-1.13-1.603-1.673-1.82-2.907-4.008-3.82-6.296-1.151-2.893-1.812-5.962-2.155-9.05a49 49 0 0 1-.28-5.218 38 38 0 0 0-.714-5.971c-.219-1.04-.468-2.082-.88-3.066-.18-.417-.434-.795-.636-1.201-.891-1.7-1.519-3.557-1.688-5.476-.183-1.948.112-3.918.71-5.774.716-2.236 1.819-4.326 3.034-6.327.715-1.161 1.5-2.279 2.323-3.365 2.764-3.634 6.043-6.866 9.646-9.664 4.136-3.207 8.711-5.855 13.573-7.796a49 49 0 0 1 5.209-1.756c3.295-.866 6.68-1.36 10.076-1.597 3.797-.259 7.618-.197 11.399.237 2.671.313 5.328.809 7.896 1.616 1.663.54 3.36.964 5.058 1.38 1.346.325 2.697.63 4.05.926l.231.05q3.628.784 7.279 1.459l.232.042c1.072.196 2.15.37 3.214.604 3.192.686 6.326 1.621 9.414 2.675 4.507 1.547 8.92 3.36 13.228 5.394 3.42 1.624 6.78 3.384 10 5.376 1.94 1.206 3.835 2.491 5.587 3.96a29.6 29.6 0 0 1 4.343 4.561c3.469 4.5 5.658 9.947 6.405 15.57.758 5.671.063 11.569-2.23 16.826-1.386 3.182-3.362 6.116-5.852 8.54-2.018 1.934-4.39 3.47-6.89 4.704a35.8 35.8 0 0 1-8.265 2.87c-2.395.507-4.855.776-7.303.615-1.826-.127-3.664-.499-5.306-1.333-.122-.084-.063 0-.011.076.804 1.274 1.74 2.458 2.694 3.62 1.4 1.689 2.948 3.27 4.73 4.558 2.317 1.694 4.967 2.865 7.666 3.803 2.824.977 5.72 1.729 8.625 2.422 3.225.766 6.472 1.437 9.719 2.1 4.44.92 8.868 1.906 13.24 3.11 3.67 1.016 7.31 2.184 10.789 3.746 2.667 1.199 5.228 2.652 7.555 4.43a37 37 0 0 1 5.107 4.745c2.43 2.734 4.552 5.778 5.996 9.15 1.031 2.408 1.698 4.977 1.91 7.59.235 2.833-.062 5.697-.768 8.446q-.129.55-.247 1.102l-.045.215c-.212 1.05-.414 2.11-.453 3.184-.005.204-.003.408.023.61.644.54 1.012 1.339 1.184 2.147.242 1.163.181 2.365.035 3.536-.09.725-.238 1.44-.39 2.155-.197 1.16-.251 2.337-.293 3.511a70 70 0 0 0 .036 4.825l.01.235c.09 2.116.266 4.228.538 6.329.64 5.349.912 10.773.322 16.14a52 52 0 0 1-2.28 10.529 69 69 0 0 1-2.367 6.177c-.826 1.958-1.54 3.96-2.225 5.97l-.076.227-.152.453a195 195 0 0 0-1.151 3.575l-.072.23q-.199.643-.396 1.287a259.253 259.253 0 0 0-.701 2.35l-.068.23a296 296 0 0 0-1.093 3.833l-.068.247a326 326 0 0 0-1.498 5.606l-.07.274-.168.653-.19.75-.068.274q-.175.697-.347 1.395l-.07.288q-.168.683-.332 1.367l-.06.249a224 224 0 0 0-2.128 9.785l-.045.233c-.593 3.154-1.117 6.33-1.28 9.54-.09 1.829-.018 3.674.333 5.475.342 1.79.93 3.522 1.577 5.222.633 1.765 1.02 3.606 1.336 5.45.526 3.161.806 6.357.998 9.553.303 5.252.339 10.516.24 15.775-.14 7.053-.537 14.1-1.13 21.128a353 353 0 0 1-2.345 20.554 503 503 0 0 0-1.063 7.91l-.032.253a255 255 0 0 0-.382 3.236l-.025.238c-.316 2.91-.587 5.828-.649 8.755-.036 2.081.028 4.178.436 6.224.289 1.461.795 2.88 1.51 4.186.64 1.172 1.414 2.268 2.24 3.316.76.946 1.587 1.872 2.623 2.523.825.52 1.785.792 2.75.879 1.367.126 2.742-.016 4.095-.213 2.224-.337 4.416-.855 6.598-1.394 1.14-.283 2.271-.595 3.42-.84a62.3 62.3 0 0 1 12.298-1.406c3.255-.045 6.52.146 9.734.681 2.296.388 4.577.947 6.732 1.844 1.5.633 2.953 1.437 4.139 2.567.914.868 1.64 1.961 1.96 3.19.337 1.248.242 2.592-.184 3.808-.545 1.564-1.577 2.92-2.797 4.022-1.568 1.416-3.45 2.452-5.43 3.172-1.702.59-3.457 1.008-5.214 1.397-3.59.775-7.219 1.368-10.855 1.886q-3.907.552-7.832.968 1.583.033 3.166.058l.422.005c3.55.054 7.102.062 10.653.13 3.577.065 7.156.15 10.729.364 1.723.11 3.45.236 5.156.51.878.15 1.767.324 2.576.708.618.292 1.172.767 1.451 1.402.314.697.44 1.497.256 2.247-.19.816-.736 1.517-1.422 1.985-.838.577-1.827.879-2.809 1.108-1.584.354-3.202.518-4.818.647-2.981.225-5.971.293-8.96.333-4.005.047-8.01.016-12.016-.028-4.315-.03-8.63-.067-12.942-.246-2.906-.129-5.815-.313-8.694-.746-2.495-.377-4.974-.97-7.293-1.982-1.922-.83-3.709-1.943-5.385-3.19a58 58 0 0 1-2.864-2.285c-.963-.844-1.94-1.678-2.814-2.617-.543-.595-1.052-1.273-1.216-2.08-.152-.698 0-1.454.414-2.037.428-.617 1.1-1.009 1.784-1.284a8 8 0 0 1 1.6-.488c1.419-.278 2.86-.419 4.3-.548 3.252-.273 6.516-.384 9.78-.39q1.264-.014 2.53-.045l.239-.006c2.276-.06 4.551-.16 6.824-.291l.241-.015q.6-.035 1.202-.073l.24-.016.571-.037q2.83-.19 5.654-.443l.296-.027a238 238 0 0 0 1.819-.172l.364-.036.396-.04.63-.065.24-.025c3.734-.397 7.462-.87 11.162-1.517l.335-.059.232-.042c1.77-.327 3.537-.685 5.262-1.199.527-.161 1.047-.343 1.57-.52-1.065-.392-2.188-.589-3.308-.743-2.197-.286-4.417-.351-6.631-.322a72.5 72.5 0 0 0-10.416.931 57 57 0 0 0-6.033 1.307c-2.62.682-5.272 1.274-7.967 1.554-2.23.227-4.508.229-6.703-.273-1.79-.404-3.5-1.17-4.982-2.253-1.796-1.301-3.255-3.011-4.498-4.836-.425-.629-.827-1.273-1.232-1.915a46.4 46.4 0 0 1-3.207-6.251c-.576-1.388-1.102-2.805-1.429-4.274-.115-.555-.215-1.114-.246-1.68-.086-1.396-.037-2.796.02-4.192.155-3.24.45-6.473.79-9.699.424-3.968.94-7.925 1.534-11.87l.138-1.02.032-.238q.14-1.062.278-2.124l.032-.253a536 536 0 0 0 1.736-15.56c.01-.091.022-.227.033-.336q.308-3.193.576-6.389l.02-.24c.329-3.998.617-8.001.778-12.01.04-1.017.066-2.033.113-3.05l.062-1.557.01-.27c.117-3.26.223-6.522.177-9.785a62 62 0 0 0-.21-4.387l-.02-.218c-.2-2.23-.596-4.438-1.127-6.61-.376-1.554-.813-3.092-1.251-4.63-.818-3.042-1.572-6.11-2.014-9.232-.334-2.35-.456-4.735-.29-7.105.122-1.816.414-3.615.714-5.408.646-3.758 1.438-7.49 2.276-11.209a379 379 0 0 1 3.83-15.377c.92-3.364 1.878-6.718 2.96-10.032.526-1.588 1.068-3.174 1.738-4.709.323-.726.705-1.423 1.042-2.143 1.296-2.688 2.413-5.475 3.14-8.374.785-3.088 1.124-6.273 1.224-9.453.07-2.163.038-4.328-.044-6.49l-.01-.238q-.034-.865-.078-1.73l-.013-.239q-.068-1.283-.152-2.564l-.016-.24c-.217-3.326-.428-6.652-.643-9.977-.903 1.246-1.829 2.477-2.683 3.758-2.895 4.306-5.324 8.908-7.5 13.614l-.256.56-.099.217-.155.342c-2.658 5.907-4.944 11.975-7.052 18.097-.495 1.426-.953 2.865-1.453 4.289a221 221 0 0 1-4.293 11.327c-.752 1.811-1.517 3.62-2.388 5.377-1.396 2.776-2.96 5.464-4.574 8.118-2.58 4.229-5.312 8.363-8.122 12.442a330 330 0 0 1-10.896 14.9c-2.431 3.122-4.92 6.2-7.546 9.161-1.294 1.456-2.636 2.868-3.936 4.32-1.473 1.642-2.934 3.3-4.25 5.073-1.01 1.375-1.949 2.83-2.525 4.446a9.8 9.8 0 0 0-.543 3.922c.103 1.738.555 3.433 1.09 5.082.718 2.18 1.604 4.3 2.516 6.404l.234.537a326 326 0 0 0 1.943 4.315l.147.32c1.004 2.192 2.034 4.372 3.03 6.567 2.265 4.974 4.462 9.981 6.416 15.086 1.853 4.851 3.468 9.806 4.554 14.89.824 3.82 1.338 7.705 1.617 11.603.206 2.82.295 5.646.335 8.472.037 2.402.07 4.806-.015 7.208-.082 2.261-.298 4.532-.877 6.725-.651 2.501-1.733 4.86-2.824 7.194a85 85 0 0 1-2.663 5.225c-2.075 3.755-4.47 7.35-7.327 10.558a46.4 46.4 0 0 1-7.572 6.816c-2.478 1.79-5.12 3.346-7.839 4.742-3.957 2.06-8.01 3.953-12.214 5.458-3.854 1.377-7.847 2.411-11.924 2.84a40.8 40.8 0 0 1-10.004-.173c-1.542-.21-3.067-.528-4.586-.862-3.58-.802-7.135-1.855-10.41-3.536a29 29 0 0 1-6.384-4.45 41 41 0 0 1-2.335-2.328c-.666-.684-1.324-1.377-2.028-2.022-.25.4-.466.82-.731 1.21-.97 1.468-2.137 2.794-3.353 4.062a58.4 58.4 0 0 1-6.502 5.747c-1.849 1.4-3.773 2.712-5.83 3.79-.834.44-1.7.82-2.593 1.123-2.036.695-4.158 1.103-6.287 1.381-2.493.32-5.009.445-7.521.433m5.109-9.043c1.707-.229 3.354-.783 4.932-1.46 2.257-.978 4.385-2.24 6.38-3.676 2.151-1.562 4.16-3.335 5.89-5.36 1.144-1.353 2.178-2.821 2.888-4.452.228-.537.41-1.093.644-1.628.56-1.313 1.236-2.601 2.198-3.668.735-.817 1.676-1.482 2.754-1.748 1.007-.257 2.088-.138 3.04.263 1.223.51 2.244 1.397 3.127 2.366.728.81 1.382 1.685 1.973 2.599a23.9 23.9 0 0 0 5.39 5.928c2.454 1.918 5.277 3.323 8.217 4.324a39 39 0 0 0 3.408.99c2.887.713 5.86 1.113 8.837 1.056 3.15-.05 6.276-.607 9.302-1.469q.738-.21 1.47-.44l.207-.067c2.69-.864 5.314-1.926 7.893-3.08l.215-.096.34-.153c.034-.017.15-.07.215-.1q.747-.34 1.489-.69c.05-.025.149-.071.218-.104 4.09-1.929 7.953-4.37 11.357-7.354 3.16-2.759 5.911-5.976 8.202-9.489a55 55 0 0 0 3.207-5.63c.81-1.61 1.629-3.223 2.246-4.92.498-1.361.808-2.787.967-4.226.23-2.082.24-4.18.24-6.271a255 255 0 0 0-.032-3.033l-.006-.339c-.039-2.144-.07-4.29-.19-6.432-.228-4.25-.737-8.49-1.61-12.659l-.041-.2c-.706-3.344-1.637-6.638-2.736-9.873l-.071-.206c-1.777-5.19-3.96-10.23-6.293-15.19l-.316-.67-.103-.216c-1.01-2.13-2.06-4.241-3.109-6.353-1.563-3.18-3.087-6.385-4.417-9.672-1.098-2.737-2.072-5.541-2.619-8.446-.412-2.2-.55-4.464-.252-6.687.285-2.177.992-4.286 1.986-6.24 1.275-2.51 2.965-4.784 4.765-6.94 1.72-2.054 3.559-4.004 5.417-5.933 1.71-1.82 3.322-3.732 4.904-5.664 2.812-3.449 5.515-6.986 8.148-10.573a264 264 0 0 0 7.833-11.25c2.213-3.358 4.388-6.743 6.434-10.205l.12-.206q.506-.86 1-1.727l.116-.207a101 101 0 0 0 3.858-7.494l.098-.215a98 98 0 0 0 1.852-4.32c.019-.044.062-.152.09-.222q.237-.596.469-1.195c.013-.037.059-.154.085-.222.094-.244.201-.53.285-.749.97-2.57 1.836-5.176 2.752-7.764 1.756-4.984 3.55-9.956 5.562-14.843 1.575-3.832 3.31-7.601 5.272-11.251 2.448-4.57 5.23-8.95 8.07-13.285.027-.044.09-.138.13-.202l.294-.452c.027-.04.09-.14.13-.202 1.655-2.568 3.262-5.17 4.72-7.856.007-.01.075-.139.105-.193 1.199-2.236 2.305-4.534 3.103-6.947.666-2.02 1.09-4.141 1.02-6.275-.046-1.643-.39-3.266-.906-4.824-.738-2.3-1.746-4.534-3.182-6.487-1.337-1.835-3.037-3.385-4.912-4.656-2.31-1.571-4.853-2.767-7.444-3.794a69 69 0 0 0-2.632-.974c-.034-.013-.156-.054-.224-.078-3.645-1.252-7.369-2.263-11.11-3.19-3.101-.766-6.22-1.459-9.344-2.132-4.336-.951-8.66-1.979-12.917-3.244-3.3-.988-6.567-2.117-9.682-3.595-2.784-1.319-5.44-2.948-7.748-5-1.836-1.624-3.445-3.498-4.82-5.525a27.9 27.9 0 0 0 1.775 7.58c1.322 3.422 3.258 6.573 5.418 9.526 1.883 2.58 3.52 5.344 4.816 8.266 1.77 3.956 2.922 8.16 3.735 12.408.835 4.37 1.337 8.796 1.714 13.227.397 4.747.646 9.505.831 14.265.157 3.97.313 7.94.324 11.913.006 3.23-.115 6.466-.534 9.672-.456 3.547-1.24 7.04-2.048 10.521-1.607 6.684-3.36 13.344-5.647 19.831a120 120 0 0 1-5.083 12.234c-2.985 6.207-6.453 12.168-10.053 18.035a535 535 0 0 1-5.86 9.303l-.299.461-.128.2-.44.687-.574.904-.128.203c-2.909 4.619-5.698 9.312-8.414 14.047l-.557.975q-.585 1.028-1.165 2.059l-.132.235-.435.777-.117.21c-1.85 3.322-3.66 6.666-5.36 10.067a758 758 0 0 0-1.594 3.177l-.107.215c-1.096 2.22-2.193 4.443-3.123 6.74-.733 1.804-1.324 3.67-1.7 5.583-.479 2.404-.693 4.85-.883 7.291-.161 2.11-.289 4.28-.427 6.421-.402 6.011-1.281 11.986-2.542 17.876a138 138 0 0 1-5.147 17.967c-1.942 5.363-4.22 10.608-6.891 15.648a101 101 0 0 1-4.132 7.09c-2.911 4.586-6.06 9.02-9.37 13.326-3.35 4.352-6.866 8.577-10.583 12.62-2.545 2.759-5.18 5.44-7.99 7.931a61 61 0 0 1-3.47 2.86 81 81 0 0 0-2.868 2.316zm-11.182-.506c-.189-.96-.218-1.985.124-2.916.235-.637.682-1.207 1.287-1.528a2.5 2.5 0 0 1 1.148-.299c.451-.125.857-.373 1.258-.608 1.223-.756 2.349-1.657 3.453-2.576 1.785-1.498 3.488-3.09 5.158-4.715l.168-.166c3.26-3.195 6.378-6.532 9.402-9.95 3.376-3.826 6.632-7.76 9.71-11.83.018-.025.1-.132.141-.19.317-.418.672-.9.959-1.285 1.27-1.734 2.515-3.49 3.672-5.303 5.444-8.465 9.645-17.707 12.652-27.305l.064-.201q.435-1.405.84-2.818l.059-.21a128.6 128.6 0 0 0 4.01-20.395c.27-2.341.47-4.69.622-7.042.197-2.83.383-5.663.681-8.485.273-2.561.669-5.12 1.394-7.595.848-2.927 2.11-5.712 3.42-8.456 1.23-2.564 2.508-5.103 3.78-7.645 1.81-3.568 3.72-7.084 5.672-10.575 2.704-4.821 5.493-9.596 8.41-14.29a205 205 0 0 1 3.29-5.124c5.985-9.201 11.575-18.69 16.172-28.669a165 165 0 0 0 2.27-5.16l.092-.22q.569-1.365 1.114-2.74l.087-.22q.685-1.743 1.33-3.5l.081-.223a166 166 0 0 0 3.037-9.168c.627-2.076 1.247-4.155 1.752-6.265l.05-.213q.16-.675.3-1.355c.001-.011.03-.155.043-.215.526-2.579.79-5.204.924-7.83.006-.099.006-.123.011-.223.075-1.501.114-3.004.137-4.508l.004-.24c.054-4.373.004-8.747-.044-13.12-.022-1.96-.025-3.918-.054-5.876l-.017-1.249-.005-.297q-.016-.984-.036-1.968l-.006-.269-.019-.823-.006-.241c-.102-3.98-.263-7.961-.634-11.926l-.061-.625-.023-.217c-.292-2.818-.708-5.629-1.386-8.382l-.053-.213a37 37 0 0 0-2.715-7.423c-1.249-2.545-2.779-4.94-4.388-7.27-2.073-3.046-4.033-6.2-5.439-9.617-.952-2.295-1.637-4.697-2.1-7.138-.65-3.437-.908-6.935-1.044-10.426-.153-4.124-.132-8.251-.083-12.377q.026-1.94.062-3.883l.003-.24a294 294 0 0 0-.002-10.164l-.005-.238c-.068-3.123-.188-6.248-.483-9.358-.15-1.516-.33-3.034-.662-4.522-.243-1.088-.669-2.126-1.157-3.125-1.02-2.058-2.363-3.94-3.835-5.698-2.265-2.685-4.86-5.08-7.628-7.237a61 61 0 0 0-7.34-4.897c-1.836-1.029-3.735-1.975-5.754-2.586-1.608-.492-3.301-.723-4.981-.607-2.278.15-4.475.86-6.574 1.72a80 80 0 0 0-3.293 1.477q-.577.274-1.152.553l-.195.096c-3.652 1.798-7.196 3.835-10.491 6.23-2.524 1.838-4.902 3.892-6.97 6.237-.003.006-.103.119-.142.165-1.982 2.284-3.664 4.865-4.701 7.717q-.24.662-.433 1.34c1.41-.496 2.919-.648 4.407-.632 2.07.031 4.132.391 6.096 1.04 1.573.529 3.102 1.25 4.403 2.292.608.488 1.165 1.048 1.585 1.709.674 1.033 1.17 2.17 1.616 3.316a36 36 0 0 1 1.702 5.957c.055.296.107.592.167.887 1.279-2.438 3.47-4.414 6.082-5.318a9.5 9.5 0 0 1 3.378-.518c1.187.016 2.403.135 3.494.633.984.437 1.807 1.176 2.445 2.033.792 1.063 1.373 2.261 1.932 3.458.548 1.184 1.065 2.384 1.49 3.618.911 2.617 1.52 5.351 1.682 8.121.105 1.908.002 3.846-.506 5.695-.392 1.42-1.05 2.796-2.085 3.86-.32.326-.648.645-.928 1.007.37.557.85 1.03 1.245 1.568 1.064 1.399 1.976 2.906 2.846 4.431 1.609 2.85 3.043 5.797 4.354 8.794 1.027 2.367 1.986 4.768 2.762 7.23.394 1.278.757 2.573.917 3.904.117.987.027 1.987-.13 2.964-.31 1.862-.912 3.664-1.633 5.404a39 39 0 0 1-3.788 6.935c-1.175 1.705-2.484 3.33-4.014 4.732-1.152 1.066-2.478 1.93-3.873 2.641-2.3 1.172-4.77 1.974-7.276 2.573-3.607.851-7.307 1.273-11.01 1.398-.865.037-1.733.008-2.596.099-2.314.228-4.56.92-6.684 1.848a31.5 31.5 0 0 0-5.157 2.888l-.181.125c-2.39 1.672-4.582 3.646-6.402 5.93-1.28 1.618-2.385 3.401-3.061 5.359-.258.763-.461 1.55-.519 2.356-.119 1.533.017 3.073.216 4.593.35 2.556.934 5.075 1.609 7.563l.058.208c1.158 4.175 2.61 8.265 4.249 12.274a119 119 0 0 0 5.153 10.966l.104.192a90 90 0 0 0 3.81 6.435c2.91 4.534 5.606 9.214 7.88 14.102 2.003 4.326 3.68 8.825 4.688 13.493.893 4.14 1.232 8.43.69 12.64a29.7 29.7 0 0 1-2.771 9.294c-.566 1.157-1.239 2.258-1.932 3.343-1.702 2.621-3.6 5.108-5.564 7.538-3.192 3.932-6.58 7.702-10.069 11.372a253 253 0 0 1-14.79 14.314 226 226 0 0 1-5.724 4.922c-5.074 4.258-9.979 8.729-14.544 13.532-4.939 5.202-9.488 10.81-13.2 16.96-2.545 4.214-4.68 8.682-6.253 13.35a63 63 0 0 0-2.957 13.57c-.703 6.583-.413 13.242.499 19.79q.604 4.329 1.544 8.598c.672 3.051 1.456 6.093 2.646 8.988a31 31 0 0 0 3.299 6.02c1.73 2.48 3.742 4.743 5.803 6.948 1.635 1.741 3.335 3.445 5.287 4.835 1.396.998 2.931 1.793 4.532 2.409l.198.075c1.037.392 2.096.72 3.164 1.017l.227.061c1.06.289 2.127.542 3.198.785l.214.047q.53.119 1.06.234zm47.226-295.527c.823-.02 1.595-.371 2.295-.779 1.23-.737 2.304-1.704 3.323-2.706.91-.91 1.783-1.86 2.606-2.85.91-1.123 1.749-2.337 2.228-3.712a6.06 6.06 0 0 0 .262-3.01c-.224-1.328-.82-2.56-1.512-3.704-1.032-1.683-2.293-3.21-3.604-4.681-1.232-1.342-2.421-2.74-3.359-4.308-.72-1.214-1.274-2.562-1.373-3.982a7 7 0 0 1 .165-2.055c.046-.251.087-.503.111-.757-.803-.085-1.615-.007-2.418-.114a8.46 8.46 0 0 1-3.988-1.576c-1.428-1.036-2.527-2.463-3.378-3.995-1.1-1.99-1.826-4.162-2.385-6.358a55 55 0 0 1-.685-3.165c-.322-1.538-.76-3.056-1.376-4.502-.23-.517-.467-1.041-.812-1.493-.938-.54-2.043-.708-3.112-.7-1.704.023-3.378.48-4.935 1.15-.566.256-1.139.509-1.66.849-.222.143-.425.339-.495.602-.166.555-.172 1.142-.178 1.717.001 1.123.089 2.244.174 3.363l.02.237c.103 1.2.247 2.399.463 3.584.27 1.475.691 2.943 1.45 4.247.6 1.054 1.395 1.981 2.23 2.856 1 1.08 2.012 2.184 2.69 3.503.54 1.039.817 2.202.855 3.369.054 1.508-.198 3.007-.49 4.481-.415 2.048-.942 4.07-1.451 6.096-.073.342-.144.685-.195 1.031.733.048 1.472-.007 2.202.104a6.7 6.7 0 0 1 3.115 1.259c1.14.842 2.016 1.982 2.786 3.159.46.71.896 1.437 1.287 2.189a64 64 0 0 0 3.395 5.522c.704 1.022 1.443 2.021 2.26 2.956.607.707 1.279 1.388 2.11 1.828.424.222.898.356 1.379.345m66.31-34.313c1.363-.034 2.712-.263 4.052-.499 2.484-.463 4.94-1.214 7.147-2.465 1.77-.999 3.352-2.345 4.57-3.976 1.502-1.992 2.448-4.353 3.004-6.772.605-2.637.788-5.353.756-8.053a28 28 0 0 0-.296-3.833c-.275-1.797-.813-3.565-1.7-5.157-1.056-1.92-2.561-3.554-4.208-4.983-2.04-1.76-4.292-3.257-6.587-4.66-1.995-1.217-4.04-2.35-6.095-3.463a190 190 0 0 0-9.987-5.086c-1.08-.507-2.167-1-3.266-1.465 1.961 2.142 3.74 4.47 5.1 7.043 1.177 2.214 2.026 4.596 2.57 7.042.748 3.343.977 6.777 1.01 10.195.02 1.905-.039 3.81-.112 5.714q-.056 1.546-.107 3.093l-.027.863q-.052 1.598-.093 3.195l-.006.24c-.053 2.289-.103 4.578-.037 6.866.041 1.11.09 2.226.315 3.316.116.557.31 1.115.69 1.55.2.233.414.453.634.666.484.425 1.146.548 1.768.604.3.025.603.03.904.025m-57.532-.226c.116-1.706-.062-3.42-.363-5.099-.19-.992-.415-1.986-.796-2.924-.283-.726-.595-1.457-1.093-2.065-.122.264-.226.54-.247.832-.105.98-.059 1.97 0 2.952.111 1.6.309 3.197.64 4.767.08.37.169.736.282 1.097.526.167 1.046.35 1.568.528zm44.387-20.352c.168-2.57.217-5.152.035-7.722l-.016-.218c-.006-.087-.01-.119-.018-.222-.245-3.014-.838-6.023-2.013-8.82a22.4 22.4 0 0 0-3.852-6.14c-2.2-2.516-4.875-4.572-7.687-6.358-.071-.044-.195-.13-.07-.022a140 140 0 0 1 3.276 3.191c2.102 2.161 4.006 4.535 5.492 7.165 1.437 2.522 2.472 5.26 3.181 8.072.86 3.398 1.293 6.888 1.563 10.378q.042.559.079 1.118z" class="logo-paths"/></svg>