<?xml version="1.0" encoding="UTF-8" standalone="no"?>
<svg
   version="1.0"
   width="468.20737"
   height="430.98087"
   viewBox="0 0 468.20737 430.98087"
   preserveAspectRatio="xMidYMid"
   id="svg6"
   sodipodi:docname="favicon1.svg"
   inkscape:version="1.2.2 (b0a8486541, 2022-12-01)"
   xmlns:inkscape="http://www.inkscape.org/namespaces/inkscape"
   xmlns:sodipodi="http://sodipodi.sourceforge.net/DTD/sodipodi-0.dtd"
   xmlns="http://www.w3.org/2000/svg"
   xmlns:svg="http://www.w3.org/2000/svg">
  <sodipodi:namedview
     id="namedview6"
     pagecolor="#ffffff"
     bordercolor="#000000"
     borderopacity="0.25"
     inkscape:showpageshadow="2"
     inkscape:pageopacity="0.0"
     inkscape:pagecheckerboard="0"
     inkscape:deskcolor="#d1d1d1"
     showgrid="false"
     inkscape:zoom="1.7889425"
     inkscape:cx="233.65759"
     inkscape:cy="215.21094"
     inkscape:window-width="1920"
     inkscape:window-height="940"
     inkscape:window-x="0"
     inkscape:window-y="32"
     inkscape:window-maximized="1"
     inkscape:current-layer="svg6" />
  <defs
     id="defs10" />
  <g
     class="logo-paths"
     transform="matrix(0.13755347,0,0,-0.13755347,-363.63232,735.28515)"
     fill="#2bb5b8"
     stroke="none"
     id="g4">
    <path
       id="path2"
       d="m 3942.2051,2310.6387 c -26.0023,0.1823 -52.0185,2.3675 -77.6106,7.0236 -12.2393,2.2642 -24.3981,5.0589 -36.2787,8.7886 -16.6944,5.4624 -32.3673,13.6644 -47.1863,23.0216 -21.6287,13.751 -41.5226,30.1137 -59.8795,47.9689 -20.4221,19.9711 -38.9855,41.9009 -54.8019,65.703 -5.3616,8.114 -10.4352,16.4274 -15.0204,25.006 -7.0052,13.5394 -12.3607,27.8595 -17.1627,42.3058 -8.1857,24.9495 -14.5292,50.4682 -19.935,76.1521 -6.9579,33.4549 -12.2508,67.2655 -15.6023,101.2743 -2.7891,28.8367 -4.2248,57.8788 -2.5361,86.8301 2.5509,45.5735 12.0267,90.6582 27.0156,133.7374 20.3599,58.6398 50.6567,113.5 86.7392,163.8835 37.3203,52.0828 80.7972,99.5588 127.7208,143.1112 18.7606,17.4053 38.1083,34.1724 57.8965,50.3984 12.5008,10.3661 24.8446,20.9211 37.0535,31.6295 0.2658,0.2406 0.9003,0.7944 1.3074,1.155 2.7589,2.4244 5.5049,4.8634 8.2512,7.302 0.2838,0.249 0.8955,0.7999 1.3049,1.1644 10.6026,9.4603 21.0883,19.0514 31.4627,28.7614 0.282,0.2601 0.8752,0.8219 1.2764,1.1976 31.6989,29.7557 62.3692,60.6254 91.5556,92.8551 0.2175,0.248 0.8031,0.8925 1.1618,1.2924 20.5791,22.844 40.4542,46.3569 58.8189,71.0277 5.3624,7.2485 10.6512,14.5585 15.6208,22.0833 10.0862,15.5746 16.947,33.1645 20.4535,51.3689 4.0767,20.9452 3.9165,42.5387 1.1149,63.6359 0,-0.07 -0.1555,1.1205 -0.2148,1.5376 -3.5272,25.213 -10.6832,49.8022 -19.7537,73.549 -2.0385,5.3507 -4.3695,11.0713 -6.4967,16.0795 -10.9065,25.6005 -23.8781,50.2826 -38.0563,74.2128 -0.1676,0.2715 -0.6152,1.0309 -0.8902,1.4896 -6.4027,10.7999 -13.1547,21.3863 -19.9579,31.9365 -12.8602,20.11 -25.7147,40.2365 -37.7046,60.8825 -9.9132,17.1032 -19.0389,34.6912 -26.6476,52.9479 -10.3339,24.6596 -18.2097,50.2489 -25.8426,75.8451 -4.8514,16.343 -9.5734,32.7253 -13.9987,49.1894 -5.2975,19.7741 -10.3503,39.6438 -13.9135,59.8144 -3.1448,18.0037 -5.1025,36.3994 -3.3233,54.6615 1.2991,13.614 4.9376,27.0103 10.8516,39.3482 7.87,16.5271 19.3174,31.04 31.626,44.4709 10.3735,11.3188 21.471,21.9417 32.6293,32.4775 15.1855,14.5724 30.9087,28.7211 48.3287,40.6 13.4659,9.198 28.049,16.7942 43.4269,22.2486 21.3349,7.6325 43.8098,11.4211 66.2503,14.0161 13.0043,1.5199 26.0606,2.52 39.1109,3.5445 17.3542,1.4908 34.73,3.3489 51.7654,7.0795 12.6317,2.8297 25.221,6.7759 36.26,13.692 8.1172,5.063 15.0858,11.8332 20.7647,19.5075 7.6167,10.2564 13.3405,21.7597 18.5214,33.3935 5.8516,14.1566 9.7814,29.128 11.4662,44.3586 0.7968,7.8366 1.1166,15.8095 -0.1833,23.6108 -0.1486,0.4037 -0.046,1.6925 -0.6009,0.8884 -8.7714,-8.3901 -16.9235,-17.402 -24.8744,-26.565 -5.0319,-5.7499 -9.7581,-11.7556 -14.7136,-17.5696 -8.2434,-9.6172 -16.8546,-19.0975 -27.1509,-26.5709 -8.0384,-5.883 -17.2199,-10.1618 -26.8673,-12.6266 -11.2618,-2.9176 -22.9126,-3.8626 -34.4913,-4.5251 -10.1344,-0.5222 -20.5211,-0.4908 -30.2953,2.5795 -8.689,2.642 -16.4245,7.7325 -23.1626,13.7314 -7.951,7.0801 -14.9787,15.1085 -21.9911,23.0967 -12.489,14.3217 -24.3914,29.1662 -35.4622,44.6133 -5.2004,7.374 -10.3393,14.8379 -14.4933,22.8645 -1.2383,2.5699 -2.4522,5.1916 -4.3203,7.3805 -3.5574,4.3545 -8.6622,7.7483 -14.3528,8.2992 -3.5885,0.102 -7.1864,0.1099 -10.7615,0.4927 -9.2415,0.8738 -18.5538,3.3737 -26.2593,8.7117 -6.865,4.665 -12.1005,11.5347 -15.1494,19.2263 -3.8206,9.5077 -4.6886,19.9051 -4.4724,30.0635 0.3747,13.7368 2.6366,27.3419 5.3729,40.7826 0.2533,1.202 0.5066,2.404 0.7599,3.6061 0.074,0.3743 0.2431,1.1758 0.3535,1.7137 1.8743,9.2387 3.7997,18.4972 4.6704,27.8959 0.3851,5.0219 0.584,10.3303 -1.5688,15.0173 -2.043,4.3242 -5.181,7.9984 -8.211,11.6536 -12.1684,13.2383 -21.1377,29.1362 -27.7814,45.7723 -8.3628,21.0324 -13.168,43.3446 -15.6578,65.7989 -1.3962,12.5917 -2.0014,25.2629 -2.0362,37.9288 -0.6033,14.5731 -2.3048,29.1093 -5.1898,43.4084 -1.5912,7.5649 -3.407,15.1379 -6.3992,22.2876 -1.304,3.0324 -3.1562,5.7827 -4.623,8.7344 -6.4808,12.3595 -11.0422,25.8575 -12.2709,39.8076 -1.3306,14.1595 0.813,28.484 5.1553,41.9747 5.2117,16.2559 13.2265,31.4511 22.0609,46.0009 5.1994,8.4399 10.9019,16.5646 16.8886,24.4629 20.0967,26.4172 43.9286,49.9107 70.1248,70.2579 30.071,23.3107 63.3289,42.5616 98.676,56.6726 12.3813,4.9238 25.0103,9.2471 37.8642,12.7636 23.9542,6.3 48.5674,9.8827 73.2569,11.6118 27.5983,1.8804 55.3789,1.434 82.8679,-1.7242 19.4174,-2.2718 38.7359,-5.8787 57.4045,-11.7493 12.0901,-3.9161 24.4273,-7.0079 36.7663,-10.0251 9.788,-2.3691 19.6124,-4.5843 29.4496,-6.7389 0.2312,-0.045 1.1727,-0.2513 1.6778,-0.3585 17.5823,-3.8065 35.2241,-7.337 52.914,-10.6064 0.2361,-0.045 1.1802,-0.214 1.6892,-0.3069 7.7959,-1.4272 15.6247,-2.6856 23.3667,-4.3934 23.2056,-4.9844 45.9863,-11.7831 68.439,-19.4428 32.7602,-11.2461 64.8458,-24.4317 96.1641,-39.2184 24.8616,-11.804 49.2856,-24.5967 72.7003,-39.0798 14.0962,-8.7673 27.8816,-18.1143 40.6167,-28.7867 11.694,-9.8557 22.231,-21.061 31.5712,-33.1628 25.2172,-32.7144 41.1308,-72.3099 46.5655,-113.1976 5.5131,-41.2236 0.4576,-84.0962 -16.2115,-122.3179 -10.0747,-23.1327 -24.4448,-44.4622 -42.5439,-62.0775 -14.6714,-14.0635 -31.9186,-25.2268 -50.0968,-34.2034 -19.0733,-9.3737 -39.3015,-16.4042 -60.0801,-20.8678 -17.4108,-3.6869 -35.2969,-5.6371 -53.0945,-4.4704 -13.275,0.9218 -26.6346,3.6265 -38.5703,9.6914 -0.8845,0.6113 -0.4587,-3e-4 -0.081,-0.5528 5.843,-9.26 12.6462,-17.8672 19.5848,-26.3211 10.1783,-12.2706 21.4357,-23.7678 34.3849,-33.1335 16.8437,-12.3103 36.1096,-20.8273 55.7337,-27.6435 20.5302,-7.1065 41.5844,-12.5679 62.7037,-17.6056 23.4456,-5.5687 47.0465,-10.4504 70.6551,-15.2697 32.2726,-6.6917 64.4677,-13.8569 96.253,-22.6038 26.683,-7.3899 53.1436,-15.8867 78.4322,-27.2372 19.392,-8.7154 38.0125,-19.284 54.9244,-32.2048 13.4582,-10.2574 25.8458,-21.8955 37.1299,-34.4972 17.6614,-19.8756 33.0945,-42.0067 43.588,-66.5249 7.4997,-17.5046 12.3479,-36.1809 13.882,-55.1776 1.7171,-20.5904 -0.4465,-41.4098 -5.5757,-61.395 -0.6297,-2.664 -1.2245,-5.3363 -1.7983,-8.013 -0.014,-0.093 -0.2342,-1.1242 -0.324,-1.5625 -1.5436,-7.64 -3.0093,-15.344 -3.2981,-23.1511 -0.032,-1.4809 -0.017,-2.9671 0.1671,-4.4387 4.6839,-3.9205 7.3574,-9.7268 8.6084,-15.6052 1.7636,-8.4542 1.3191,-17.1911 0.2574,-25.7063 -0.6584,-5.2691 -1.7298,-10.4728 -2.836,-15.662 -1.4353,-8.4304 -1.8272,-16.9954 -2.1305,-25.5286 -0.3456,-11.6889 -0.1996,-23.3885 0.2589,-35.0721 0.014,-0.212 0.052,-1.1976 0.075,-1.7085 0.6491,-15.3843 1.933,-30.7425 3.9114,-46.0134 4.6601,-38.8875 6.6279,-78.317 2.3443,-117.3352 -2.8004,-26.0078 -8.4602,-51.6847 -16.5752,-76.5455 -4.9526,-15.2564 -10.8158,-30.2032 -17.209,-44.9099 -6.0081,-14.23 -11.1953,-28.7898 -16.1777,-43.4055 -0.093,-0.2878 -0.3819,-1.138 -0.55,-1.6418 -0.3569,-1.0587 -0.814,-2.4284 -1.1084,-3.293 -2.8784,-8.6339 -5.6559,-17.3012 -8.367,-25.989 -0.1154,-0.3614 -0.3557,-1.1468 -0.519,-1.6706 -0.971,-3.1174 -1.9237,-6.2405 -2.8794,-9.3626 -0.1083,-0.3695 -0.3471,-1.1495 -0.5053,-1.6761 -1.5561,-5.1267 -3.082,-10.2624 -4.5943,-15.4021 -0.1144,-0.3811 -0.3366,-1.1525 -0.4922,-1.6831 -2.7136,-9.2685 -5.3567,-18.5576 -7.9453,-27.8618 -0.1233,-0.4327 -0.338,-1.2213 -0.4963,-1.7903 -3.7549,-13.5515 -7.3817,-27.1384 -10.8944,-40.7546 -0.1259,-0.5074 -0.3469,-1.3568 -0.5093,-1.9953 -0.4062,-1.5885 -0.8375,-3.2663 -1.2153,-4.7458 -0.4603,-1.8167 -0.9205,-3.6335 -1.3808,-5.4503 -0.1227,-0.5082 -0.3395,-1.3587 -0.4982,-1.9981 -0.8498,-3.3765 -1.6839,-6.7566 -2.5194,-10.1367 -0.1369,-0.5433 -0.349,-1.4249 -0.5147,-2.098 -0.8138,-3.3099 -1.6113,-6.6238 -2.4111,-9.9371 -0.1,-0.4367 -0.2931,-1.2329 -0.4287,-1.8073 -5.6343,-23.6049 -10.9036,-47.3016 -15.4795,-71.1361 -0.057,-0.2851 -0.223,-1.1794 -0.322,-1.6985 -4.3161,-22.9241 -8.1249,-46.0189 -9.3025,-69.3465 -0.6589,-13.3005 -0.1374,-26.7136 2.4182,-39.8064 2.4813,-13.0178 6.759,-25.6054 11.4596,-37.9682 4.602,-12.8281 7.4174,-26.2144 9.713,-39.6229 3.8251,-22.9756 5.8604,-46.2087 7.2606,-69.4454 2.2023,-38.1802 2.4586,-76.4491 1.7399,-114.6782 -1.0177,-51.2747 -3.9023,-102.5044 -8.2189,-153.6045 -4.2304,-49.9589 -9.8969,-99.7966 -17.0456,-149.4225 -2.7033,-19.1501 -5.3288,-38.3118 -7.7277,-57.5026 -0.058,-0.4419 -0.1554,-1.2577 -0.2284,-1.8428 -0.974,-7.8349 -1.9016,-15.6756 -2.7755,-23.5224 -0.034,-0.3413 -0.1295,-1.1937 -0.187,-1.7308 -2.2932,-21.1527 -4.262,-42.3686 -4.7152,-63.6511 -0.2629,-15.1269 0.2025,-30.3706 3.1704,-45.2475 2.0977,-10.6214 5.7781,-20.9317 10.9824,-30.4298 4.6534,-8.524 10.2721,-16.4878 16.2786,-24.1053 5.5307,-6.882 11.5344,-13.61 19.0724,-18.3453 5.9922,-3.783 12.9709,-5.7583 19.9917,-6.3887 9.9369,-0.9135 19.9309,0.1182 29.7681,1.5496 16.1699,2.4479 32.1025,6.2161 47.9693,10.1322 8.2799,2.0594 16.5101,4.3257 24.8558,6.1128 29.3544,6.4205 59.3687,9.7301 89.4057,10.214 23.6679,0.3317 47.404,-1.0563 70.7675,-4.9497 16.6965,-2.8226 33.2753,-6.8839 48.9391,-13.4046 10.9034,-4.5995 21.4727,-10.4502 30.0912,-18.6596 6.6453,-6.3122 11.924,-14.2594 14.2454,-23.1875 2.4538,-9.0818 1.7661,-18.8512 -1.3289,-27.6912 -3.9679,-11.3686 -11.4694,-21.2214 -20.34,-29.2384 -11.3972,-10.2903 -25.0834,-17.828 -39.4673,-23.0624 -12.3755,-4.2846 -25.1372,-7.3243 -37.9113,-10.1511 -26.1044,-5.6398 -52.478,-9.9466 -78.9111,-13.7166 -18.9372,-2.6754 -37.9213,-5.0189 -56.9405,-7.0314 7.6727,-0.1675 15.3461,-0.2963 23.0196,-0.4219 0.889,-0.01 2.0666,-0.029 3.0665,-0.042 25.8129,-0.3902 51.6301,-0.4453 77.4416,-0.9367 26.0104,-0.4777 52.0269,-1.0985 77.9988,-2.6494 12.5315,-0.8081 25.0807,-1.7201 37.4893,-3.7081 6.3815,-1.0912 12.8403,-2.3552 18.7269,-5.1488 4.4912,-2.1218 8.5203,-5.5762 10.5455,-10.1894 2.2825,-5.0734 3.205,-10.8831 1.8604,-16.339 -1.3863,-5.9347 -5.3522,-11.0274 -10.3342,-14.4311 -6.0933,-4.1946 -13.2877,-6.3883 -20.4232,-8.051 -11.5128,-2.5794 -23.2817,-3.7654 -35.025,-4.7089 -21.6733,-1.6369 -43.4133,-2.1305 -65.1403,-2.4201 -29.1178,-0.338 -58.2382,-0.1159 -87.3551,0.2037 -31.3671,0.2194 -62.7422,0.4863 -94.0862,1.7914 -21.1286,0.9335 -42.2785,2.2775 -63.2081,5.4232 -18.1376,2.7387 -36.1573,7.0504 -53.0131,14.4058 -13.974,6.0289 -26.9652,14.1262 -39.1532,23.1975 -7.1143,5.3112 -14.0594,10.8519 -20.8214,16.6043 -7.0008,6.1377 -14.1005,12.2048 -20.4557,19.025 -3.9479,4.329 -7.6502,9.259 -8.8425,15.1188 -1.1017,5.077 0,10.5744 3.0106,14.8147 3.1143,4.4855 7.9936,7.3328 12.9679,9.3312 3.7463,1.5705 7.6402,2.7742 11.6294,3.5471 10.3189,2.026 20.8015,3.0493 31.2657,3.9853 23.6423,1.9845 47.3728,2.7971 71.0947,2.8344 6.1313,0.063 12.2618,0.1828 18.3915,0.3287 0.345,0.013 1.2003,0.033 1.7408,0.048 16.5489,0.437 33.0896,1.1628 49.6167,2.1157 0.4032,0.021 1.1985,0.071 1.7519,0.1031 2.9112,0.1703 5.8218,0.3521 8.7324,0.5336 0.3863,0.028 1.1982,0.079 1.7474,0.1154 1.3993,0.092 2.8614,0.1858 4.1541,0.272 13.7129,0.9195 27.4155,1.9929 41.1044,3.2181 0.5608,0.055 1.461,0.1334 2.1519,0.1973 4.4074,0.398 8.813,0.8162 13.2172,1.248 0.7432,0.078 1.7913,0.1792 2.6515,0.2661 0.9791,0.098 2.02,0.2007 2.8772,0.2869 1.5262,0.1568 3.0525,0.3136 4.5788,0.4704 0.3843,0.044 1.1939,0.1273 1.7411,0.1863 27.1485,2.8869 54.2537,6.3207 81.1519,11.0262 0.8104,0.1434 1.6208,0.2867 2.4312,0.4301 0.2515,0.043 1.1803,0.215 1.6926,0.3076 12.8604,2.377 25.7076,4.9788 38.2527,8.7119 3.8301,1.1759 7.6135,2.4974 11.4062,3.7871 -7.7349,2.8431 -15.9009,4.2764 -24.0393,5.3946 -15.9743,2.083 -32.1168,2.5576 -48.2109,2.3409 -25.3597,-0.4191 -50.688,-2.7035 -75.7226,-6.7662 -14.7701,-2.4087 -29.4307,-5.5167 -43.8583,-9.5002 -19.0423,-4.9605 -38.3247,-9.2602 -57.9223,-11.2969 -16.2109,-1.6497 -32.7713,-1.6653 -48.7261,1.9825 -13.016,2.9357 -25.4394,8.503 -36.219,16.3766 -13.0611,9.461 -23.6664,21.8927 -32.7019,35.1582 -3.0921,4.5718 -6.0144,9.2555 -8.9563,13.9245 -8.918,14.5221 -16.6906,29.7456 -23.3129,45.4463 -4.1908,10.0891 -8.016,20.3883 -10.389,31.0725 -0.8375,4.0308 -1.5659,8.0946 -1.792,12.2124 -0.6255,10.1483 -0.2646,20.3255 0.1532,30.4748 1.1188,23.5593 3.2615,47.0573 5.7397,70.5084 3.083,28.8441 6.8389,57.6147 11.1478,86.3008 0.3357,2.4687 0.6715,4.9373 1.0072,7.406 0.048,0.3819 0.1575,1.1903 0.229,1.7355 0.6888,5.1435 1.3567,10.2897 2.021,15.4364 0.06,0.4417 0.1596,1.2571 0.2347,1.842 4.7839,37.6371 8.94,75.3527 12.6227,113.113 0.068,0.6687 0.1594,1.6593 0.2364,2.4515 1.4937,15.4714 2.8887,30.9523 4.1894,46.4411 0.037,0.4027 0.099,1.1966 0.145,1.7491 2.3899,29.0679 4.4848,58.1676 5.659,87.3126 0.2815,7.3885 0.4767,14.7798 0.8205,22.1659 0.1536,3.7749 0.2965,7.5501 0.4458,11.3252 0.021,0.4879 0.049,1.3329 0.073,1.9576 0.8559,23.7026 1.6276,47.4213 1.2906,71.1423 -0.1714,10.6431 -0.6083,21.2863 -1.5333,31.8922 -0.012,0.08 -0.1045,1.1425 -0.1462,1.5856 -1.4522,16.2044 -4.3233,32.259 -8.1854,48.0565 -2.7325,11.2955 -5.9082,22.4767 -9.0991,33.649 -5.9422,22.1186 -11.4269,44.4209 -14.6386,67.121 -2.4281,17.0877 -3.3139,34.4238 -2.1066,51.653 0.8847,13.2021 3.0058,26.2797 5.1889,39.3177 4.6979,27.3205 10.4575,54.4458 16.5456,81.4864 8.5082,37.4508 17.7836,74.7287 27.8502,111.7912 6.6806,24.4519 13.6444,48.8364 21.5196,72.9337 3.8207,11.5451 7.7586,23.0748 12.6263,34.2282 2.3506,5.2779 5.1271,10.3513 7.5795,15.5815 9.4224,19.5427 17.5432,39.802 22.8198,60.8796 5.7093,22.4494 8.176,45.6026 8.9066,68.7181 0.5103,15.7248 0.2712,31.465 -0.3196,47.1841 -0.01,0.3026 -0.048,1.1994 -0.069,1.7302 -0.1644,4.1933 -0.3624,8.3852 -0.5718,12.5764 -0.021,0.336 -0.064,1.199 -0.094,1.7369 -0.3265,6.2171 -0.7013,12.4316 -1.1072,18.644 -0.029,0.3947 -0.081,1.1979 -0.1191,1.749 -1.5766,24.174 -3.1087,48.3512 -4.668,72.5264 -6.5717,-9.0579 -13.299,-18.0082 -19.5082,-27.3226 -21.0503,-31.3025 -38.7078,-64.7598 -54.5191,-98.9704 -0.6224,-1.3574 -1.2448,-2.7148 -1.8672,-4.0723 -0.134,-0.2849 -0.4962,-1.0931 -0.7177,-1.5789 -0.3585,-0.7929 -0.8504,-1.8716 -1.1261,-2.4875 -19.3283,-42.9406 -35.9428,-87.0506 -51.2694,-131.5602 -3.597,-10.367 -6.926,-20.8247 -10.5653,-31.1773 -9.6555,-27.7253 -20.0412,-55.1986 -31.2043,-82.3523 -5.4724,-13.1649 -11.0328,-26.3081 -17.3616,-39.0892 -10.1531,-20.1796 -21.5215,-39.7205 -33.2534,-59.0156 -18.7576,-30.742 -38.6173,-60.7992 -59.05,-90.4498 -25.4209,-36.8126 -51.7688,-72.9911 -79.2096,-108.3257 -17.6757,-22.6909 -35.767,-45.0769 -54.8569,-66.5988 -9.4121,-10.5819 -19.1694,-20.8506 -28.6145,-31.4031 -10.7121,-11.9368 -21.3288,-23.9976 -30.898,-36.8831 -7.3465,-9.9941 -14.1675,-20.5773 -18.3548,-32.3224 -3.2841,-9.0969 -4.5525,-18.8705 -3.9502,-28.5121 0.7491,-12.632 4.031,-24.9524 7.9204,-36.9409 5.2233,-15.8484 11.6627,-31.2611 18.2954,-46.562 0.5482,-1.2591 1.2477,-2.8559 1.7017,-3.9048 4.6163,-10.4959 9.3534,-20.938 14.1217,-31.3656 0.3,-0.6444 0.7246,-1.5748 1.0724,-2.3291 7.2957,-15.9355 14.7871,-31.7809 22.0273,-47.7419 16.4674,-36.1548 32.4389,-72.5605 46.6436,-109.6721 13.4684,-35.2681 25.2109,-71.289 33.1032,-108.2423 5.9954,-27.7809 9.7328,-56.02 11.7601,-84.359 1.4951,-20.4966 2.1407,-41.0447 2.4317,-61.5906 0.2685,-17.4646 0.5145,-34.9408 -0.1073,-52.4008 -0.5944,-16.4404 -2.1629,-32.9443 -6.3771,-48.8895 -4.7334,-18.1859 -12.5988,-35.3343 -20.5285,-52.3028 -5.992,-12.8887 -12.4945,-25.5375 -19.3572,-37.983 -15.0885,-27.2953 -32.4923,-53.4381 -53.2712,-76.7546 -16.4358,-18.4926 -34.9701,-35.098 -55.0442,-49.5523 -18.0192,-13.0189 -37.226,-24.3235 -56.9873,-34.4768 -28.7715,-14.9688 -58.2387,-28.738 -88.7969,-39.675 -28.0168,-10.0141 -57.0497,-17.5308 -86.6845,-20.6413 -24.1735,-2.5803 -48.6591,-2.1361 -72.7312,1.2497 -11.2111,1.5302 -22.2958,3.8424 -33.342,6.2673 -26.0284,5.8306 -51.8688,13.4869 -75.6762,25.7049 -16.8585,8.5941 -32.4654,19.5804 -46.4139,32.3561 -5.922,5.3695 -11.5095,11.0927 -16.9753,16.9216 -4.8382,4.9733 -9.6235,10.0077 -14.7377,14.7014 -1.8178,-2.9059 -3.3892,-5.9614 -5.32,-8.7989 -7.0517,-10.6715 -15.534,-20.3131 -24.3738,-29.526 -14.6477,-15.1185 -30.5463,-29.0045 -47.2691,-41.7806 -13.4412,-10.1765 -27.4285,-19.7213 -42.378,-27.5574 -6.0649,-3.2007 -12.3607,-5.9645 -18.8579,-8.1641 -14.7988,-5.0496 -30.2254,-8.02 -45.7047,-10.0414 -18.1234,-2.3214 -36.4134,-3.2343 -54.6785,-3.1433 z m 37.1445,65.7422 c 12.4119,1.6591 24.3839,5.6882 35.8554,10.6079 16.4057,7.1171 31.8767,16.2854 46.3754,26.7281 15.6465,11.3534 30.2541,24.247 42.8195,38.9675 8.3204,9.835 15.8405,20.5088 21.0004,32.363 1.6617,3.9057 2.984,7.9464 4.6849,11.8371 4.0743,9.5463 8.9846,18.9115 15.9745,26.6685 5.3437,5.9402 12.1891,10.7734 20.0243,12.7048 7.3179,1.8688 15.1765,1.0017 22.1045,-1.9081 8.8869,-3.7059 16.3089,-10.1557 22.7295,-17.2071 5.295,-5.8836 10.0491,-12.2469 14.3458,-18.8905 10.552,-16.4059 23.7793,-31.1183 39.1881,-43.0991 17.8337,-13.9397 38.3567,-24.157 59.7316,-31.4342 7.6451,-2.6144 15.4117,-4.8668 23.2501,-6.8243 4e-4,-0 1.107,-0.2715 1.5262,-0.375 20.9866,-5.1796 42.6029,-8.0882 64.2423,-7.6768 22.9034,0.3679 45.6284,4.4157 67.6221,10.6799 3.5814,1.0118 7.1432,2.0917 10.6934,3.2079 0.021,0.012 1.0874,0.3492 1.5017,0.4837 19.5622,6.2771 38.6304,14.0014 57.3772,22.3835 0.2246,0.097 1.0935,0.4929 1.5664,0.7052 0.8223,0.371 1.6445,0.7421 2.4668,1.1131 0.2507,0.1193 1.0911,0.4998 1.5685,0.7195 3.6193,1.649 7.2243,3.3292 10.8221,5.0247 0.3652,0.177 1.0852,0.5139 1.5861,0.7521 29.7392,14.0227 57.8172,31.7649 82.5661,53.461 22.9745,20.0582 42.9732,43.45 59.6245,68.9836 8.611,13.1438 16.3041,26.8716 23.3166,40.9284 5.8826,11.7122 11.8407,23.4374 16.3258,35.7742 3.6267,9.8942 5.88,20.2564 7.0326,30.7219 1.6707,15.1328 1.7475,30.3817 1.7477,45.5889 -0.03,7.3503 -0.119,14.7002 -0.2365,22.0496 -0.01,0.672 -0.029,1.6667 -0.042,2.4625 -0.2803,15.5901 -0.5036,31.1862 -1.384,46.7569 -1.6584,30.9047 -5.3531,61.7277 -11.6981,92.0306 -0.081,0.3877 -0.3088,1.5041 -0.3021,1.4571 -5.1293,24.309 -11.901,48.2548 -19.8926,71.7734 -0.012,0.046 -0.3721,1.0822 -0.5142,1.4981 -12.9219,37.7255 -28.7892,74.3694 -45.7484,110.4362 -0.7653,1.6209 -1.5306,3.2417 -2.296,4.8626 -0.1616,0.3305 -0.517,1.0837 -0.7528,1.5761 -7.3401,15.4874 -14.9798,30.8298 -22.5992,46.1808 -11.3654,23.1258 -22.4442,46.4186 -32.1129,70.3135 -7.9853,19.9001 -15.0614,40.288 -19.039,61.4042 -2.9936,15.99 -4.0002,32.4517 -1.83,48.6141 2.0676,15.826 7.2087,31.1597 14.4378,45.3586 9.2688,18.2556 21.5535,34.7826 34.6405,50.4552 12.5036,14.9338 25.8717,29.114 39.3788,43.1372 12.4378,13.2334 24.1488,27.1284 35.6499,41.177 20.4469,25.0705 40.0949,50.7851 59.2399,76.8607 19.6463,26.7922 38.7134,54.0139 56.9418,81.7921 16.0874,24.4119 31.9021,49.0158 46.7777,74.1891 0.1538,0.2697 0.6072,1.0355 0.876,1.4957 2.4516,4.1651 4.8662,8.3519 7.2587,12.5511 0.1457,0.2662 0.5903,1.0453 0.8507,1.5084 10.0676,17.7773 19.493,35.924 28.0458,54.4799 0.093,0.2146 0.4987,1.0907 0.7123,1.5604 4.7455,10.3549 9.2215,20.8324 13.4655,31.4025 0.1349,0.3288 0.4458,1.1149 0.6481,1.6189 1.1576,2.888 2.2868,5.7871 3.4124,8.6877 0.099,0.2709 0.429,1.121 0.6169,1.6144 0.6854,1.7764 1.4662,3.8541 2.0744,5.4461 7.052,18.678 13.3505,37.6265 20.0061,56.4466 12.7661,36.2284 25.8142,72.3766 40.4337,107.9054 11.4526,27.8573 24.0618,55.258 38.3277,81.7928 17.7949,33.2256 38.0216,65.0681 58.6642,96.578 0.2031,0.322 0.6536,1.0072 0.9514,1.4683 0.7129,1.0972 1.4257,2.1943 2.1385,3.2914 0.1943,0.294 0.6506,1.0092 0.9452,1.4645 12.0304,18.672 23.7101,37.5885 34.3165,57.1117 0.045,0.076 0.5435,1.011 0.7557,1.4038 8.7183,16.2578 16.762,32.9638 22.56,50.5076 4.8399,14.6783 7.9217,30.1034 7.4123,45.6147 -0.3282,11.9477 -2.8359,23.7464 -6.5817,35.0682 -5.3655,16.721 -12.6949,32.9679 -23.1337,47.1634 -9.7203,13.3366 -22.0796,24.6055 -35.7067,33.8501 -16.7974,11.421 -35.28,20.1124 -54.1203,27.5816 -6.3269,2.4952 -12.7099,4.8461 -19.1329,7.0821 -0.247,0.09 -1.1339,0.3922 -1.6272,0.564 -26.5042,9.1035 -53.5736,16.4538 -80.7646,23.1886 -22.551,5.5689 -45.2285,10.6068 -67.9347,15.4985 -31.5273,6.9193 -62.9593,14.3898 -93.9081,23.5898 -23.9845,7.1827 -47.7379,15.389 -70.3848,26.1292 -20.2426,9.5911 -39.5531,21.4319 -56.3284,36.3476 -13.3453,11.8108 -25.0435,25.4351 -35.0463,40.1706 1.6865,-18.855 6.0669,-37.4558 12.9109,-55.1035 9.6114,-24.8826 23.6866,-47.7843 39.3854,-69.2549 13.6918,-18.7567 25.5943,-38.8534 35.0161,-60.0908 12.8587,-28.7601 21.2385,-59.324 27.1518,-90.2087 6.0663,-31.7693 9.7162,-63.9465 12.4557,-96.1566 2.8902,-34.5108 4.6964,-69.1029 6.045,-103.7052 1.1441,-28.8564 2.2719,-57.7227 2.3534,-86.6057 0.049,-23.4828 -0.8324,-47.0101 -3.8799,-70.3122 -3.3134,-25.7887 -9.0181,-51.1879 -14.8857,-76.4934 -11.686,-48.5887 -24.4262,-97.0072 -41.0544,-144.1692 -10.6594,-30.2997 -23.0166,-59.9991 -36.9531,-88.9375 -21.7032,-45.1253 -46.9151,-88.456 -73.0837,-131.1116 -13.9557,-22.6982 -28.186,-45.2274 -42.6051,-67.6336 -0.7236,-1.1167 -1.4472,-2.2333 -2.1708,-3.35 -0.1491,-0.2405 -0.6472,-1.0107 -0.9303,-1.4549 -1.0469,-1.6311 -2.2642,-3.5368 -3.2034,-4.9947 -1.391,-2.1906 -2.782,-4.3812 -4.173,-6.5718 -0.1787,-0.2932 -0.6389,-1.0166 -0.9254,-1.4747 -21.1481,-33.5783 -41.4251,-67.6991 -61.1722,-102.1177 -1.3364,-2.3413 -2.7736,-4.8514 -4.0469,-7.0873 -2.8349,-4.9842 -5.6594,-9.9743 -8.4727,-14.9707 -0.2351,-0.4272 -0.6515,-1.1639 -0.956,-1.7097 -1.0544,-1.8819 -2.1088,-3.7639 -3.1631,-5.6458 -0.2033,-0.3561 -0.5843,-1.0489 -0.8556,-1.5339 -13.4434,-24.1467 -26.6079,-48.4603 -38.957,-73.1853 -3.8803,-7.6892 -7.7495,-15.384 -11.5937,-23.0913 -0.1615,-0.3182 -0.5332,-1.0759 -0.7752,-1.5624 -7.9734,-16.1374 -15.944,-32.3025 -22.7054,-48.9949 -5.3323,-13.1202 -9.6271,-26.6853 -12.36,-40.5915 -3.4795,-17.4791 -5.038,-35.2651 -6.4198,-53.0115 -1.1721,-15.3401 -2.0998,-31.1073 -3.104,-46.6766 -2.922,-43.6997 -9.3142,-87.1395 -18.4797,-129.957 -9.5121,-44.3152 -22.0074,-87.9932 -37.4214,-130.617 -14.1163,-38.9868 -30.6722,-77.1196 -50.0978,-113.7623 -9.3029,-17.5795 -19.3371,-34.7694 -30.0336,-51.5371 -21.1666,-33.3424 -44.0567,-65.5734 -68.1151,-96.8865 -24.3547,-31.634 -49.9178,-62.3543 -76.9448,-91.7438 -18.5028,-20.0547 -37.6618,-39.5437 -58.082,-57.658 -8.148,-7.2386 -16.57,-14.1653 -25.2264,-20.7868 -7.0512,-5.4883 -14.0598,-11.0367 -20.8559,-16.8396 0.098,0.012 0.1954,0.025 0.293,0.037 z m -81.293,3.6738 c -1.3711,6.9829 -1.5874,14.4353 0.9047,21.1991 1.7076,4.631 4.9551,8.7773 9.3511,11.1117 2.5571,1.373 5.4447,2.1316 8.3497,2.1716 3.2804,0.9121 6.2264,2.7101 9.1422,4.42 8.8931,5.5011 17.0792,12.0513 25.1052,18.7302 12.9752,10.8919 25.3576,22.4692 37.4967,34.2795 0.161,0.1642 0.8556,0.8402 1.2225,1.2019 23.6941,23.2325 46.3656,47.4918 68.3495,72.3432 24.5467,27.8119 48.2183,56.4101 70.596,85.9998 0.1282,0.1815 0.7187,0.9597 1.0254,1.3716 2.3018,3.049 4.8842,6.543 6.9652,9.3498 9.2423,12.6083 18.2884,25.3703 26.6991,38.5521 39.5764,61.5418 70.1206,128.7276 91.9794,198.5071 0.1643,0.5225 0.4006,1.2661 0.4619,1.4594 2.1099,6.8066 4.1455,13.6359 6.1073,20.4866 0.019,0.056 0.3104,1.1026 0.4308,1.5272 13.7489,48.5153 23.4026,98.1729 29.152,148.2643 1.9589,17.0224 3.418,34.0987 4.5237,51.1969 1.4329,20.5785 2.7822,41.1706 4.949,61.6881 1.9812,18.6182 4.8631,37.2129 10.137,55.2097 6.1653,21.2821 15.3333,41.5273 24.8559,61.4808 8.9422,18.6348 18.2377,37.097 27.4915,55.5781 13.1505,25.9376 27.0392,51.4944 41.2308,76.8748 19.6544,35.0501 39.9275,69.7598 61.1358,103.8944 7.7867,12.5334 15.7629,24.9485 23.9187,37.2449 43.5145,66.8932 84.153,135.8704 117.566,208.4169 5.7126,12.41 11.221,24.9141 16.5053,37.5126 0.1179,0.2751 0.4616,1.108 0.6663,1.5973 2.7648,6.615 5.4592,13.2592 8.1013,19.9241 0.1067,0.263 0.4391,1.117 0.6326,1.6071 3.3264,8.4381 6.5424,16.9195 9.6681,25.434 0.1009,0.2682 0.4106,1.1278 0.5917,1.6232 8.0337,21.9868 15.3368,44.236 22.0763,66.6521 4.5566,15.0909 9.0639,30.2083 12.7383,45.543 0.018,0.098 0.2626,1.1184 0.3639,1.5552 0.774,3.2722 1.4955,6.5565 2.1771,9.8491 0.011,0.079 0.2273,1.1244 0.3142,1.5607 3.823,18.7476 5.7414,37.8306 6.72,56.9229 0.041,0.7181 0.046,0.8984 0.082,1.6224 0.5443,10.9154 0.8248,21.842 0.9956,32.769 0,0.3704 0.016,1.2006 0.023,1.7471 0.3992,31.7954 0.032,63.5938 -0.3171,95.3879 -0.1593,14.238 -0.1841,28.4772 -0.3888,42.7148 -0.039,3.0254 -0.085,6.0507 -0.1271,9.076 -0.01,0.5634 -0.024,1.4668 -0.035,2.1606 -0.075,4.7683 -0.1675,9.5363 -0.2636,14.3042 -0.01,0.4881 -0.03,1.3335 -0.043,1.9585 -0.045,1.995 -0.09,3.9899 -0.1347,5.9849 -0.013,0.3873 -0.031,1.2003 -0.046,1.7506 -0.7448,28.9342 -1.9106,57.8782 -4.6126,86.7036 -0.1469,1.5146 -0.2938,3.0292 -0.4407,4.5438 -9e-4,0.033 -0.1196,1.1368 -0.1646,1.5715 -2.1232,20.4888 -5.1478,40.924 -10.0756,60.9403 -0.028,0.09 -0.2795,1.1138 -0.3896,1.5475 -4.669,18.6115 -11.2297,36.758 -19.7393,53.9617 -9.0773,18.5028 -20.1975,35.9128 -31.8958,52.8502 -15.0699,22.1494 -29.3209,45.072 -39.5396,69.9168 -6.9243,16.6901 -11.9018,34.1515 -15.2696,51.8939 -4.7289,24.9895 -6.6016,50.417 -7.588,75.7992 -1.115,29.9775 -0.9651,59.9844 -0.6043,89.9752 0.1283,9.4101 0.2763,18.8199 0.45,28.2293 0,0.3873 0.017,1.2006 0.024,1.751 0.3815,24.6264 0.4529,49.2599 -0.016,73.8857 -0.01,0.3115 -0.026,1.2002 -0.039,1.7332 -0.4913,22.7041 -1.3666,45.4182 -3.5099,68.033 -1.0902,11.0216 -2.4028,22.0516 -4.8163,32.8725 -1.7646,7.9073 -4.8596,15.4538 -8.4066,22.7145 -7.4165,14.9646 -17.1766,28.6526 -27.8789,41.43 -16.4669,19.5187 -35.332,36.9251 -55.4577,52.6059 -16.9051,13.1242 -34.7473,25.0484 -53.3651,35.6043 -13.3447,7.4782 -27.1492,14.3558 -41.8299,18.8023 -11.6849,3.5744 -23.9963,5.2555 -36.2079,4.4132 -16.5581,-1.0968 -32.5314,-6.2585 -47.796,-12.5139 -8.0833,-3.3379 -16.0128,-7.0345 -23.935,-10.7345 -2.8021,-1.3192 -5.589,-2.6701 -8.3768,-4.0191 -0.029,-0.011 -1.025,-0.5055 -1.4169,-0.6979 -26.548,-13.0723 -52.3159,-27.8745 -76.2686,-45.2908 -18.346,-13.3614 -35.6407,-28.2955 -50.6661,-45.3433 -0.027,-0.04 -0.7522,-0.8625 -1.04,-1.1946 -14.4062,-16.6055 -26.6328,-35.3733 -34.1735,-56.1076 -1.1659,-3.2059 -2.2198,-6.4528 -3.1498,-9.7349 10.2551,3.6012 21.2227,4.7061 32.0402,4.5938 15.0438,-0.231 30.0398,-2.8449 44.3211,-7.5624 11.4348,-3.8437 22.5471,-9.0911 32.0075,-16.661 4.416,-3.5487 8.4678,-7.6244 11.519,-12.4234 4.8987,-7.5125 8.5086,-15.7762 11.7539,-24.1111 5.3573,-14.0417 9.4973,-28.5511 12.3667,-43.3034 0.4007,-2.1516 0.7838,-4.3065 1.2143,-6.4524 9.2989,17.7253 25.2252,32.0893 44.2168,38.6601 7.8723,2.7286 16.2331,4.0095 24.5613,3.7689 8.6247,-0.1159 17.4674,-0.9803 25.4022,-4.6022 7.1491,-3.174 13.1356,-8.546 17.7748,-14.7819 5.7558,-7.7237 9.9813,-16.4384 14.0402,-25.1343 3.9842,-8.6092 7.7453,-17.3325 10.8395,-26.3056 6.6208,-19.0281 11.0433,-38.901 12.2246,-59.0399 0.7623,-13.8681 0.015,-27.9569 -3.6783,-41.3992 -2.8499,-10.3182 -7.638,-20.3279 -15.1618,-28.0646 -2.3237,-2.3663 -4.7095,-4.6912 -6.7466,-7.3162 2.6886,-4.0524 6.1791,-7.485 9.0501,-11.4018 7.7361,-10.1712 14.3669,-21.128 20.6959,-32.2134 11.6946,-20.7196 22.1169,-42.1413 31.6513,-63.9334 7.4674,-17.2092 14.4358,-34.6628 20.0823,-52.5619 2.864,-9.2867 5.4983,-18.7067 6.6652,-28.3777 0.8495,-7.1783 0.1926,-14.4442 -0.9458,-21.5524 -2.2565,-13.5365 -6.6289,-26.6341 -11.8748,-39.2843 -7.4213,-17.6879 -16.7006,-34.5912 -27.5335,-50.4178 -8.5464,-12.3926 -18.0636,-24.2087 -29.1814,-34.399 -8.3782,-7.7475 -18.0185,-14.025 -28.1628,-19.2032 -16.717,-8.5168 -34.677,-14.3508 -52.8897,-18.7 -26.2276,-6.1912 -53.1274,-9.2582 -80.0384,-10.1696 -6.2932,-0.267 -12.6079,-0.057 -18.8814,-0.7158 -16.8179,-1.6553 -33.1537,-6.6863 -48.5925,-13.4357 -13.1337,-5.7713 -25.6686,-12.8754 -37.4899,-20.9953 -0.09,-0.058 -0.9449,-0.6544 -1.3152,-0.9097 -17.3749,-12.1554 -33.3061,-26.5081 -46.5427,-43.1089 -9.3031,-11.7625 -17.3378,-24.7263 -22.2506,-38.9582 -1.8794,-5.5471 -3.3526,-11.2709 -3.7731,-17.1304 -0.8644,-11.1443 0.1262,-22.3373 1.5711,-33.3909 2.5456,-18.5838 6.7855,-36.8932 11.6953,-54.9824 0,0.018 0.3058,-1.096 0.4225,-1.5089 8.422,-30.3511 18.9685,-60.0864 30.8879,-89.2324 11.1633,-27.1695 23.5891,-53.8295 37.463,-79.7235 0.02,-0.043 0.5449,-1.0064 0.7534,-1.3931 8.5979,-15.9577 17.7975,-31.594 27.6974,-46.7795 21.1552,-32.9623 40.7602,-66.9912 57.2863,-102.5256 14.5673,-31.4492 26.7641,-64.1584 34.0884,-98.0917 6.4868,-30.0966 8.9527,-61.2778 5.0073,-91.8961 -2.9676,-23.4182 -9.7705,-46.3491 -20.1394,-67.5592 -4.1169,-8.4117 -9.0054,-16.4191 -14.0449,-24.3034 -12.3692,-19.0579 -26.1753,-37.1388 -40.4503,-54.7986 -23.2076,-28.5853 -47.8336,-55.9949 -73.1998,-82.6738 -34.4178,-36.1168 -70.2756,-70.8652 -107.5198,-104.0611 -13.6651,-12.1651 -27.5497,-24.0818 -41.6139,-35.783 -36.8876,-30.9596 -72.5467,-63.4584 -105.7358,-98.3785 -35.9027,-37.8197 -68.9732,-78.5925 -95.9664,-123.2952 -18.495,-30.6355 -34.0195,-63.1231 -45.4534,-97.0535 -10.8095,-31.9493 -17.9517,-65.117 -21.4995,-98.6523 -5.1103,-47.8573 -2.9967,-96.2707 3.6299,-143.8711 2.9213,-20.9732 6.675,-41.829 11.2257,-62.5097 4.8855,-22.1833 10.5828,-44.2976 19.2383,-65.3454 6.3137,-15.4318 14.4247,-30.1091 23.9802,-43.7673 12.5732,-18.0178 27.2063,-34.4763 42.1886,-50.5045 11.887,-12.6601 24.2448,-25.0458 38.432,-35.1481 10.1542,-7.2549 21.3121,-13.0409 32.9512,-17.5136 -0.1174,0.041 1.0498,-0.4003 1.4363,-0.5485 7.5385,-2.8471 15.2414,-5.2389 23.0051,-7.389 0.207,-0.052 1.1564,-0.3159 1.6502,-0.4499 7.6997,-2.0964 15.465,-3.9407 23.2463,-5.7064 0.077,-0.012 1.1201,-0.2473 1.5544,-0.3419 2.5688,-0.5624 5.1324,-1.147 7.7034,-1.6991 -0.036,0.1738 -0.073,0.3477 -0.1094,0.5215 z m 343.3282,2148.4551 c 5.9841,0.1452 11.5955,2.6969 16.6828,5.6625 8.9488,5.3568 16.7516,12.3849 24.159,19.6715 6.6166,6.6208 12.9635,13.5181 18.9456,20.7183 6.6156,8.1656 12.7162,16.9918 16.195,26.9887 2.4401,6.9861 3.1639,14.5762 1.9066,21.8789 -1.6263,9.6571 -5.965,18.6155 -10.9912,26.9325 -7.5003,12.2323 -16.6719,23.3371 -26.199,34.0294 -8.9607,9.7523 -17.6034,19.9217 -24.4195,31.3193 -5.241,8.8206 -9.2614,18.6224 -9.9863,28.9476 -0.3901,5.0062 0.097,10.0502 1.2,14.9402 0.3343,1.8234 0.6327,3.6553 0.8136,5.5009 -5.8437,0.6192 -11.7476,0.049 -17.5799,0.8287 -10.4448,1.2245 -20.5167,5.2486 -28.9954,11.4583 -10.3794,7.5306 -18.3722,17.9051 -24.5579,29.0438 -7.9932,14.4634 -13.2729,30.2535 -17.3394,46.22 -1.938,7.6087 -3.4954,15.3062 -4.9789,23.014 -2.34,11.177 -5.5227,22.2135 -10.0052,32.7284 -1.6742,3.7595 -3.3894,7.567 -5.8988,10.8552 -6.8225,3.9275 -14.8534,5.144 -22.6289,5.0879 -12.386,-0.1733 -24.5525,-3.4882 -35.8762,-8.3647 -4.1159,-1.857 -8.2755,-3.6961 -12.0675,-6.1685 -1.6105,-1.0443 -3.0905,-2.4663 -3.5973,-4.3789 -1.2096,-4.0356 -1.2463,-8.3031 -1.2947,-12.482 0.012,-8.1646 0.6471,-16.3115 1.2674,-24.4477 0.029,-0.3014 0.098,-1.1963 0.1428,-1.7256 0.7485,-8.726 1.7943,-17.4356 3.3695,-26.0533 1.9663,-10.7226 5.0214,-21.3955 10.5327,-30.8728 4.3699,-7.6663 10.15,-14.4058 16.2245,-20.7622 7.2631,-7.8615 14.6245,-15.8785 19.5566,-25.4708 3.9191,-7.5495 5.9322,-16.0083 6.2086,-24.4915 0.391,-10.9662 -1.4416,-21.8579 -3.557,-32.5777 -3.0227,-14.8857 -6.856,-29.5895 -10.5547,-44.3163 -0.5311,-2.4875 -1.0439,-4.9809 -1.4191,-7.4973 5.3325,-0.3481 10.7074,0.057 16.0097,-0.75 8.166,-1.0689 16.0419,-4.2316 22.6485,-9.1543 8.2885,-6.121 14.6527,-14.4119 20.252,-22.9654 3.3452,-5.1662 6.5151,-10.4511 9.3534,-15.9135 7.5405,-13.7881 15.7862,-27.1924 24.6835,-40.1463 5.1164,-7.4284 10.4892,-14.6947 16.4257,-21.4927 4.4182,-5.136 9.3038,-10.0867 15.349,-13.2845 3.0793,-1.6169 6.5251,-2.5911 10.0204,-2.5101 z m 482.0644,249.4511 c 9.9134,0.2466 19.7177,1.914 29.4632,3.6266 18.0595,3.3656 35.9133,8.827 51.9557,17.9198 12.872,7.2632 24.3726,17.0475 33.2296,28.9072 10.9136,14.4837 17.7898,31.6484 21.8328,49.2344 4.3961,19.1676 5.732,38.9165 5.4967,58.5412 -0.1266,8.807 -0.6651,17.6193 -1.9233,26.3411 2e-4,0.014 -0.1622,1.0993 -0.2287,1.5218 -1.9989,13.0636 -5.9131,25.9176 -12.3538,37.4976 -7.6789,13.9583 -18.6249,25.8314 -30.5991,36.2189 -14.8348,12.7966 -31.1977,23.6794 -47.887,33.8843 -14.5046,8.8463 -29.3674,17.0853 -44.3051,25.172 -23.8528,12.9949 -48.0295,25.4068 -72.6082,36.9739 -7.8516,3.6861 -15.7538,7.2671 -23.7408,10.6515 14.2545,-15.5695 27.1892,-32.501 37.0722,-51.2045 8.5585,-16.0954 14.7301,-33.4125 18.6905,-51.1939 5.4369,-24.2993 7.1008,-49.2687 7.3342,-74.1136 0.1428,-13.8533 -0.2794,-27.7033 -0.811,-41.5446 -0.27,-7.4932 -0.5272,-14.9867 -0.7761,-22.4805 -0.061,-1.9973 -0.1339,-4.1979 -0.1995,-6.2734 -0.2495,-7.7428 -0.4719,-15.4864 -0.6774,-23.2305 -0.012,-0.3789 -0.029,-1.2004 -0.043,-1.7488 -0.3809,-16.6326 -0.7463,-33.2766 -0.2687,-49.9111 0.3018,-8.0655 0.6627,-16.181 2.2902,-24.1076 0.8459,-4.0488 2.2621,-8.1027 5.0207,-11.2646 1.4458,-1.6957 3.0099,-3.2926 4.6097,-4.841 3.5187,-3.0892 8.3264,-3.9896 12.8494,-4.3912 2.1867,-0.1845 4.383,-0.2167 6.5764,-0.185 z m -418.2519,1.6407 c 0.8442,12.4068 -0.4446,24.8628 -2.6367,37.0715 -1.3759,7.2156 -3.0141,14.4357 -5.7853,21.2591 -2.0554,5.2757 -4.3255,10.5931 -7.9472,15.0073 -0.8841,-1.9172 -1.6439,-3.9202 -1.798,-6.0451 -0.7582,-7.1298 -0.4225,-14.3211 0,-21.4615 0.8103,-11.6336 2.2467,-23.2413 4.6519,-34.6576 0.5859,-2.6802 1.2302,-5.3509 2.0549,-7.9687 3.8214,-1.2179 7.6035,-2.5545 11.4004,-3.8457 0.019,0.2136 0.038,0.4271 0.057,0.6407 z m 322.6914,147.9629 c 1.219,18.6814 1.5803,37.4501 0.2578,56.1367 -0,0.05 -0.086,1.1414 -0.1178,1.5799 -0.046,0.638 -0.071,0.8676 -0.1301,1.616 -1.784,21.9115 -6.0919,43.7911 -14.6351,64.1209 -6.7967,16.2896 -16.3691,31.3811 -28.0064,44.64 -15.9979,18.2872 -35.4393,33.2327 -55.8818,46.2164 -0.518,0.3269 -1.4151,0.949 -0.5033,0.1624 8.0396,-7.6259 16.0255,-15.3123 23.8119,-23.1971 15.2819,-15.711 29.1226,-32.9668 39.9216,-52.0856 10.4505,-18.3371 17.9719,-38.2474 23.1304,-58.686 6.2568,-24.7029 9.3952,-50.077 11.3589,-75.4472 0.2052,-2.7081 0.3984,-5.4169 0.5771,-8.1268 0.072,1.0235 0.1445,2.0469 0.2168,3.0704 z" />
  </g>
</svg>
