<svg xmlns="http://www.w3.org/2000/svg" width="468.207" height="430.981" preserveAspectRatio="xMidYMid" viewBox="0 0 468.207 430.981"><path fill="#2bb5b8" d="M3942.379 2325.178c-26.966.201-53.957 2.572-80.427 7.8-6.295 1.25-12.558 2.668-18.763 4.311-.048.01-1.105.297-1.53.41-6.264 1.678-12.46 3.63-18.46 6.096-15.537 6.305-30.08 14.831-43.875 24.312a342 342 0 0 0-22.064 16.614c-.155.133-.926.761-1.318 1.086-15.141 12.514-29.34 26.16-42.52 40.722-.135.157-.802.891-1.142 1.272-16.347 18.244-31.143 37.94-43.503 59.108-3.287 5.583-6.3 11.326-8.936 17.245-6.138 13.682-10.979 27.905-15.357 42.234-7.048 23.237-12.655 46.89-17.447 70.688a989 989 0 0 0-6.514 36.005c-4.48 27.943-7.848 56.081-9.538 84.337-1.23 20.835-1.403 41.754.112 62.579 3.012 43.11 12.39 85.684 26.796 126.396.077.226.402 1.13.575 1.617 3.93 11.034 8.25 21.928 12.868 32.691-.025-.049.453 1.039.621 1.427 18.545 42.753 42.254 83.157 69.32 121.052.438.619.49.684.928 1.291 13.586 18.946 28.355 37.654 43.278 55.154 17.92 21.002 36.801 41.175 56.423 60.594.205.195.856.841 1.232 1.21a1122 1122 0 0 0 24.448 23.384c.222.21.882.814 1.272 1.176 1.889 1.751 3.79 3.488 5.69 5.228.269.248.89.808 1.292 1.175.696.631 1.625 1.48 2.176 1.975 15.74 14.257 31.897 28.046 48.311 41.519a1786 1786 0 0 1 116.851 106.314c28.171 28.053 55.423 57.053 81.154 87.368 16.102 19.01 31.595 38.558 45.898 58.964 4.18 5.96 8.206 12.044 11.62 18.481 9.321 17.28 15.26 36.31 17.88 55.748 3.66 26.71 1.42 53.939-4.144 80.224-5.414 25.525-13.958 50.302-24.194 74.273-13.304 31.014-29.504 60.72-47.285 89.378-7.581 12.153-15.432 24.136-23.077 36.25-11.104 17.545-22.104 35.172-32.197 53.324-8.847 15.952-16.821 32.406-23.465 49.402-7.342 18.603-13.41 37.676-19.194 56.812-.118.38-.346 1.15-.505 1.679-8.225 27.394-16.125 54.896-22.946 82.677-3.948 16.376-7.493 32.889-9.44 49.636-1.855 16.21-2.046 32.855 1.912 48.784 2.652 10.887 7.256 21.24 13.161 30.745 8.299 13.401 18.783 25.28 29.675 36.613 10.293 10.66 21.137 20.767 31.883 30.965 14.152 13.257 28.935 25.987 45.329 36.417 12.87 8.18 26.805 14.69 41.368 19.228 20.069 6.315 40.978 9.37 61.841 11.625 2.89.306 6.255.634 8.855.876 4.817.444 9.639.845 14.46 1.235.445.038 1.264.1 1.852.148 20.9 1.624 41.852 3.61 62.35 8.158 14.014 3.165 27.905 7.732 40.141 15.406 10.919 6.808 20.099 16.182 27.314 26.794 7.158 10.387 12.79 21.734 17.849 33.263 6.523 15.907 10.85 32.744 12.508 49.865.88 9.284.952 18.74-.89 27.914-.416 1.116-.68 2.312-1.19 3.38-1.14 1.487-2.198 3.066-3.385 4.495l-6.783 3.527c-2.53-.282-5.094-.455-7.602-.803-1.484-.904-3.05-1.702-4.483-2.673-4.563-4.512-9.145-9.01-13.499-13.73a528 528 0 0 1-19.61-22.267c-7.655-9.28-15.288-18.638-24.038-26.923-6.133-5.771-12.947-10.959-20.699-14.357-8.901-4.02-18.645-5.664-28.293-6.69-6.915-.668-13.854-1.17-20.803-1.28-7.691-.07-15.605.608-22.677 3.865-7.9 3.596-14.33 9.613-20.35 15.73-6.444 6.655-12.503 13.67-18.542 20.69-11.18 13.14-21.888 26.693-31.8 40.817-4.65 6.69-9.201 13.499-12.69 20.882-3.323 6.69-8.635 12.365-15.05 16.181-5.075 2.996-10.934 4.775-16.851 4.695-.747.018-1.425.039-2.25.06-7.371.193-14.912 1.238-21.574 4.567a26.77 26.77 0 0 0-11.277 10.65c-3.629 6.35-4.88 13.74-5.268 20.957-.465 9.746.563 19.496 2.006 29.124 2.155 14.34 5.872 28.395 7.972 42.745 1.012 7.246 1.927 14.643.83 21.934-.686 4.8-2.507 9.386-5.09 13.476-2.529 4.082-5.598 7.8-8.735 11.423-11.078 12.225-19.107 26.922-25.071 42.229-3.655 9.397-6.549 19.08-8.83 28.899-.01.032-.253 1.114-.35 1.54-4.867 21.71-6.864 43.992-6.92 66.218a289 289 0 0 1-5.558 46.906c-1.911 9.01-4.13 18.04-7.97 26.449-1.301 2.738-2.93 5.301-4.305 8-.169.323-.547 1.068-.796 1.553-5.71 11.243-9.576 23.57-10.154 36.22-.65 13.065 2.096 26.096 6.616 38.303 5.027 13.614 11.986 26.425 19.581 38.759 7.601 12.112 16.163 23.609 25.337 34.572 9.35 11.15 19.405 21.703 30.03 31.644.047.05.84.78 1.163 1.082.39.361.954.89 1.097 1.015a392 392 0 0 0 30.597 25.403c.045.038.92.683 1.273.946l1.5 1.114c-.01-.013.92.67 1.27.92 30.534 22.258 64.214 40.28 99.876 52.823 10.625 3.726 21.421 6.993 32.417 9.437 24.673 5.584 49.913 8.44 75.176 9.374 26.706.927 53.53-.347 79.942-4.49 14.56-2.28 28.98-5.557 42.993-10.142 14.163-4.382 28.58-7.875 43.002-11.288 26.36-6.125 52.877-11.566 79.497-16.43 8.464-1.514 16.946-2.951 25.326-4.891 24-5.39 47.539-12.674 70.725-20.854 31.595-11.19 62.55-24.172 92.753-38.704 23.255-11.229 46.09-23.388 67.98-37.104.21-.13 1.014-.642 1.453-.919 13.199-8.382 26.105-17.319 37.891-27.622 13.784-12.156 25.804-26.276 35.871-41.641 7.265-11.133 13.49-22.94 18.618-35.203.01-.01.435-1.054.601-1.454 7.85-19.154 13.042-39.388 15.443-59.947.01-.093.13-1.14.179-1.585q.716-6.501 1.058-13.032c.01-.104.057-1.148.08-1.596 1.647-36.184-5.405-72.991-21.945-105.327-9.113-17.794-21.051-34.2-35.555-47.987-14.89-13.897-32.47-24.643-50.91-33.15a245.8 245.8 0 0 0-47.322-16.149c-.094-.025-1.12-.254-1.557-.354-16.963-3.737-34.425-5.808-51.8-4.58-10.887.825-21.854 2.943-31.708 7.805-1.22.74-2.581 1.22-3.86 1.854q-3.324.278-6.65.555-4.882-2.444-9.765-4.883-1.117-4.753-2.237-9.504c.323-1.65.466-3.352.903-4.967.639-1.593 1.377-3.142 2.384-4.54 6.746-10.593 14.599-20.426 22.643-30.051 11.095-13.07 23.482-25.16 37.608-34.94 18.545-12.954 39.554-21.88 60.92-29.034 23.122-7.719 46.81-13.584 70.548-19.056 21.14-4.847 42.392-9.182 63.634-13.554a2277 2277 0 0 0 32.792-7.06c.357-.085 1.171-.265 1.703-.386 27.883-6.294 55.657-13.185 82.95-21.713 21.276-6.694 42.285-14.438 62.274-24.385 16.94-8.435 33.082-18.558 47.679-30.628 18.049-14.882 33.942-32.314 47.508-51.354 12.858-18.152 23.319-38.2 29.256-59.704 2.662-9.59 4.447-19.429 5.247-29.35 0 .052.088-1.131.121-1.553 1.357-18.645-.759-37.451-5.426-55.524-2.011-8.706-3.873-17.464-5.005-26.334-.652-5.5-1.094-11.078-.379-16.595l.44-4.514c1.737-1.555 3.598-2.98 5.26-4.615 2.527-3.007 3.22-7.047 3.641-10.836.674-6.97-.075-13.991-1.151-20.882-.622-3.959-1.565-7.858-2.28-11.798-1.707-10.554-2.07-21.264-2.32-31.934-.298-18.987.41-37.988 2.014-56.908.718-8.662 1.743-17.293 2.813-25.917a784 784 0 0 0 1.577-14.878c.027-.26.111-1.195.16-1.714 1.826-19.625 2.798-39.344 2.435-59.056l-.035-1.576c-.25-11.284-.95-22.56-2.181-33.781-.026-.266-.131-1.193-.188-1.713-.285-2.552-.608-5.1-.949-7.644-.01-.1-.158-1.138-.218-1.583-.096-.706-.127-.878-.236-1.64a351 351 0 0 0-3.487-19.983c-.04-.207-.243-1.173-.346-1.674a357 357 0 0 0-2.197-9.835c-.061-.238-.281-1.166-.404-1.67a364 364 0 0 0-3.14-12.041c-.047-.182-.324-1.153-.46-1.64-.175-.623-.257-.89-.46-1.603-3.907-13.547-8.589-26.864-13.81-39.958-.076-.18-.447-1.112-.638-1.582-3.37-8.462-7.171-16.744-10.453-25.24-7.65-19.588-14.314-39.543-20.663-59.584-10.306-32.695-19.62-65.698-28.297-98.862-8.056-30.857-15.531-61.87-22.141-93.071-4.134-19.622-7.959-39.318-10.9-59.157-2.153-14.771-3.767-29.645-4.183-44.575-.353-14.113.738-28.301 3.859-42.087 2.7-12.273 6.815-24.176 11.25-35.916 4.687-13.299 7.378-27.196 9.6-41.09 2.615-16.76 4.29-33.654 5.518-50.569.023-.285.084-1.197.121-1.723.775-10.725 1.328-21.92 1.755-32.377 1.108-28.382 1.251-56.795.81-85.193 0-.387-.02-1.2-.03-1.75q-.044-2.685-.092-5.369c-.01-.286-.027-1.2-.04-1.727a2212 2212 0 0 0-1.44-46.001c-.013-.328-.053-1.2-.076-1.736-1.601-37.552-4.127-75.062-7.422-112.503-.031-.376-.108-1.196-.156-1.742a2725 2725 0 0 0-2.462-26.18c-.04-.367-.12-1.194-.177-1.738a2561 2561 0 0 0-5.973-54.008c-.042-.374-.146-1.191-.212-1.735-2.35-19.347-4.977-38.66-7.735-57.952-3.94-28.12-7.757-56.264-10.782-84.5-2.377-22.39-4.36-44.86-4.486-67.39-.052-16.518.995-33.175 5.067-49.237 2.946-11.508 7.633-22.552 13.78-32.713 5.398-8.98 11.605-17.463 18.339-25.484 6.75-7.953 14.53-15.306 23.947-19.987 7.945-3.929 16.782-5.795 25.603-6.166 12.239-.592 24.45 1.044 36.488 3.102 16.156 2.819 32.102 6.703 47.997 10.716 8.357 2.172 16.739 4.258 25.214 5.921 13.788 2.783 27.632 4.849 41.803 6.28.202.023 1.193.117 1.7.168 5.705.56 11.95 1.024 17.342 1.34 22.615 1.283 45.346.969 67.88-1.428 16.565-1.8 33.072-4.636 49.052-9.424 11.135-3.403 22.126-7.657 31.978-13.94 6.907-4.463 13.398-10.048 17.327-17.393 3.204-5.879 4.24-12.829 3.148-19.416-1.35-8.367-5.678-15.978-11.067-22.407-7.992-9.417-18.305-16.643-29.332-22.082-6.192-3.066-12.671-5.526-19.295-7.484-11.504-3.477-23.239-6.121-34.992-8.598-14.09-2.931-28.256-5.482-42.46-7.794-.346-.06-1.185-.19-1.72-.278l-3.166-.507c-.371-.054-1.186-.186-1.727-.27-23.975-3.77-48.042-6.948-72.164-9.615-.308-.036-1.193-.13-1.723-.187-1.807-.219-3.64-.347-5.43-.621l-31.97-15.887 33.332-13.061c25.474-.558 50.953-.757 76.431-1.013q8.752-.097 17.505-.223c.379 0 1.2-.02 1.749-.03 29.174-.514 58.36-1.087 87.487-2.908 12.176-.826 24.382-1.708 36.408-3.864 4.508-.859 9.111-1.784 13.185-3.985 1.32-.75 2.492-1.872 2.908-3.375 1.075-2.727 1.29-6.04-.438-8.555-2.047-3.153-5.567-4.886-8.927-6.296-6.732-2.624-13.892-3.89-21.002-5.002-12.924-1.879-25.97-2.73-39.004-3.413-3.567-.182-7.135-.33-10.704-.469-.328-.01-1.2-.042-1.736-.06-8.82-.313-17.645-.508-26.47-.658-.378 0-1.2-.017-1.748-.025-32.292-.497-64.588-.189-96.88.136-24.215.173-48.433.403-72.639 1.129-.446.017-1.266.04-1.856.06-9.114.282-18.225.65-27.331 1.134-.32.022-1.199.068-1.733.099-18.652 1.051-37.315 2.608-55.727 5.853-15.913 2.83-31.656 7.169-46.284 14.132-14.05 6.631-26.919 15.488-39.095 25.079a370 370 0 0 0-18.8 15.709c-5.075 4.526-10.182 9.063-14.646 14.208-1.727 2.146-3.623 4.458-3.943 7.293-.165 2.008 1.261 3.688 2.859 4.705 2.804 1.82 5.992 2.947 9.155 3.97 4.538 1.323 9.242 1.95 13.906 2.657 8.11 1.11 16.265 1.863 24.423 2.517.243.014 1.196.09 1.713.127 6.681.507 13.37.913 20.063 1.245.286.017 1.198.056 1.725.082 2.3.113 4.973.22 7.039.3 5.823.223 11.648.384 17.474.499.295.01 1.2.02 1.73.03 9.883.176 19.77.107 29.653.376 23.021.49 46.08 1.567 69.025 3.045 37.111 2.43 74.127 5.865 111.004 10.663 18.126 2.392 36.217 5.11 54.178 8.538 14.042 2.713 28.072 5.762 41.6 10.467l43.927 14.943c-13.936 4.944-27.855 9.937-41.801 14.85-10.012 3.31-20.5 4.863-30.95 6.018-18.27 1.908-36.682 2.073-55.026 1.411-25.542-.96-51.02-3.71-76.168-8.281-12.456-2.27-24.804-5.114-37.013-8.466-19.756-5.097-39.792-9.503-60.173-11.086-14.54-1.078-29.396-.57-43.475 3.512-11.073 3.206-21.444 8.753-30.297 16.132-11 9.094-19.866 20.474-27.575 32.413-4.847 7.464-9.52 15.047-13.756 22.878-7.147 13.137-13.482 26.735-18.653 40.773-3.03 8.415-5.686 17.06-6.593 25.992-.223 2.811-.322 5.631-.38 8.45l-.02 1.58c-.047 4.31.05 8.618.18 12.924.01.066.042 1.145.06 1.588l.075 2.11c.01.335.047 1.2.068 1.737.463 10.795 1.195 21.577 2.047 32.348.026.352.098 1.197.142 1.738 2.893 34.737 6.966 69.37 11.827 103.884 1.423 10.19 3.03 20.354 4.325 30.56 5.814 43.93 10.702 87.977 14.982 132.08 3.337 34.9 6.304 69.84 8.43 104.837.9 14.798 1.572 29.609 2.037 44.427.912 22.77 1.825 45.543 2.15 68.33.337 26.93-.032 54.006-4.284 80.66-2.9 18.684-7.635 37.02-12.78 55.194-3.213 11.09-6.103 22.27-8.807 33.494-4.136 17.406-7.645 35.008-9.339 52.835-1.414 15.01-1.374 30.163.286 45.152 1.303 11.772 3.28 23.457 5.326 35.12 4.892 27.435 10.784 54.682 16.99 81.846l1.5 6.498c.131.544.335 1.428.494 2.103l1.29 5.515c9.275 39.283 19.327 78.387 30.415 117.2 5.612 19.492 11.467 38.926 18.168 58.076 3.172 8.9 6.47 17.788 10.793 26.203 11.157 22.148 20.904 45.133 27.211 69.162 6.35 23.887 9.176 48.582 10.02 73.245.875 25.315-.088 50.654-1.584 75.926-2.423 37.82-4.87 75.637-7.29 113.456l-.62 9.66c-11.79-16.185-23.63-32.333-35.383-48.545-12.826-17.905-24.403-36.681-35.117-55.916-13.284-23.914-25.208-48.565-36.24-73.59-18.742-42.564-34.966-86.192-49.987-130.192-2.827-8.356-5.63-16.95-8.503-25.147a1610 1610 0 0 0-26.828-71.557c-.138-.328-.452-1.113-.656-1.616-5.532-13.621-11.18-27.205-17.437-40.512-4.773-10.085-10.07-19.914-15.48-29.67-10.973-19.64-22.71-38.842-34.745-57.846a1906 1906 0 0 0-21.41-32.946c-.207-.318-.665-.999-.969-1.456-4.633-6.96-9.31-13.89-14.014-20.801-.383-.555-.941-1.377-1.391-2.033l-2.715-3.974c-26.965-39.243-54.97-77.78-84.247-115.332-12.468-15.972-25.166-31.767-38.284-47.21-.189-.226-.78-.913-1.123-1.316a885 885 0 0 0-23.338-26.356c-.748-.808-1.67-1.816-2.485-2.7-11.507-12.487-22.963-25.034-33.892-38.035-9.502-11.429-18.716-23.207-26.03-36.185-5.65-10.084-10.01-21.022-11.687-32.507-1.47-9.4-1.176-19 .2-28.392 2.032-13.903 6.25-27.376 10.987-40.567 5.617-15.522 12.141-30.696 18.798-45.795 10.25-23.18 21.033-46.12 31.649-69.134 13.662-29.821 27.035-59.784 39.435-90.156.103-.244.45-1.112.647-1.596 14.822-36.456 28.289-73.562 37.954-111.748.048-.21.29-1.163.413-1.66.969-3.856 1.996-8.192 2.81-11.775 5.1-22.377 8.742-45.077 11.1-67.903 1.251-12.07 2.149-24.176 2.804-36.293.02-.344.062-1.199.091-1.739.17-3.206.312-6.414.448-9.622.01-.344.047-1.2.067-1.74.322-8.299.548-16.6.71-24.904.01-.287.02-1.2.03-1.728.046-2.762.093-5.468.13-8.181.206-13.275.36-26.553.124-39.828-.01-.261-.026-1.2-.038-1.721a611 611 0 0 0-.221-7.867c0-.066-.045-1.145-.062-1.587-.027-.637-.047-1.25-.066-1.556-.69-15.703-2.45-31.465-6.9-46.586-4.974-17.07-12.63-33.177-20.148-49.236-6.19-13.08-13.122-26.315-20.09-38.666-15.214-26.846-32.858-52.459-53.99-75.011a316 316 0 0 0-13.145-13.244c-.135-.133-.87-.823-1.238-1.171a326 326 0 0 0-29.347-24.495c-.207-.158-.966-.712-1.386-1.022-18.638-13.682-38.642-25.408-59.22-35.91a946 946 0 0 0-24.978-12.494c-.072-.038-1.036-.494-1.438-.686a848 848 0 0 0-9.367-4.408c-.058-.02-1.042-.476-1.445-.658l-3.987-1.822-1.435-.643c-32.271-14.469-65.77-26.699-100.589-33.344-11.915-2.277-23.964-3.866-36.068-4.69-.065-.01-1.143-.072-1.585-.1-24.64-1.537-49.46.272-73.665 5.093-22.538 4.477-44.986 9.912-66.442 18.244-16.054 6.222-31.475 14.204-45.453 24.288-11.86 8.447-22.65 18.313-32.63 28.895-5.174 5.444-10.387 10.855-15.815 16.046q-7.497 6.997-14.994 13.994c-3.743-6.158-7.58-12.26-11.261-18.455-3.69-6.552-8.25-12.568-13.024-18.362-9.94-11.878-21.001-22.774-32.513-33.119-13.93-12.417-28.61-24.016-44.117-34.407-8.764-5.83-17.813-11.275-27.316-15.818-9.663-4.565-19.987-7.549-30.384-9.91-17.629-3.885-35.637-5.82-53.65-6.703-.051 0-1.144-.05-1.583-.068a449 449 0 0 0-21.468-.404zm38.504 36.742c15.302 2 30.021 7.124 44.023 13.478 17.564 8.022 34.115 18.18 49.55 29.761 15.735 11.844 30.382 25.234 42.952 40.423 8.918 10.838 16.843 22.654 22.164 35.693 1.829 4.687 3.533 9.429 5.695 13.979 3.426 7.365 7.507 14.602 13.327 20.356 3.937 3.837 9.043 6.877 14.66 7.07 5.682.276 11.123-2.1 15.716-5.268 6.85-4.738 12.4-11.075 17.46-17.629 3.359-4.325 6.287-8.955 9.324-13.504 12.514-18.444 28.27-34.708 46.469-47.593 21.495-15.299 46.022-25.93 71.328-33.124 22.799-6.492 46.343-10.686 70.075-11.23 21.28-.533 42.57 1.955 63.312 6.645 26.196 5.935 51.54 15.121 76.23 25.603a829 829 0 0 1 38.06 17.378c30.037 14.817 58.291 33.412 83.163 55.886 24.549 22.11 45.697 47.9 63.097 75.962 7.792 12.51 14.777 25.503 21.306 38.712 6.617 13.208 13.155 26.558 17.494 40.72 3.339 10.937 5.194 22.28 6.08 33.667 1.268 15.47 1.228 31.006 1.154 46.516-.163 15.588-.41 31.175-.843 46.757-.93 31.908-3.784 63.791-9.292 95.247-6.39 36.693-16.554 72.664-29.252 107.656-13.989 38.63-30.791 76.174-48.56 113.196-9.94 20.706-20.437 41.14-30.252 61.907-3.82 8.043-7.548 16.13-11.16 24.27-.102.242-.483 1.098-.692 1.576-.387.878-.955 2.175-1.228 2.788-8.238 18.967-15.917 38.245-21.411 58.205-4.46 16.291-7.382 33.16-6.813 50.1.394 13.245 3.138 26.388 7.877 38.754 6.092 15.954 15.207 30.565 25.333 44.246 14.944 20.044 32.005 38.382 49.281 56.412 12.933 13.432 25.003 27.663 36.854 42.048 23.548 28.695 46.029 58.254 67.875 88.261 19.107 26.262 37.598 52.974 55.344 80.175 19.971 30.452 39.52 61.22 57.15 93.1 12.34 22.318 23.584 45.247 33.476 68.755 8.223 19.45 15.557 39.264 22.472 59.212 8.672 25.049 17.47 50.056 26.604 74.94.178.493.485 1.313.712 1.932 9.82 26.586 20.06 53.03 31.407 79.007 10.992 25.155 23.137 49.814 36.632 73.723 15.888 28.274 33.394 55.595 51.151 82.72 13.395 20.637 26.525 41.703 38.283 63.41 10.337 19.214 19.798 39.049 25.997 60.023 4.514 15.4 7.005 31.521 6.031 47.59-.714 13.03-3.703 25.842-7.906 38.165-5.996 18.082-14.275 35.562-25.838 50.775-11.529 15.287-26.186 28.032-42.27 38.335-18.285 11.775-38.213 20.748-58.496 28.472-22 8.317-44.535 15.144-67.22 21.322-32.826 8.914-66.018 16.4-99.264 23.565-23.197 5.092-46.33 10.504-69.264 16.681-.209.061-1.156.316-1.65.452a887 887 0 0 0-25.68 7.37c-.187.063-1.145.355-1.63.506-23.123 7.117-45.985 15.34-67.673 26.131-.184.098-1.07.54-1.525.77-18.248 9.248-35.535 20.624-50.395 34.745-10.98 10.373-20.637 22.098-29.067 34.62l-30.874 44.818c1.868-19.767 3.69-39.538 5.586-59.303 2.36-22.082 8.212-43.763 17.087-64.113 9.888-22.87 23.199-44.097 37.885-64.166 14.015-19.247 26.037-39.984 35.314-61.925 1.89-4.43 3.664-8.908 5.35-13.419.012-.022.396-1.071.547-1.48 3.408-9.268 6.395-18.687 9.051-28.197.032-.103.305-1.109.426-1.542a443 443 0 0 0 3.176-12.263c.062-.246.281-1.166.404-1.672.17-.708.252-1.044.385-1.621 5.828-24.763 9.738-49.937 12.763-75.183 1.634-13.776 2.975-27.586 4.157-41.409.018-.276.097-1.196.139-1.72 1.19-14.357 2.201-28.97 3.052-43.2 1.158-19.36 2.043-38.737 2.81-58.117.414-10.487.83-21.144 1.197-31.699.023-.638.039-1.053.06-1.746l.314-9.725c0-.32.033-1.2.046-1.735l.25-9.027c.012-.328.029-1.2.043-1.736.117-4.782.206-9.565.284-14.348 0-.37.016-1.2.022-1.747.436-28.583-.096-57.277-4.03-85.633-3.369-24.776-8.9-49.189-14.568-73.521-12.835-53.23-26.969-106.277-46.215-157.596-11.086-29.581-23.861-58.522-38.085-86.727-19.67-39.11-41.825-76.907-64.699-114.213-.184-.292-.63-1.022-.915-1.481l-4.302-6.972c-.234-.384-.668-1.077-.978-1.579a3868 3868 0 0 0-25.498-40.558c-.54-.838-1.22-1.91-1.815-2.838-1.339-2.094-2.731-4.277-4.015-6.284-7.305-11.355-14.634-22.696-21.75-34.17-21.864-35.066-42.856-70.669-63.255-106.604-13.356-23.587-26.46-47.32-38.997-71.353-7.094-13.617-13.917-27.372-20.811-41.091-7.93-15.963-15.875-31.937-22.855-48.346-6.303-14.699-11.547-29.893-14.92-45.543-4.652-21.606-6.356-43.693-7.987-65.69-.94-13.265-1.744-26.539-2.597-39.81-.021-.26-.083-1.196-.12-1.717-1.715-24.933-4.594-49.781-8.466-74.47-.056-.321-.19-1.185-.276-1.715l-.363-2.277c-.049-.32-.194-1.185-.28-1.714a963 963 0 0 0-9.573-50.061c-.075-.324-.26-1.173-.377-1.697a995 995 0 0 0-3.348-14.632c-.075-.328-.278-1.167-.403-1.692l-.57-2.382c-.087-.346-.284-1.166-.413-1.694a979 979 0 0 0-4.713-18.612c-.081-.316-.309-1.16-.446-1.68a985 985 0 0 0-28.359-89.424c-.13-.334-.42-1.125-.612-1.634-10.045-26.934-21.301-53.423-33.911-79.258-.132-.275-.53-1.078-.763-1.555-7.971-16.23-16.458-32.211-25.571-47.83-.13-.228-.607-1.035-.87-1.486-9.813-16.746-20.365-33.046-31.162-49.17-21.92-32.571-45.345-64.12-69.926-94.73-2.753-3.431-5.53-6.843-8.312-10.251-.172-.215-.762-.927-1.095-1.333-20.766-25.266-42.37-49.86-65.106-73.374-14.924-15.386-30.344-30.318-46.664-44.224-6.395-5.462-13.026-10.636-19.674-15.784-7.652-5.939-15.144-12.081-22.503-18.379l-33.731-28.529zm-68.485 20.598c-.892 4.507-1.342 9.333.225 13.747.672 1.848 2.192 3.76 4.335 3.735 1.109.024 2.228-.019 3.269.429 5.697 1.54 10.807 4.616 15.745 7.759 10.367 6.724 19.916 14.61 29.298 22.626 13.978 12.074 27.368 24.814 40.465 37.834 25.456 25.324 49.784 51.765 73.32 78.878 24.448 28.232 48.016 57.248 70.138 87.346 10.045 13.71 19.795 27.648 28.847 42.038 35.639 56.182 63.961 116.898 85.188 179.922 22.495 66.778 37.039 136.17 44.084 206.261 1.268 12.7 2.284 25.422 3.116 38.157.065.995.156 2.261.231 3.36.457 6.579.91 13.157 1.386 19.734.033.394.09 1.197.132 1.748.612 8.33 1.28 16.657 2.034 24.976.025.309.112 1.196.161 1.726l.194 2.058c.038.342.119 1.194.173 1.732 2.01 20.71 4.955 41.452 11.092 61.387 6.224 20.365 15.18 39.749 24.377 58.91 8.82 18.289 17.94 36.432 27.053 54.576 15.061 29.58 31.04 58.684 47.38 87.574 19.27 33.971 39.123 67.62 59.958 100.656 6.064 9.614 12.302 19.116 18.545 28.614 45.521 70.109 87.854 142.541 122.106 218.884a1162 1162 0 0 1 48.382 126.996c4.438 14.148 8.745 28.339 12.81 42.599 5.035 17.722 9.383 35.676 11.99 53.93 3.706 25.516 4.548 51.335 4.96 77.082.444 34.728-.042 69.457-.384 104.184-.156 22.836-.369 45.673-.922 68.503-.837 32.659-2.14 65.341-5.565 97.845-2.881 26.945-7.326 53.85-15.517 79.733-5.02 15.88-11.468 31.302-19.196 46.054-8.894 17.084-19.382 33.275-30.314 49.112-6.65 9.802-13.106 19.742-19.117 29.95-.106.176-.604 1.036-.862 1.476-9.514 16.294-17.72 33.416-23.554 51.384-4.197 12.81-7.292 25.969-9.51 39.262-.025.18-.194 1.182-.274 1.68-3.007 18.48-4.532 37.166-5.454 55.855l-.077 1.716c-.558 11.794-.848 23.598-1.027 35.403 0 .354-.015 1.2-.021 1.743-.311 24.594-.043 49.191.333 73.783.01.747.03 1.8.044 2.664.736 40.062.91 80.157-.819 120.197-.818 17.658-1.976 35.318-4.24 52.855-1.062 8.035-2.363 16.06-4.402 23.91-2.794 10.222-7.216 19.931-12.316 29.195-8.346 15.077-18.732 28.942-30.052 41.903-18.267 20.841-39.1 39.337-61.298 55.889-16.2 12.04-33.167 23.061-50.828 32.836-15.074 8.286-30.816 15.662-47.544 19.914-13.141 3.327-26.874 4.409-40.356 2.875-18.103-1.983-35.478-8.01-52.13-15.165-10.215-4.446-20.31-9.167-30.313-14.07-31.534-15.576-62.037-33.525-89.728-55.286-19.246-15.158-37.14-32.219-52.008-51.743-12.891-16.95-23.427-35.87-29.678-56.286-2.959-10-5.877-20.01-8.82-30.015 9.505 3.242 18.99 6.544 28.507 9.748 9.288 2.866 19.123 3.453 28.787 3.06a133.8 133.8 0 0 0 40.61-8.23c9.538-3.608 18.81-8.403 26.338-15.378 2.587-2.382 4.75-5.186 6.519-8.22 4.628-7.694 7.956-16.078 11.018-24.492 4.68-13.114 8.227-26.627 10.655-40.336l8.075-42.054c6.867 12.713 13.69 25.45 20.584 38.148 7.824 13.71 20.529 24.785 35.567 29.82 6.499 2.192 13.408 3.047 20.25 2.746 6.802-.185 13.86-.819 19.969-4.07 5.494-2.937 9.64-7.806 12.965-12.977 4.73-7.325 8.331-15.296 11.955-23.206 4.029-8.884 7.635-17.966 10.545-27.28 5.507-17.457 9.046-35.622 9.49-53.95.247-11.858-.79-23.893-4.567-35.196-2.393-7.092-6.061-13.898-11.523-19.102-2.797-2.777-5.432-5.713-7.837-8.836l-5.433-6.767c2.714-3.9 5.29-7.896 8.104-11.724 2.825-3.687 6.034-7.067 8.723-10.861 7.831-10.607 14.522-22 20.927-33.508 10.918-19.785 20.721-40.175 29.669-60.922 7.256-16.878 14-34.01 19.322-51.606l.95-3.256c-.027.071.305-1.088.418-1.494 1.775-6.48 3.345-13.064 3.875-19.778.376-6.833-.649-13.66-2.022-20.336-2.79-13.096-7.513-25.704-13.013-37.884-7.73-16.966-17.2-33.15-28.286-48.143-7.56-10.16-15.931-19.804-25.645-27.967-11.054-9.101-23.985-15.613-37.253-20.826-15.695-6.125-32.072-10.36-48.609-13.491-21.954-4.13-44.27-6.163-66.592-6.71-.311-.01-1.2-.02-1.733-.03-5.993-.052-11.993-.3-17.935-1.126-18.873-2.458-37.11-8.599-54.286-16.677-21.466-10.172-41.401-23.522-59.16-39.286-14.13-12.631-26.921-26.888-37.1-42.913-7.434-11.771-13.44-24.59-16.542-38.208-1.805-7.854-2.027-15.965-1.861-23.99.428-13.798 2.426-27.5 4.98-41.05 4.524-23.494 10.958-46.581 18.287-69.343 8.097-24.974 17.41-49.548 27.708-73.696 12.966-30.336 27.485-60.03 43.951-88.627 6.1-10.59 12.531-20.986 19.191-31.233 21.62-33.824 41.607-68.783 58.137-105.397 14.368-31.936 26.145-65.244 32.377-99.779 4.73-26.431 6.017-53.64 2.038-80.258-3.225-21.657-9.933-42.819-19.984-62.28-4.44-8.409-9.507-16.47-14.778-24.378-12.782-19.087-26.924-37.222-41.509-54.954a1235 1235 0 0 0-16.546-19.629c-.167-.198-.785-.907-1.126-1.302-22.837-26.404-46.681-51.928-71.18-76.794a1833 1833 0 0 0-50.69-49.484c-.204-.195-.877-.82-1.261-1.18-22.048-20.658-44.602-40.781-67.754-60.197-32.242-26.837-63.629-54.743-93.338-84.374-35.239-35.147-68.26-72.692-96.689-113.6-20.246-29.13-38.086-59.99-52.4-92.467-14.437-32.641-25.197-66.913-31.884-101.975-7.44-38.705-9.9-78.28-8.469-117.639 1.35-37.49 6.12-74.804 13.17-111.631 3.353-17.271 7.107-34.476 11.717-51.458 5.53-20.18 12.532-40.058 22.359-58.575 6.633-12.62 14.483-24.572 23.102-35.918 12.37-16.313 26.14-31.503 40.205-46.358 13.121-13.763 27.058-26.977 43.13-37.267 11.517-7.364 24.022-13.093 36.935-17.534 21.651-7.51 44.158-12.053 66.494-16.983l8.972-1.969zm328.375 2131.45c8.094-.05 15.929 2.762 22.916 6.678 10.868 6.109 20.258 14.465 29.086 23.186 7.427 7.48 14.587 15.242 21.198 23.456 7.534 9.508 14.202 19.955 17.822 31.617 3.012 9.721 3.446 20.224 1.194 30.153-2.566 11.664-8.089 22.446-14.53 32.418-7.94 12.27-17.335 23.523-27.125 34.347-.265.286-.733.809-1.144 1.263-7.938 8.824-15.58 18.05-21.39 28.446-3.916 7.12-6.874 15.066-6.707 23.298.026 3.112.675 6.163 1.274 9.201.859 4.992 1.239 10.049 1.863 15.072l.575 5.079c-5.912.53-11.815 1.173-17.733 1.63-5.731.35-11.531-.138-17.197 1-8.48 1.548-16.418 5.582-22.882 11.255-8.512 7.4-14.75 17.043-19.673 27.104-6.607 13.596-10.97 28.159-14.405 42.842-1.472 6.275-2.605 12.622-3.936 18.927-2.705 12.234-6.338 24.312-11.53 35.734-1.97 4.396-4.334 8.632-7.316 12.428-.513.664-.908 1.462-1.754 1.748-3.533 2.072-7.23 3.893-11.146 5.122-10.671 3.412-22.138 3.508-33.141 1.874-13.354-2.017-26.204-6.692-38.17-12.88-4.19-2.236-8.418-4.764-11.287-8.65-2.224-2.83-3.473-6.278-4.173-9.776-1.315-6.289-1.177-12.76-1.037-19.149.278-8.461.94-16.905 1.682-25.336 1.093-11.091 2.552-22.18 5.175-33.023 2.53-10.375 6.41-20.486 12.15-29.524 4.792-7.677 10.772-14.522 17-21.057 6.204-6.774 12.589-13.61 16.79-21.865 3.334-6.546 4.617-13.975 4.458-21.278-.146-9.96-2.06-19.78-4.068-29.503-2.9-13.711-6.48-27.266-9.838-40.868-1.402-6.427-2.25-12.956-3.353-19.438l-.708-4.376c6.421-.337 12.838-.78 19.262-1.049 4.854-.141 9.77.103 14.54-.996 6.03-1.267 11.62-4.28 16.172-8.41 6.633-5.944 11.65-13.41 16.322-20.925 2.678-4.246 5.018-8.689 7.418-13.094 8.714-15.685 18.25-30.923 28.707-45.506 5.418-7.483 11.152-14.762 17.532-21.452 5.464-5.614 11.8-10.61 19.168-13.447 3.806-1.443 7.865-2.255 11.94-2.275m77.73 251.095c.787-.188.334.936.507 1.397.305 6.018.771 12.029.951 18.052.266 12.704-1.247 25.392-3.697 37.842-1.524 7.61-3.522 15.152-6.521 22.324-2.513 6.418-5.626 12.689-10.08 17.998q-7.15 9.026-14.304 18.05c-3.545-7.943-7.153-15.859-10.658-23.82-1.32-3.205-2.072-6.622-2.285-10.08-.743-8.763-.257-17.573.407-26.325.99-11.91 2.58-23.792 5.251-35.447 1.065-4.646 2.61-9.16 3.965-13.724a1027 1027 0 0 0 21.978-7.355l13.967-4.79zm403.386-1.65c11.637.053 23.155 2.006 34.578 4.054 19.773 3.742 39.268 9.934 56.742 20.06 15.183 8.768 28.578 20.717 38.656 35.09 11.758 16.664 19.068 36.124 23.158 56.013 4.18 20.212 5.341 40.943 4.861 61.542-.466 16.51-2.394 33.14-7.685 48.853-4.279 12.998-10.96 25.16-19.399 35.919-11.403 14.62-25.611 26.772-40.49 37.718-14.543 10.635-29.87 20.15-45.435 29.204-15.062 8.74-30.39 17.015-45.738 25.24-22.31 11.852-44.887 23.22-67.855 33.747-5.358 2.436-10.725 4.863-16.168 7.1l-46.825 16.088c10.285-13.161 20.541-26.348 30.845-39.494 14.084-15.4 26.844-32.198 36.303-50.861 8.502-16.683 14.226-34.7 17.614-53.091 1.38-7.388 2.419-14.838 3.203-22.312.014-.177.12-1.191.169-1.693 1.795-18.39 2.14-36.893 1.837-55.359-.266-14.832-.968-29.652-1.42-44.48-.671-20.78-1.332-41.565-1.485-62.358-.037-12.338-.01-24.7 1.089-37 .643-6.174 1.47-12.4 3.536-18.282 1.628-4.645 4.196-8.956 7.577-12.539 2.367-2.534 4.717-5.147 7.618-7.087 5.38-3.679 11.885-5.276 18.307-5.812a78 78 0 0 1 6.407-.26m-79.713 160.058c1.744 24.657 2.083 49.503-.717 74.097-2.552 22.422-7.939 44.668-17.482 65.182-8.363 18.056-19.909 34.578-33.672 48.928-16.127 16.93-34.964 31.052-54.717 43.463l-5.785 2.773q-10.818-3.092-21.637-6.182l8.211-17.79c4.095-4.095 8.38-7.995 12.517-12.048 8.04-7.793 16.063-15.626 23.438-24.061 7.054-7.985 13.648-16.385 19.586-25.233.039-.052.635-.954.881-1.322 9.156-13.846 16.546-28.84 22.091-44.481 4.164-11.63 7.314-23.601 9.823-35.69.01-.079.228-1.124.315-1.56 3.862-19.162 6.056-38.617 7.575-58.092 0-.088.083-1.145.115-1.59.185-2.15.261-4.322.488-6.459l14.433-33.043z" class="logo-paths" style="fill:#000;fill-opacity:1" transform="matrix(.13755 0 0 -.13755 -361.632 737.285)"/><path fill="#2bb5b8" d="M3942.379 2325.178c-26.966.201-53.957 2.572-80.427 7.8-6.295 1.25-12.558 2.668-18.763 4.311-.048.01-1.105.297-1.53.41-6.264 1.678-12.46 3.63-18.46 6.096-15.537 6.305-30.08 14.831-43.875 24.312a342 342 0 0 0-22.064 16.614c-.155.133-.926.761-1.318 1.086-15.141 12.514-29.34 26.16-42.52 40.722-.135.157-.802.891-1.142 1.272-16.347 18.244-31.143 37.94-43.503 59.108-3.287 5.583-6.3 11.326-8.936 17.245-6.138 13.682-10.979 27.905-15.357 42.234-7.048 23.237-12.655 46.89-17.447 70.688a989 989 0 0 0-6.514 36.005c-4.48 27.943-7.848 56.081-9.538 84.337-1.23 20.835-1.403 41.754.112 62.579 3.012 43.11 12.39 85.684 26.796 126.396.077.226.402 1.13.575 1.617 3.93 11.034 8.25 21.928 12.868 32.691-.025-.049.453 1.039.621 1.427 18.545 42.753 42.254 83.157 69.32 121.052.438.619.49.684.928 1.291 13.586 18.946 28.355 37.654 43.278 55.154 17.92 21.002 36.801 41.175 56.423 60.594.205.195.856.841 1.232 1.21a1122 1122 0 0 0 24.448 23.384c.222.21.882.814 1.272 1.176 1.889 1.751 3.79 3.488 5.69 5.228.269.248.89.808 1.292 1.175.696.631 1.625 1.48 2.176 1.975 15.74 14.257 31.897 28.046 48.311 41.519a1786 1786 0 0 1 116.851 106.314c28.171 28.053 55.423 57.053 81.154 87.368 16.102 19.01 31.595 38.558 45.898 58.964 4.18 5.96 8.206 12.044 11.62 18.481 9.321 17.28 15.26 36.31 17.88 55.748 3.66 26.71 1.42 53.939-4.144 80.224-5.414 25.525-13.958 50.302-24.194 74.273-13.304 31.014-29.504 60.72-47.285 89.378-7.581 12.153-15.432 24.136-23.077 36.25-11.104 17.545-22.104 35.172-32.197 53.324-8.847 15.952-16.821 32.406-23.465 49.402-7.342 18.603-13.41 37.676-19.194 56.812-.118.38-.346 1.15-.505 1.679-8.225 27.394-16.125 54.896-22.946 82.677-3.948 16.376-7.493 32.889-9.44 49.636-1.855 16.21-2.046 32.855 1.912 48.784 2.652 10.887 7.256 21.24 13.161 30.745 8.299 13.401 18.783 25.28 29.675 36.613 10.293 10.66 21.137 20.767 31.883 30.965 14.152 13.257 28.935 25.987 45.329 36.417 12.87 8.18 26.805 14.69 41.368 19.228 20.069 6.315 40.978 9.37 61.841 11.625 2.89.306 6.255.634 8.855.876 4.817.444 9.639.845 14.46 1.235.445.038 1.264.1 1.852.148 20.9 1.624 41.852 3.61 62.35 8.158 14.014 3.165 27.905 7.732 40.141 15.406 10.919 6.808 20.099 16.182 27.314 26.794 7.158 10.387 12.79 21.734 17.849 33.263 6.523 15.907 10.85 32.744 12.508 49.865.88 9.284.952 18.74-.89 27.914-.416 1.116-.68 2.312-1.19 3.38-1.14 1.487-2.198 3.066-3.385 4.495l-6.783 3.527c-2.53-.282-5.094-.455-7.602-.803-1.484-.904-3.05-1.702-4.483-2.673-4.563-4.512-9.145-9.01-13.499-13.73a528 528 0 0 1-19.61-22.267c-7.655-9.28-15.288-18.638-24.038-26.923-6.133-5.771-12.947-10.959-20.699-14.357-8.901-4.02-18.645-5.664-28.293-6.69-6.915-.668-13.854-1.17-20.803-1.28-7.691-.07-15.605.608-22.677 3.865-7.9 3.596-14.33 9.613-20.35 15.73-6.444 6.655-12.503 13.67-18.542 20.69-11.18 13.14-21.888 26.693-31.8 40.817-4.65 6.69-9.201 13.499-12.69 20.882-3.323 6.69-8.635 12.365-15.05 16.181-5.075 2.996-10.934 4.775-16.851 4.695-.747.018-1.425.039-2.25.06-7.371.193-14.912 1.238-21.574 4.567a26.77 26.77 0 0 0-11.277 10.65c-3.629 6.35-4.88 13.74-5.268 20.957-.465 9.746.563 19.496 2.006 29.124 2.155 14.34 5.872 28.395 7.972 42.745 1.012 7.246 1.927 14.643.83 21.934-.686 4.8-2.507 9.386-5.09 13.476-2.529 4.082-5.598 7.8-8.735 11.423-11.078 12.225-19.107 26.922-25.071 42.229-3.655 9.397-6.549 19.08-8.83 28.899-.01.032-.253 1.114-.35 1.54-4.867 21.71-6.864 43.992-6.92 66.218a289 289 0 0 1-5.558 46.906c-1.911 9.01-4.13 18.04-7.97 26.449-1.301 2.738-2.93 5.301-4.305 8-.169.323-.547 1.068-.796 1.553-5.71 11.243-9.576 23.57-10.154 36.22-.65 13.065 2.096 26.096 6.616 38.303 5.027 13.614 11.986 26.425 19.581 38.759 7.601 12.112 16.163 23.609 25.337 34.572 9.35 11.15 19.405 21.703 30.03 31.644.047.05.84.78 1.163 1.082.39.361.954.89 1.097 1.015a392 392 0 0 0 30.597 25.403c.045.038.92.683 1.273.946l1.5 1.114c-.01-.013.92.67 1.27.92 30.534 22.258 64.214 40.28 99.876 52.823 10.625 3.726 21.421 6.993 32.417 9.437 24.673 5.584 49.913 8.44 75.176 9.374 26.706.927 53.53-.347 79.942-4.49 14.56-2.28 28.98-5.557 42.993-10.142 14.163-4.382 28.58-7.875 43.002-11.288 26.36-6.125 52.877-11.566 79.497-16.43 8.464-1.514 16.946-2.951 25.326-4.891 24-5.39 47.539-12.674 70.725-20.854 31.595-11.19 62.55-24.172 92.753-38.704 23.255-11.229 46.09-23.388 67.98-37.104.21-.13 1.014-.642 1.453-.919 13.199-8.382 26.105-17.319 37.891-27.622 13.784-12.156 25.804-26.276 35.871-41.641 7.265-11.133 13.49-22.94 18.618-35.203.01-.01.435-1.054.601-1.454 7.85-19.154 13.042-39.388 15.443-59.947.01-.093.13-1.14.179-1.585q.716-6.501 1.058-13.032c.01-.104.057-1.148.08-1.596 1.647-36.184-5.405-72.991-21.945-105.327-9.113-17.794-21.051-34.2-35.555-47.987-14.89-13.897-32.47-24.643-50.91-33.15a245.8 245.8 0 0 0-47.322-16.149c-.094-.025-1.12-.254-1.557-.354-16.963-3.737-34.425-5.808-51.8-4.58-10.887.825-21.854 2.943-31.708 7.805-1.22.74-2.581 1.22-3.86 1.854q-3.324.278-6.65.555-4.882-2.444-9.765-4.883-1.117-4.753-2.237-9.504c.323-1.65.466-3.352.903-4.967.639-1.593 1.377-3.142 2.384-4.54 6.746-10.593 14.599-20.426 22.643-30.051 11.095-13.07 23.482-25.16 37.608-34.94 18.545-12.954 39.554-21.88 60.92-29.034 23.122-7.719 46.81-13.584 70.548-19.056 21.14-4.847 42.392-9.182 63.634-13.554a2277 2277 0 0 0 32.792-7.06c.357-.085 1.171-.265 1.703-.386 27.883-6.294 55.657-13.185 82.95-21.713 21.276-6.694 42.285-14.438 62.274-24.385 16.94-8.435 33.082-18.558 47.679-30.628 18.049-14.882 33.942-32.314 47.508-51.354 12.858-18.152 23.319-38.2 29.256-59.704 2.662-9.59 4.447-19.429 5.247-29.35 0 .052.088-1.131.121-1.553 1.357-18.645-.759-37.451-5.426-55.524-2.011-8.706-3.873-17.464-5.005-26.334-.652-5.5-1.094-11.078-.379-16.595l.44-4.514c1.737-1.555 3.598-2.98 5.26-4.615 2.527-3.007 3.22-7.047 3.641-10.836.674-6.97-.075-13.991-1.151-20.882-.622-3.959-1.565-7.858-2.28-11.798-1.707-10.554-2.07-21.264-2.32-31.934-.298-18.987.41-37.988 2.014-56.908.718-8.662 1.743-17.293 2.813-25.917a784 784 0 0 0 1.577-14.878c.027-.26.111-1.195.16-1.714 1.826-19.625 2.798-39.344 2.435-59.056l-.035-1.576c-.25-11.284-.95-22.56-2.181-33.781-.026-.266-.131-1.193-.188-1.713-.285-2.552-.608-5.1-.949-7.644-.01-.1-.158-1.138-.218-1.583-.096-.706-.127-.878-.236-1.64a351 351 0 0 0-3.487-19.983c-.04-.207-.243-1.173-.346-1.674a357 357 0 0 0-2.197-9.835c-.061-.238-.281-1.166-.404-1.67a364 364 0 0 0-3.14-12.041c-.047-.182-.324-1.153-.46-1.64-.175-.623-.257-.89-.46-1.603-3.907-13.547-8.589-26.864-13.81-39.958-.076-.18-.447-1.112-.638-1.582-3.37-8.462-7.171-16.744-10.453-25.24-7.65-19.588-14.314-39.543-20.663-59.584-10.306-32.695-19.62-65.698-28.297-98.862-8.056-30.857-15.531-61.87-22.141-93.071-4.134-19.622-7.959-39.318-10.9-59.157-2.153-14.771-3.767-29.645-4.183-44.575-.353-14.113.738-28.301 3.859-42.087 2.7-12.273 6.815-24.176 11.25-35.916 4.687-13.299 7.378-27.196 9.6-41.09 2.615-16.76 4.29-33.654 5.518-50.569.023-.285.084-1.197.121-1.723.775-10.725 1.328-21.92 1.755-32.377 1.108-28.382 1.251-56.795.81-85.193 0-.387-.02-1.2-.03-1.75q-.044-2.685-.092-5.369c-.01-.286-.027-1.2-.04-1.727a2212 2212 0 0 0-1.44-46.001c-.013-.328-.053-1.2-.076-1.736-1.601-37.552-4.127-75.062-7.422-112.503-.031-.376-.108-1.196-.156-1.742a2725 2725 0 0 0-2.462-26.18c-.04-.367-.12-1.194-.177-1.738a2561 2561 0 0 0-5.973-54.008c-.042-.374-.146-1.191-.212-1.735-2.35-19.347-4.977-38.66-7.735-57.952-3.94-28.12-7.757-56.264-10.782-84.5-2.377-22.39-4.36-44.86-4.486-67.39-.052-16.518.995-33.175 5.067-49.237 2.946-11.508 7.633-22.552 13.78-32.713 5.398-8.98 11.605-17.463 18.339-25.484 6.75-7.953 14.53-15.306 23.947-19.987 7.945-3.929 16.782-5.795 25.603-6.166 12.239-.592 24.45 1.044 36.488 3.102 16.156 2.819 32.102 6.703 47.997 10.716 8.357 2.172 16.739 4.258 25.214 5.921 13.788 2.783 27.632 4.849 41.803 6.28.202.023 1.193.117 1.7.168 5.705.56 11.95 1.024 17.342 1.34 22.615 1.283 45.346.969 67.88-1.428 16.565-1.8 33.072-4.636 49.052-9.424 11.135-3.403 22.126-7.657 31.978-13.94 6.907-4.463 13.398-10.048 17.327-17.393 3.204-5.879 4.24-12.829 3.148-19.416-1.35-8.367-5.678-15.978-11.067-22.407-7.992-9.417-18.305-16.643-29.332-22.082-6.192-3.066-12.671-5.526-19.295-7.484-11.504-3.477-23.239-6.121-34.992-8.598-14.09-2.931-28.256-5.482-42.46-7.794-.346-.06-1.185-.19-1.72-.278l-3.166-.507c-.371-.054-1.186-.186-1.727-.27-23.975-3.77-48.042-6.948-72.164-9.615-.308-.036-1.193-.13-1.723-.187-1.807-.219-3.64-.347-5.43-.621l-31.97-15.887 33.332-13.061c25.474-.558 50.953-.757 76.431-1.013q8.752-.097 17.505-.223c.379 0 1.2-.02 1.749-.03 29.174-.514 58.36-1.087 87.487-2.908 12.176-.826 24.382-1.708 36.408-3.864 4.508-.859 9.111-1.784 13.185-3.985 1.32-.75 2.492-1.872 2.908-3.375 1.075-2.727 1.29-6.04-.438-8.555-2.047-3.153-5.567-4.886-8.927-6.296-6.732-2.624-13.892-3.89-21.002-5.002-12.924-1.879-25.97-2.73-39.004-3.413-3.567-.182-7.135-.33-10.704-.469-.328-.01-1.2-.042-1.736-.06-8.82-.313-17.645-.508-26.47-.658-.378 0-1.2-.017-1.748-.025-32.292-.497-64.588-.189-96.88.136-24.215.173-48.433.403-72.639 1.129-.446.017-1.266.04-1.856.06-9.114.282-18.225.65-27.331 1.134-.32.022-1.199.068-1.733.099-18.652 1.051-37.315 2.608-55.727 5.853-15.913 2.83-31.656 7.169-46.284 14.132-14.05 6.631-26.919 15.488-39.095 25.079a370 370 0 0 0-18.8 15.709c-5.075 4.526-10.182 9.063-14.646 14.208-1.727 2.146-3.623 4.458-3.943 7.293-.165 2.008 1.261 3.688 2.859 4.705 2.804 1.82 5.992 2.947 9.155 3.97 4.538 1.323 9.242 1.95 13.906 2.657 8.11 1.11 16.265 1.863 24.423 2.517.243.014 1.196.09 1.713.127 6.681.507 13.37.913 20.063 1.245.286.017 1.198.056 1.725.082 2.3.113 4.973.22 7.039.3 5.823.223 11.648.384 17.474.499.295.01 1.2.02 1.73.03 9.883.176 19.77.107 29.653.376 23.021.49 46.08 1.567 69.025 3.045 37.111 2.43 74.127 5.865 111.004 10.663 18.126 2.392 36.217 5.11 54.178 8.538 14.042 2.713 28.072 5.762 41.6 10.467l43.927 14.943c-13.936 4.944-27.855 9.937-41.801 14.85-10.012 3.31-20.5 4.863-30.95 6.018-18.27 1.908-36.682 2.073-55.026 1.411-25.542-.96-51.02-3.71-76.168-8.281-12.456-2.27-24.804-5.114-37.013-8.466-19.756-5.097-39.792-9.503-60.173-11.086-14.54-1.078-29.396-.57-43.475 3.512-11.073 3.206-21.444 8.753-30.297 16.132-11 9.094-19.866 20.474-27.575 32.413-4.847 7.464-9.52 15.047-13.756 22.878-7.147 13.137-13.482 26.735-18.653 40.773-3.03 8.415-5.686 17.06-6.593 25.992-.223 2.811-.322 5.631-.38 8.45l-.02 1.58c-.047 4.31.05 8.618.18 12.924.01.066.042 1.145.06 1.588l.075 2.11c.01.335.047 1.2.068 1.737.463 10.795 1.195 21.577 2.047 32.348.026.352.098 1.197.142 1.738 2.893 34.737 6.966 69.37 11.827 103.884 1.423 10.19 3.03 20.354 4.325 30.56 5.814 43.93 10.702 87.977 14.982 132.08 3.337 34.9 6.304 69.84 8.43 104.837.9 14.798 1.572 29.609 2.037 44.427.912 22.77 1.825 45.543 2.15 68.33.337 26.93-.032 54.006-4.284 80.66-2.9 18.684-7.635 37.02-12.78 55.194-3.213 11.09-6.103 22.27-8.807 33.494-4.136 17.406-7.645 35.008-9.339 52.835-1.414 15.01-1.374 30.163.286 45.152 1.303 11.772 3.28 23.457 5.326 35.12 4.892 27.435 10.784 54.682 16.99 81.846l1.5 6.498c.131.544.335 1.428.494 2.103l1.29 5.515c9.275 39.283 19.327 78.387 30.415 117.2 5.612 19.492 11.467 38.926 18.168 58.076 3.172 8.9 6.47 17.788 10.793 26.203 11.157 22.148 20.904 45.133 27.211 69.162 6.35 23.887 9.176 48.582 10.02 73.245.875 25.315-.088 50.654-1.584 75.926-2.423 37.82-4.87 75.637-7.29 113.456l-.62 9.66c-11.79-16.185-23.63-32.333-35.383-48.545-12.826-17.905-24.403-36.681-35.117-55.916-13.284-23.914-25.208-48.565-36.24-73.59-18.742-42.564-34.966-86.192-49.987-130.192-2.827-8.356-5.63-16.95-8.503-25.147a1610 1610 0 0 0-26.828-71.557c-.138-.328-.452-1.113-.656-1.616-5.532-13.621-11.18-27.205-17.437-40.512-4.773-10.085-10.07-19.914-15.48-29.67-10.973-19.64-22.71-38.842-34.745-57.846a1906 1906 0 0 0-21.41-32.946c-.207-.318-.665-.999-.969-1.456-4.633-6.96-9.31-13.89-14.014-20.801-.383-.555-.941-1.377-1.391-2.033l-2.715-3.974c-26.965-39.243-54.97-77.78-84.247-115.332-12.468-15.972-25.166-31.767-38.284-47.21-.189-.226-.78-.913-1.123-1.316a885 885 0 0 0-23.338-26.356c-.748-.808-1.67-1.816-2.485-2.7-11.507-12.487-22.963-25.034-33.892-38.035-9.502-11.429-18.716-23.207-26.03-36.185-5.65-10.084-10.01-21.022-11.687-32.507-1.47-9.4-1.176-19 .2-28.392 2.032-13.903 6.25-27.376 10.987-40.567 5.617-15.522 12.141-30.696 18.798-45.795 10.25-23.18 21.033-46.12 31.649-69.134 13.662-29.821 27.035-59.784 39.435-90.156.103-.244.45-1.112.647-1.596 14.822-36.456 28.289-73.562 37.954-111.748.048-.21.29-1.163.413-1.66.969-3.856 1.996-8.192 2.81-11.775 5.1-22.377 8.742-45.077 11.1-67.903 1.251-12.07 2.149-24.176 2.804-36.293.02-.344.062-1.199.091-1.739.17-3.206.312-6.414.448-9.622.01-.344.047-1.2.067-1.74.322-8.299.548-16.6.71-24.904.01-.287.02-1.2.03-1.728.046-2.762.093-5.468.13-8.181.206-13.275.36-26.553.124-39.828-.01-.261-.026-1.2-.038-1.721a611 611 0 0 0-.221-7.867c0-.066-.045-1.145-.062-1.587-.027-.637-.047-1.25-.066-1.556-.69-15.703-2.45-31.465-6.9-46.586-4.974-17.07-12.63-33.177-20.148-49.236-6.19-13.08-13.122-26.315-20.09-38.666-15.214-26.846-32.858-52.459-53.99-75.011a316 316 0 0 0-13.145-13.244c-.135-.133-.87-.823-1.238-1.171a326 326 0 0 0-29.347-24.495c-.207-.158-.966-.712-1.386-1.022-18.638-13.682-38.642-25.408-59.22-35.91a946 946 0 0 0-24.978-12.494c-.072-.038-1.036-.494-1.438-.686a848 848 0 0 0-9.367-4.408c-.058-.02-1.042-.476-1.445-.658l-3.987-1.822-1.435-.643c-32.271-14.469-65.77-26.699-100.589-33.344-11.915-2.277-23.964-3.866-36.068-4.69-.065-.01-1.143-.072-1.585-.1-24.64-1.537-49.46.272-73.665 5.093-22.538 4.477-44.986 9.912-66.442 18.244-16.054 6.222-31.475 14.204-45.453 24.288-11.86 8.447-22.65 18.313-32.63 28.895-5.174 5.444-10.387 10.855-15.815 16.046q-7.497 6.997-14.994 13.994c-3.743-6.158-7.58-12.26-11.261-18.455-3.69-6.552-8.25-12.568-13.024-18.362-9.94-11.878-21.001-22.774-32.513-33.119-13.93-12.417-28.61-24.016-44.117-34.407-8.764-5.83-17.813-11.275-27.316-15.818-9.663-4.565-19.987-7.549-30.384-9.91-17.629-3.885-35.637-5.82-53.65-6.703-.051 0-1.144-.05-1.583-.068a449 449 0 0 0-21.468-.404zm38.504 36.742c15.302 2 30.021 7.124 44.023 13.478 17.564 8.022 34.115 18.18 49.55 29.761 15.735 11.844 30.382 25.234 42.952 40.423 8.918 10.838 16.843 22.654 22.164 35.693 1.829 4.687 3.533 9.429 5.695 13.979 3.426 7.365 7.507 14.602 13.327 20.356 3.937 3.837 9.043 6.877 14.66 7.07 5.682.276 11.123-2.1 15.716-5.268 6.85-4.738 12.4-11.075 17.46-17.629 3.359-4.325 6.287-8.955 9.324-13.504 12.514-18.444 28.27-34.708 46.469-47.593 21.495-15.299 46.022-25.93 71.328-33.124 22.799-6.492 46.343-10.686 70.075-11.23 21.28-.533 42.57 1.955 63.312 6.645 26.196 5.935 51.54 15.121 76.23 25.603a829 829 0 0 1 38.06 17.378c30.037 14.817 58.291 33.412 83.163 55.886 24.549 22.11 45.697 47.9 63.097 75.962 7.792 12.51 14.777 25.503 21.306 38.712 6.617 13.208 13.155 26.558 17.494 40.72 3.339 10.937 5.194 22.28 6.08 33.667 1.268 15.47 1.228 31.006 1.154 46.516-.163 15.588-.41 31.175-.843 46.757-.93 31.908-3.784 63.791-9.292 95.247-6.39 36.693-16.554 72.664-29.252 107.656-13.989 38.63-30.791 76.174-48.56 113.196-9.94 20.706-20.437 41.14-30.252 61.907-3.82 8.043-7.548 16.13-11.16 24.27-.102.242-.483 1.098-.692 1.576-.387.878-.955 2.175-1.228 2.788-8.238 18.967-15.917 38.245-21.411 58.205-4.46 16.291-7.382 33.16-6.813 50.1.394 13.245 3.138 26.388 7.877 38.754 6.092 15.954 15.207 30.565 25.333 44.246 14.944 20.044 32.005 38.382 49.281 56.412 12.933 13.432 25.003 27.663 36.854 42.048 23.548 28.695 46.029 58.254 67.875 88.261 19.107 26.262 37.598 52.974 55.344 80.175 19.971 30.452 39.52 61.22 57.15 93.1 12.34 22.318 23.584 45.247 33.476 68.755 8.223 19.45 15.557 39.264 22.472 59.212 8.672 25.049 17.47 50.056 26.604 74.94.178.493.485 1.313.712 1.932 9.82 26.586 20.06 53.03 31.407 79.007 10.992 25.155 23.137 49.814 36.632 73.723 15.888 28.274 33.394 55.595 51.151 82.72 13.395 20.637 26.525 41.703 38.283 63.41 10.337 19.214 19.798 39.049 25.997 60.023 4.514 15.4 7.005 31.521 6.031 47.59-.714 13.03-3.703 25.842-7.906 38.165-5.996 18.082-14.275 35.562-25.838 50.775-11.529 15.287-26.186 28.032-42.27 38.335-18.285 11.775-38.213 20.748-58.496 28.472-22 8.317-44.535 15.144-67.22 21.322-32.826 8.914-66.018 16.4-99.264 23.565-23.197 5.092-46.33 10.504-69.264 16.681-.209.061-1.156.316-1.65.452a887 887 0 0 0-25.68 7.37c-.187.063-1.145.355-1.63.506-23.123 7.117-45.985 15.34-67.673 26.131-.184.098-1.07.54-1.525.77-18.248 9.248-35.535 20.624-50.395 34.745-10.98 10.373-20.637 22.098-29.067 34.62l-30.874 44.818c1.868-19.767 3.69-39.538 5.586-59.303 2.36-22.082 8.212-43.763 17.087-64.113 9.888-22.87 23.199-44.097 37.885-64.166 14.015-19.247 26.037-39.984 35.314-61.925 1.89-4.43 3.664-8.908 5.35-13.419.012-.022.396-1.071.547-1.48 3.408-9.268 6.395-18.687 9.051-28.197.032-.103.305-1.109.426-1.542a443 443 0 0 0 3.176-12.263c.062-.246.281-1.166.404-1.672.17-.708.252-1.044.385-1.621 5.828-24.763 9.738-49.937 12.763-75.183 1.634-13.776 2.975-27.586 4.157-41.409.018-.276.097-1.196.139-1.72 1.19-14.357 2.201-28.97 3.052-43.2 1.158-19.36 2.043-38.737 2.81-58.117.414-10.487.83-21.144 1.197-31.699.023-.638.039-1.053.06-1.746l.314-9.725c0-.32.033-1.2.046-1.735l.25-9.027c.012-.328.029-1.2.043-1.736.117-4.782.206-9.565.284-14.348 0-.37.016-1.2.022-1.747.436-28.583-.096-57.277-4.03-85.633-3.369-24.776-8.9-49.189-14.568-73.521-12.835-53.23-26.969-106.277-46.215-157.596-11.086-29.581-23.861-58.522-38.085-86.727-19.67-39.11-41.825-76.907-64.699-114.213-.184-.292-.63-1.022-.915-1.481l-4.302-6.972c-.234-.384-.668-1.077-.978-1.579a3868 3868 0 0 0-25.498-40.558c-.54-.838-1.22-1.91-1.815-2.838-1.339-2.094-2.731-4.277-4.015-6.284-7.305-11.355-14.634-22.696-21.75-34.17-21.864-35.066-42.856-70.669-63.255-106.604-13.356-23.587-26.46-47.32-38.997-71.353-7.094-13.617-13.917-27.372-20.811-41.091-7.93-15.963-15.875-31.937-22.855-48.346-6.303-14.699-11.547-29.893-14.92-45.543-4.652-21.606-6.356-43.693-7.987-65.69-.94-13.265-1.744-26.539-2.597-39.81-.021-.26-.083-1.196-.12-1.717-1.715-24.933-4.594-49.781-8.466-74.47-.056-.321-.19-1.185-.276-1.715l-.363-2.277c-.049-.32-.194-1.185-.28-1.714a963 963 0 0 0-9.573-50.061c-.075-.324-.26-1.173-.377-1.697a995 995 0 0 0-3.348-14.632c-.075-.328-.278-1.167-.403-1.692l-.57-2.382c-.087-.346-.284-1.166-.413-1.694a979 979 0 0 0-4.713-18.612c-.081-.316-.309-1.16-.446-1.68a985 985 0 0 0-28.359-89.424c-.13-.334-.42-1.125-.612-1.634-10.045-26.934-21.301-53.423-33.911-79.258-.132-.275-.53-1.078-.763-1.555-7.971-16.23-16.458-32.211-25.571-47.83-.13-.228-.607-1.035-.87-1.486-9.813-16.746-20.365-33.046-31.162-49.17-21.92-32.571-45.345-64.12-69.926-94.73-2.753-3.431-5.53-6.843-8.312-10.251-.172-.215-.762-.927-1.095-1.333-20.766-25.266-42.37-49.86-65.106-73.374-14.924-15.386-30.344-30.318-46.664-44.224-6.395-5.462-13.026-10.636-19.674-15.784-7.652-5.939-15.144-12.081-22.503-18.379l-33.731-28.529zm-68.485 20.598c-.892 4.507-1.342 9.333.225 13.747.672 1.848 2.192 3.76 4.335 3.735 1.109.024 2.228-.019 3.269.429 5.697 1.54 10.807 4.616 15.745 7.759 10.367 6.724 19.916 14.61 29.298 22.626 13.978 12.074 27.368 24.814 40.465 37.834 25.456 25.324 49.784 51.765 73.32 78.878 24.448 28.232 48.016 57.248 70.138 87.346 10.045 13.71 19.795 27.648 28.847 42.038 35.639 56.182 63.961 116.898 85.188 179.922 22.495 66.778 37.039 136.17 44.084 206.261 1.268 12.7 2.284 25.422 3.116 38.157.065.995.156 2.261.231 3.36.457 6.579.91 13.157 1.386 19.734.033.394.09 1.197.132 1.748.612 8.33 1.28 16.657 2.034 24.976.025.309.112 1.196.161 1.726l.194 2.058c.038.342.119 1.194.173 1.732 2.01 20.71 4.955 41.452 11.092 61.387 6.224 20.365 15.18 39.749 24.377 58.91 8.82 18.289 17.94 36.432 27.053 54.576 15.061 29.58 31.04 58.684 47.38 87.574 19.27 33.971 39.123 67.62 59.958 100.656 6.064 9.614 12.302 19.116 18.545 28.614 45.521 70.109 87.854 142.541 122.106 218.884a1162 1162 0 0 1 48.382 126.996c4.438 14.148 8.745 28.339 12.81 42.599 5.035 17.722 9.383 35.676 11.99 53.93 3.706 25.516 4.548 51.335 4.96 77.082.444 34.728-.042 69.457-.384 104.184-.156 22.836-.369 45.673-.922 68.503-.837 32.659-2.14 65.341-5.565 97.845-2.881 26.945-7.326 53.85-15.517 79.733-5.02 15.88-11.468 31.302-19.196 46.054-8.894 17.084-19.382 33.275-30.314 49.112-6.65 9.802-13.106 19.742-19.117 29.95-.106.176-.604 1.036-.862 1.476-9.514 16.294-17.72 33.416-23.554 51.384-4.197 12.81-7.292 25.969-9.51 39.262-.025.18-.194 1.182-.274 1.68-3.007 18.48-4.532 37.166-5.454 55.855l-.077 1.716c-.558 11.794-.848 23.598-1.027 35.403 0 .354-.015 1.2-.021 1.743-.311 24.594-.043 49.191.333 73.783.01.747.03 1.8.044 2.664.736 40.062.91 80.157-.819 120.197-.818 17.658-1.976 35.318-4.24 52.855-1.062 8.035-2.363 16.06-4.402 23.91-2.794 10.222-7.216 19.931-12.316 29.195-8.346 15.077-18.732 28.942-30.052 41.903-18.267 20.841-39.1 39.337-61.298 55.889-16.2 12.04-33.167 23.061-50.828 32.836-15.074 8.286-30.816 15.662-47.544 19.914-13.141 3.327-26.874 4.409-40.356 2.875-18.103-1.983-35.478-8.01-52.13-15.165-10.215-4.446-20.31-9.167-30.313-14.07-31.534-15.576-62.037-33.525-89.728-55.286-19.246-15.158-37.14-32.219-52.008-51.743-12.891-16.95-23.427-35.87-29.678-56.286-2.959-10-5.877-20.01-8.82-30.015 9.505 3.242 18.99 6.544 28.507 9.748 9.288 2.866 19.123 3.453 28.787 3.06a133.8 133.8 0 0 0 40.61-8.23c9.538-3.608 18.81-8.403 26.338-15.378 2.587-2.382 4.75-5.186 6.519-8.22 4.628-7.694 7.956-16.078 11.018-24.492 4.68-13.114 8.227-26.627 10.655-40.336l8.075-42.054c6.867 12.713 13.69 25.45 20.584 38.148 7.824 13.71 20.529 24.785 35.567 29.82 6.499 2.192 13.408 3.047 20.25 2.746 6.802-.185 13.86-.819 19.969-4.07 5.494-2.937 9.64-7.806 12.965-12.977 4.73-7.325 8.331-15.296 11.955-23.206 4.029-8.884 7.635-17.966 10.545-27.28 5.507-17.457 9.046-35.622 9.49-53.95.247-11.858-.79-23.893-4.567-35.196-2.393-7.092-6.061-13.898-11.523-19.102-2.797-2.777-5.432-5.713-7.837-8.836l-5.433-6.767c2.714-3.9 5.29-7.896 8.104-11.724 2.825-3.687 6.034-7.067 8.723-10.861 7.831-10.607 14.522-22 20.927-33.508 10.918-19.785 20.721-40.175 29.669-60.922 7.256-16.878 14-34.01 19.322-51.606l.95-3.256c-.027.071.305-1.088.418-1.494 1.775-6.48 3.345-13.064 3.875-19.778.376-6.833-.649-13.66-2.022-20.336-2.79-13.096-7.513-25.704-13.013-37.884-7.73-16.966-17.2-33.15-28.286-48.143-7.56-10.16-15.931-19.804-25.645-27.967-11.054-9.101-23.985-15.613-37.253-20.826-15.695-6.125-32.072-10.36-48.609-13.491-21.954-4.13-44.27-6.163-66.592-6.71-.311-.01-1.2-.02-1.733-.03-5.993-.052-11.993-.3-17.935-1.126-18.873-2.458-37.11-8.599-54.286-16.677-21.466-10.172-41.401-23.522-59.16-39.286-14.13-12.631-26.921-26.888-37.1-42.913-7.434-11.771-13.44-24.59-16.542-38.208-1.805-7.854-2.027-15.965-1.861-23.99.428-13.798 2.426-27.5 4.98-41.05 4.524-23.494 10.958-46.581 18.287-69.343 8.097-24.974 17.41-49.548 27.708-73.696 12.966-30.336 27.485-60.03 43.951-88.627 6.1-10.59 12.531-20.986 19.191-31.233 21.62-33.824 41.607-68.783 58.137-105.397 14.368-31.936 26.145-65.244 32.377-99.779 4.73-26.431 6.017-53.64 2.038-80.258-3.225-21.657-9.933-42.819-19.984-62.28-4.44-8.409-9.507-16.47-14.778-24.378-12.782-19.087-26.924-37.222-41.509-54.954a1235 1235 0 0 0-16.546-19.629c-.167-.198-.785-.907-1.126-1.302-22.837-26.404-46.681-51.928-71.18-76.794a1833 1833 0 0 0-50.69-49.484c-.204-.195-.877-.82-1.261-1.18-22.048-20.658-44.602-40.781-67.754-60.197-32.242-26.837-63.629-54.743-93.338-84.374-35.239-35.147-68.26-72.692-96.689-113.6-20.246-29.13-38.086-59.99-52.4-92.467-14.437-32.641-25.197-66.913-31.884-101.975-7.44-38.705-9.9-78.28-8.469-117.639 1.35-37.49 6.12-74.804 13.17-111.631 3.353-17.271 7.107-34.476 11.717-51.458 5.53-20.18 12.532-40.058 22.359-58.575 6.633-12.62 14.483-24.572 23.102-35.918 12.37-16.313 26.14-31.503 40.205-46.358 13.121-13.763 27.058-26.977 43.13-37.267 11.517-7.364 24.022-13.093 36.935-17.534 21.651-7.51 44.158-12.053 66.494-16.983l8.972-1.969zm328.375 2131.45c8.094-.05 15.929 2.762 22.916 6.678 10.868 6.109 20.258 14.465 29.086 23.186 7.427 7.48 14.587 15.242 21.198 23.456 7.534 9.508 14.202 19.955 17.822 31.617 3.012 9.721 3.446 20.224 1.194 30.153-2.566 11.664-8.089 22.446-14.53 32.418-7.94 12.27-17.335 23.523-27.125 34.347-.265.286-.733.809-1.144 1.263-7.938 8.824-15.58 18.05-21.39 28.446-3.916 7.12-6.874 15.066-6.707 23.298.026 3.112.675 6.163 1.274 9.201.859 4.992 1.239 10.049 1.863 15.072l.575 5.079c-5.912.53-11.815 1.173-17.733 1.63-5.731.35-11.531-.138-17.197 1-8.48 1.548-16.418 5.582-22.882 11.255-8.512 7.4-14.75 17.043-19.673 27.104-6.607 13.596-10.97 28.159-14.405 42.842-1.472 6.275-2.605 12.622-3.936 18.927-2.705 12.234-6.338 24.312-11.53 35.734-1.97 4.396-4.334 8.632-7.316 12.428-.513.664-.908 1.462-1.754 1.748-3.533 2.072-7.23 3.893-11.146 5.122-10.671 3.412-22.138 3.508-33.141 1.874-13.354-2.017-26.204-6.692-38.17-12.88-4.19-2.236-8.418-4.764-11.287-8.65-2.224-2.83-3.473-6.278-4.173-9.776-1.315-6.289-1.177-12.76-1.037-19.149.278-8.461.94-16.905 1.682-25.336 1.093-11.091 2.552-22.18 5.175-33.023 2.53-10.375 6.41-20.486 12.15-29.524 4.792-7.677 10.772-14.522 17-21.057 6.204-6.774 12.589-13.61 16.79-21.865 3.334-6.546 4.617-13.975 4.458-21.278-.146-9.96-2.06-19.78-4.068-29.503-2.9-13.711-6.48-27.266-9.838-40.868-1.402-6.427-2.25-12.956-3.353-19.438l-.708-4.376c6.421-.337 12.838-.78 19.262-1.049 4.854-.141 9.77.103 14.54-.996 6.03-1.267 11.62-4.28 16.172-8.41 6.633-5.944 11.65-13.41 16.322-20.925 2.678-4.246 5.018-8.689 7.418-13.094 8.714-15.685 18.25-30.923 28.707-45.506 5.418-7.483 11.152-14.762 17.532-21.452 5.464-5.614 11.8-10.61 19.168-13.447 3.806-1.443 7.865-2.255 11.94-2.275zm77.73 251.095c.787-.188.334.936.507 1.397.305 6.018.771 12.029.951 18.052.266 12.704-1.247 25.392-3.697 37.842-1.524 7.61-3.522 15.152-6.521 22.324-2.513 6.418-5.626 12.689-10.08 17.998q-7.15 9.026-14.304 18.05c-3.545-7.943-7.153-15.859-10.658-23.82-1.32-3.205-2.072-6.622-2.285-10.08-.743-8.763-.257-17.573.407-26.325.99-11.91 2.58-23.792 5.251-35.447 1.065-4.646 2.61-9.16 3.965-13.724a1027 1027 0 0 0 21.978-7.355l13.967-4.79zm403.386-1.65c11.637.053 23.155 2.006 34.578 4.054 19.773 3.742 39.268 9.934 56.742 20.06 15.183 8.768 28.578 20.717 38.656 35.09 11.758 16.664 19.068 36.124 23.158 56.013 4.18 20.212 5.341 40.943 4.861 61.542-.466 16.51-2.394 33.14-7.685 48.853-4.279 12.998-10.96 25.16-19.399 35.919-11.403 14.62-25.611 26.772-40.49 37.718-14.543 10.635-29.87 20.15-45.435 29.204-15.062 8.74-30.39 17.015-45.738 25.24-22.31 11.852-44.887 23.22-67.855 33.747-5.358 2.436-10.725 4.863-16.168 7.1l-46.825 16.088c10.285-13.161 20.541-26.348 30.845-39.494 14.084-15.4 26.844-32.198 36.303-50.861 8.502-16.683 14.226-34.7 17.614-53.091 1.38-7.388 2.419-14.838 3.203-22.312.014-.177.12-1.191.169-1.693 1.795-18.39 2.14-36.893 1.837-55.359-.266-14.832-.968-29.652-1.42-44.48-.671-20.78-1.332-41.565-1.485-62.358-.037-12.338-.01-24.7 1.089-37 .643-6.174 1.47-12.4 3.536-18.282 1.628-4.645 4.196-8.956 7.577-12.539 2.367-2.534 4.717-5.147 7.618-7.087 5.38-3.679 11.885-5.276 18.307-5.812a78 78 0 0 1 6.407-.26zm-79.713 160.058c1.744 24.657 2.083 49.503-.717 74.097-2.552 22.422-7.939 44.668-17.482 65.182-8.363 18.056-19.909 34.578-33.672 48.928-16.127 16.93-34.964 31.052-54.717 43.463l-5.785 2.773q-10.818-3.092-21.637-6.182l8.211-17.79c4.095-4.095 8.38-7.995 12.517-12.048 8.04-7.793 16.063-15.626 23.438-24.061 7.054-7.985 13.648-16.385 19.586-25.233.039-.052.635-.954.881-1.322 9.156-13.846 16.546-28.84 22.091-44.481 4.164-11.63 7.314-23.601 9.823-35.69.01-.079.228-1.124.315-1.56 3.862-19.162 6.056-38.617 7.575-58.092 0-.088.083-1.145.115-1.59.185-2.15.261-4.322.488-6.459l14.433-33.043z" class="logo-paths" style="stroke:#fff;stroke-opacity:1;stroke-width:4.63819633;stroke-dasharray:none" transform="matrix(.13755 0 0 -.13755 -363.632 735.285)"/></svg>