<?xml version="1.0" encoding="UTF-8" standalone="no"?>
<svg
   version="1.0"
   width="468.20737"
   height="430.98087"
   viewBox="0 0 468.20737 430.98087"
   preserveAspectRatio="xMidYMid"
   id="svg6"
   sodipodi:docname="favicon.svg"
   inkscape:version="1.2.2 (b0a8486541, 2022-12-01)"
   xmlns:inkscape="http://www.inkscape.org/namespaces/inkscape"
   xmlns:sodipodi="http://sodipodi.sourceforge.net/DTD/sodipodi-0.dtd"
   xmlns="http://www.w3.org/2000/svg"
   xmlns:svg="http://www.w3.org/2000/svg">
  <sodipodi:namedview
     id="namedview6"
     pagecolor="#ffffff"
     bordercolor="#000000"
     borderopacity="0.25"
     inkscape:showpageshadow="2"
     inkscape:pageopacity="0.0"
     inkscape:pagecheckerboard="0"
     inkscape:deskcolor="#d1d1d1"
     showgrid="false"
     inkscape:zoom="1.2649734"
     inkscape:cx="260.47979"
     inkscape:cy="142.29548"
     inkscape:window-width="1920"
     inkscape:window-height="940"
     inkscape:window-x="0"
     inkscape:window-y="32"
     inkscape:window-maximized="1"
     inkscape:current-layer="svg6" />
  <defs
     id="defs10" />
  <g
     class="logo-paths"
     transform="matrix(0.1,0,0,-0.1,-190.6929,594.75148)"
     fill="#2bb5b8"
     stroke="none"
     id="g4">
    <path
       d="m 3077,5938 c -2,-7 -269,-649 -592,-1427 -323,-777 -583,-1417 -578,-1421 4,-4 786,-330 1738,-724 952,-395 1763.1691,-728.2939 1763.1691,-728.2939 L 5470,1788 6031,3139 c 309,744 559,1354 558,1355 -3,3 -3385,1408 -3495,1453 -6,2 -14,-2 -17,-9 z m 1757,-744 c 940,-390 1710,-714 1712,-719 5,-13 -1150,-2800 -1160,-2799 -30,4 -3446,1430 -3446,1438 0,6 260,638 578,1404 439,1060 581,1392 592,1389 8,-2 784,-323 1724,-713 z m -614,52 c -85,-24 -166,-83 -212,-155 -31,-50 -35,-83 -13,-121 8,-14 14,-48 15,-76 0,-60 15,-111 42,-140 16,-19 17,-26 7,-73 -12,-59 -3,-81 36,-81 13,0 26,-9 32,-22 6,-13 27,-41 46,-63 32,-37 38,-40 76,-37 35,3 47,11 77,48 20,24 40,44 44,44 19,0 19,-51 1,-94 -27,-61 -54,-76 -148,-83 -91,-7 -122,-20 -181,-77 -81,-76 -85,-101 -46,-239 30,-104 38,-121 99,-216 90,-139 110,-251 59,-327 -51,-75 -150,-178 -256,-265 -188,-156 -288,-329 -288,-500 0,-91 28,-229 57,-279 39,-69 114,-135 170,-151 69,-20 170,-18 214,4 41,20 100,72 116,102 11,18 12,18 40,-11 38,-41 77,-60 151,-74 78,-14 151,3 254,57 81,42 128,93 172,183 29,61 31,71 29,170 -3,124 -23,195 -109,379 -71,154 -70,163 27,268 71,77 190,245 233,331 13,26 38,89 55,141 41,121 80,204 123,264 l 35,48 7,-109 c 8,-116 0,-164 -36,-235 -21,-42 -72,-241 -83,-324 -5,-38 -1,-71 15,-130 20,-69 22,-94 17,-213 -2,-74 -15,-205 -27,-292 -13,-86 -20,-172 -16,-190 3,-19 19,-55 36,-81 36,-58 75,-68 166,-44 76,21 183,22 209,3 17,-12 16,-14 -17,-25 -47,-16 -184,-31 -288,-32 -47,0 -93,-4 -104,-8 -17,-6 -15,-10 15,-36 60,-50 87,-56 262,-57 166,-2 210,4 201,25 -3,9 -52,13 -183,14 -107,1 -187,5 -198,12 -14,8 -7,10 36,11 84,0 231,20 279,37 41,15 63,47 48,71 -25,40 -148,54 -249,27 -90,-23 -112,-20 -142,19 -38,50 -40,85 -14,267 30,214 32,441 5,511 -14,37 -17,61 -12,105 9,80 58,266 89,338 33,76 41,140 29,235 -5,41 -5,90 -1,109 5,22 4,38 -2,42 -7,4 -6,21 1,51 16,62 -1,118 -51,173 -50,54 -109,79 -260,110 -153,31 -190,48 -237,109 -31,40 -30,62 2,41 42,-28 146,-2 194,48 76,79 69,220 -15,299 -53,50 -204,118 -295,133 -45,8 -105,21 -132,30 -58,18 -143,18 -206,1 z m -35,-72 c -81,-49 -113,-80 -141,-139 -24,-50 -24,-50 -24,-16 0,28 11,44 68,101 60,61 101,85 147,89 6,1 -17,-15 -50,-35 z m 346,-16 c 90,-55 120,-118 111,-237 -6,-84 -24,-91 -28,-12 -5,101 -23,150 -73,201 -25,25 -59,56 -76,69 -28,20 -28,22 -6,15 14,-4 46,-20 72,-36 z m -116,3 c 74,-43 132,-104 147,-154 8,-28 12,-94 10,-197 -3,-177 5,-217 61,-299 58,-84 69,-137 70,-340 2,-166 0,-181 -26,-266 -37,-121 -90,-228 -176,-360 -40,-60 -97,-160 -127,-220 -55,-110 -56,-112 -64,-230 -11,-162 -61,-313 -143,-435 -75,-110 -219,-260 -250,-260 -5,0 -7,-9 -4,-20 4,-17 1,-19 -21,-14 -69,15 -93,28 -135,73 -58,62 -75,96 -93,188 -47,247 26,418 267,619 114,95 234,226 268,291 45,89 21,201 -75,350 -69,106 -124,271 -110,326 16,67 110,137 183,137 64,1 121,15 152,38 35,26 73,96 73,135 0,32 -51,145 -80,179 -13,15 -12,19 2,33 22,22 20,80 -4,133 -16,36 -23,42 -49,42 -32,0 -61,-30 -61,-64 0,-32 -12,-10 -21,40 -5,26 -16,56 -25,66 -22,24 -82,34 -107,19 -18,-12 -19,-11 -13,16 17,69 85,132 196,182 61,28 96,26 155,-8 z m 323,-53 c 113,-61 142,-97 142,-176 0,-99 -42,-152 -132,-166 -30,-5 -46,-3 -56,8 -16,16 -17,28 -12,166 3,98 -12,145 -63,199 l -32,34 30,-7 c 17,-4 72,-30 123,-58 z m -589,-177 c 7,-5 17,-29 22,-55 12,-64 35,-96 69,-96 23,0 27,-3 23,-24 -4,-17 5,-35 30,-62 51,-57 54,-90 14,-135 -46,-52 -74,-58 -103,-23 -14,16 -33,46 -44,67 -16,28 -27,37 -46,37 -23,0 -25,3 -20,26 20,78 19,84 -9,114 -22,23 -29,42 -33,83 -4,48 -2,54 19,64 29,14 59,16 78,4 z m 161,-87 c 6,-14 10,-39 10,-56 0,-23 -4,-29 -16,-24 -9,3 -17,6 -19,6 -8,0 -17,70 -11,85 8,23 25,18 36,-11 z m 336,-181 c 41,-54 100,-81 249,-113 199,-43 259,-78 286,-168 16,-54 0,-103 -69,-208 -64,-98 -87,-146 -142,-305 -29,-84 -55,-134 -122,-235 -47,-71 -115,-160 -152,-198 -103,-107 -106,-145 -26,-306 76,-152 101,-238 103,-361 2,-98 0,-107 -28,-162 -39,-77 -95,-131 -172,-167 -91,-43 -150,-54 -217,-40 -66,14 -113,43 -144,92 -29,43 -53,41 -71,-7 -22,-62 -126,-132 -181,-123 -16,2 -10,11 34,45 65,50 163,166 227,269 71,114 120,271 129,414 7,113 8,117 60,220 29,58 87,159 130,225 116,181 149,254 190,425 20,86 21,109 15,250 -8,175 -26,251 -77,321 -41,56 -57,103 -56,159 0,25 3,36 5,25 3,-11 16,-35 29,-52 z"
       id="path2" />
  </g>
  <path
     style="fill:#1a2d2d;fill-opacity:1;stroke:#f0f0f0;stroke-width:1.58106"
     d="M 325.69855,417.70459 C 278.54522,398.37762 81.492101,316.14075 18.075623,289.32324 L 3.7394972,283.26079 6.4960943,276.41584 C 18.473625,246.67425 91.761163,70.093666 105.79831,37.154932 117.28287,10.205959 119.674,5.138448 120.90544,5.138448 c 1.09582,0 6.61649,2.2580402 96.09517,39.304422 115.59306,47.858384 226.37607,94.13955 241.09295,100.71999 l 5.39867,2.41394 -8.69349,21.47053 c -18.49613,45.68035 -87.6776,212.50423 -101.92584,245.78353 -2.74575,6.41318 -5.18077,11.65175 -5.41115,11.64127 -0.23038,-0.0105 -10.02382,-3.95587 -21.7632,-8.76754 z M 213.40824,361.16205 c 2.61987,-0.89269 5.3976,-2.85864 8.92306,-6.31539 l 5.119,-5.0192 3.58686,3.15728 c 6.53356,5.75107 18.91441,7.92845 28.70625,5.04847 12.60083,-3.70615 22.50687,-11.6691 27.88162,-22.41258 3.44068,-6.87752 4.1244,-11.94951 3.02103,-22.41056 -1.0792,-10.2319 -2.86667,-16.06445 -9.67986,-31.5857 -7.79482,-17.75754 -7.88972,-17.03642 4.10854,-31.22037 7.05452,-8.33962 15.18231,-19.82972 19.15507,-27.07914 1.54876,-2.82615 5.1286,-11.30004 7.9552,-18.83087 4.98098,-13.27071 8.54743,-20.65824 12.58851,-26.07588 l 1.94934,-2.61337 0.56931,9.1116 c 0.69731,11.16014 0.20423,14.71819 -3.27563,23.63661 -2.91908,7.48119 -6.75915,21.92598 -8.26627,31.09433 -0.85947,5.22845 -0.76364,6.37924 1.28372,15.41534 l 2.21253,9.76508 -0.91869,14.22955 c -0.50528,7.82625 -1.63268,19.89991 -2.50533,26.83035 -0.87265,6.93044 -1.58316,14.04522 -1.57892,15.8106 0.0104,4.29515 3.02821,10.54171 6.61403,13.6901 3.41025,2.99425 6.48836,3.2715 14.72257,1.3261 7.90534,-1.8677 20.55379,-1.61769 20.55379,0.40626 0,1.55859 -14.21803,3.55679 -31.68746,4.45335 -5.03654,0.25848 -9.65489,0.77747 -10.26301,1.1533 -1.53897,0.95114 2.35505,4.93417 7.11933,7.28206 3.42367,1.68723 4.52855,1.77668 21.94412,1.77668 13.61637,0 18.59375,-0.25446 19.32847,-0.98816 2.17278,-2.16975 -0.75644,-2.69187 -17.60914,-3.1387 -9.29288,-0.24638 -17.586,-0.69648 -18.42917,-1.0002 -0.84316,-0.30372 2.53636,-0.76671 7.51004,-1.02887 12.69732,-0.66924 22.38628,-2.62403 25.3447,-5.11338 2.91862,-2.45584 2.81087,-5.27449 -0.28974,-7.57923 -3.16367,-2.35162 -14.37364,-2.77061 -23.91806,-0.89398 -8.78493,1.7273 -10.82525,1.30256 -13.55457,-2.82171 -2.89901,-4.3807 -3.08952,-8.49558 -1.07811,-23.28653 1.05751,-7.7765 1.8769,-18.89073 2.12725,-28.85436 0.34911,-13.89406 0.20271,-17.05167 -1.02624,-22.13486 -0.78839,-3.26093 -1.41061,-8.24128 -1.38271,-11.06742 0.0627,-6.35498 4.00665,-22.41464 8.42361,-34.30095 l 3.26376,-8.78296 0.0329,-15.02008 c 0.0181,-8.26105 -0.20665,-15.56828 -0.49941,-16.2383 -0.29277,-0.67003 -0.15952,-2.9661 0.2961,-5.10239 1.16219,-5.44913 -0.20602,-10.73305 -4.12234,-15.92018 -4.42816,-5.86505 -11.13189,-8.99683 -26.86742,-12.55166 -14.39974,-3.25305 -19.90678,-5.71804 -23.5182,-10.52688 -3.23146,-4.3029 -3.24869,-5.27128 -0.0645,-3.62466 4.64094,2.39992 15.15186,-0.62302 19.53867,-5.61932 5.16006,-5.877 6.34475,-16.495505 2.64804,-23.73474 -4.38542,-8.587936 -18.19967,-16.140477 -36.94475,-20.198481 -3.91312,-0.847128 -9.42707,-2.058629 -12.25322,-2.692224 -9.47342,-2.12385 -16.95524,-1.204696 -25.69224,3.156331 -6.10663,3.048091 -9.26522,5.659817 -13.4068,11.085583 -3.81888,5.002998 -4.79189,8.945192 -3.1607,12.8057 0.69563,1.646375 1.59339,6.116751 1.995,9.934181 0.68312,6.49324 2.71143,12.38965 4.68055,13.60663 0.50773,0.31379 0.61485,2.94149 0.29143,7.14904 -0.54747,7.12236 -0.68524,6.83401 3.72184,7.78947 1.30641,0.28323 2.93034,1.83407 4.56967,4.36397 1.39867,2.15853 3.67196,4.87451 5.05175,6.03553 2.12168,1.78528 3.04562,2.05042 5.9889,1.71868 2.87272,-0.3238 4.19429,-1.0975 7.57129,-4.43255 2.25011,-2.22217 4.34673,-4.04029 4.65915,-4.04029 1.18495,0 0.50099,5.96357 -1.05185,9.17129 -2.30751,4.76667 -4.57688,5.92293 -14.04629,7.15661 -9.8056,1.27748 -14.11466,3.31299 -19.84905,9.37626 -5.9121,6.25117 -6.34489,8.6258 -3.61399,19.82924 2.45175,10.05826 4.30687,14.38344 10.97276,25.58277 5.95374,10.00286 7.81325,15.04262 7.887,21.37589 0.0442,3.79477 -0.37817,5.96871 -1.61515,8.31351 -2.74582,5.20489 -12.92007,16.2167 -23.71795,25.67044 -20.33603,17.80454 -29.05071,30.97597 -30.93536,46.75594 -1.33389,11.16851 1.69398,28.47613 6.21404,35.52003 2.78006,4.33236 8.89001,10.27493 12.46519,12.12373 5.78925,2.99374 17.74201,3.75761 24.22616,1.54824 z"
     id="path1584" />
  <path
     style="fill:#1a2d2d;fill-opacity:1;stroke:#f0f0f0;stroke-width:1.58106"
     d="m 194.0367,356.49664 c -4.47832,-1.38021 -11.83688,-8.53293 -14.62475,-14.21563 -3.21854,-6.56056 -4.50104,-14.5054 -4.08057,-25.2783 0.75266,-19.28421 5.11209,-26.02446 34.47641,-53.30499 10.35762,-9.62261 16.91675,-17.19631 19.90265,-22.98119 1.46374,-2.83584 1.82532,-4.75997 1.78268,-9.48637 -0.064,-7.08964 -1.83216,-12.20252 -7.79166,-22.53012 -5.87947,-10.18889 -7.82346,-14.24121 -10.04979,-20.94906 -3.79581,-11.43662 -3.62309,-14.79813 1.03282,-20.10092 4.09182,-4.66032 8.40788,-6.72967 15.79291,-7.57195 7.45245,-0.84997 11.29644,-1.94225 14.33539,-4.07344 2.63218,-1.84593 6.97449,-10.35264 6.96151,-13.63782 -0.0108,-2.74013 -4.33711,-13.18045 -7.02727,-16.95844 -1.62706,-2.28499 -1.66583,-2.59905 -0.52241,-4.23151 2.75848,-3.93827 0.38715,-14.90236 -3.72,-17.19984 -1.93362,-1.08164 -2.38724,-1.0823 -4.33364,-0.006 -1.19568,0.661 -2.74353,2.33453 -3.43967,3.71895 l -1.2657,2.51709 -0.99883,-4.46323 c -0.66588,-2.97548 -1.76306,-5.22745 -3.29152,-6.755915 -2.0672,-2.067204 -2.71928,-2.266129 -6.63002,-2.022577 -5.10289,0.317797 -5.34307,-0.242698 -2.31682,-5.4066 3.59627,-6.136577 15.7873,-14.051587 23.16751,-15.041481 4.21276,-0.56505 9.9035,2.157798 16.14906,7.72684 7.74001,6.901615 7.9467,7.610474 8.51311,29.197233 0.54736,20.86058 0.56912,20.96128 6.89936,31.92343 2.25895,3.91184 4.48451,8.98859 5.02504,11.46269 0.59538,2.72514 0.99044,11.31322 1.02251,22.22791 l 0.0522,17.78693 -3.39738,9.88164 c -3.80619,11.07067 -8.59612,20.48195 -18.70909,36.75966 -3.78177,6.08709 -8.80945,14.99353 -11.17262,19.7921 -3.67414,7.46059 -4.41885,9.75134 -5.13996,15.81061 -3.26797,27.45985 -6.92609,38.46812 -17.54027,52.78347 -5.5216,7.44698 -16.36116,18.89564 -20.0473,21.17379 -1.51719,0.93768 -2.65117,2.2872 -2.65117,3.1551 0,1.79078 -1.31927,1.85261 -6.36277,0.29819 z"
     id="path1586" />
  <path
     style="fill:#1a2d2d;fill-opacity:1;stroke:#f0f0f0;stroke-width:1.58106"
     d="m 212.3054,351.28797 c 18.93405,-18.5563 28.78085,-37.21103 31.59474,-59.85617 2.33097,-18.75875 2.13946,-18.01002 7.09054,-27.72123 2.60088,-5.10147 8.32172,-15.10292 12.71297,-22.22545 4.39126,-7.12252 8.97905,-14.92276 10.19509,-17.33385 3.1126,-6.17147 6.63258,-16.48893 8.72791,-25.58246 1.62716,-7.06176 1.74932,-9.08807 1.35825,-22.53012 -0.48849,-16.7901 -1.8164,-24.42713 -5.34284,-30.72751 -1.29342,-2.31082 -3.43285,-6.13452 -4.75431,-8.49712 -1.42721,-2.55167 -2.59124,-6.0018 -2.86719,-8.4982 l -0.46454,-4.20258 2.27429,3.29735 c 4.48499,6.50251 8.60089,8.55151 25.23077,12.56053 19.45177,4.68931 24.53866,7.26778 27.68969,14.03553 1.04976,2.25467 1.90866,5.16662 1.90866,6.47099 0,2.97617 -2.71951,8.85842 -8.16684,17.66466 -5.94554,9.61169 -7.25294,12.35276 -12.06008,25.2851 -2.33526,6.28239 -5.70499,14.12979 -7.48829,17.43867 -4.41346,8.18907 -13.67187,21.21484 -20.8519,29.33678 -3.26713,3.69573 -6.54233,7.9646 -7.27823,9.48637 -2.12207,4.38821 -1.62797,9.23576 1.70324,16.71036 1.6203,3.63565 4.36667,9.81193 6.10304,13.72506 4.68399,10.55593 6.21378,17.36281 6.39593,28.4591 0.17441,10.6243 -0.66227,13.44803 -6.23336,21.03739 -6.02143,8.20283 -19.27658,14.93174 -29.41372,14.93174 -8.31166,0 -12.34882,-1.73338 -18.18805,-7.80917 -5.44807,-5.66879 -6.57656,-5.82461 -8.75586,-1.20901 -2.51906,5.33521 -10.21196,11.42378 -15.91106,12.59288 -2.64256,0.54208 -2.42731,0.2348 4.79115,-6.83964 z"
     id="path1588" />
  <path
     style="fill:#1a2d2d;fill-opacity:1;stroke:#f0f0f0;stroke-width:1.11798"
     d="m 279.07548,117.1201 -1.53722,-1.21093 v -10.83221 c 0,-14.857852 -0.66141,-17.541209 -5.91264,-23.987647 -3.24814,-3.98743 -2.90633,-3.933506 7.31012,1.15325 12.83058,6.388332 17.12247,10.380632 17.90661,16.656658 1.32613,10.614039 -3.73124,17.778789 -13.45751,19.065169 -2.33817,0.30924 -3.01278,0.17707 -4.30936,-0.84429 z"
     id="path1590" />
  <path
     style="fill:#1a2d2d;fill-opacity:1;stroke:#f0f0f0;stroke-width:1.11798"
     d="m 229.91907,140.70529 c -1.05168,-1.16409 -2.73318,-3.55155 -3.73667,-5.30546 -2.07594,-3.62836 -3.5561,-4.87579 -5.78544,-4.87579 -1.81646,0 -1.81523,0.0102 -0.67369,-5.62347 0.78511,-3.87469 0.78904,-4.51131 0.0369,-5.96588 -0.46313,-0.89558 -1.25253,-1.96901 -1.75424,-2.38539 -0.50171,-0.41638 -1.30298,-1.51273 -1.78059,-2.43633 -1.09697,-2.12131 -1.91429,-8.50906 -1.29662,-10.13367 0.58474,-1.53799 3.24726,-2.67517 6.26346,-2.67517 2.75775,0 3.49474,0.81374 4.69449,5.18336 2.15397,7.84498 3.62081,9.96151 7.33956,10.59041 1.95061,0.32987 2.0983,0.48673 1.97376,2.09635 -0.0961,1.24268 0.42596,2.51381 1.82722,4.44859 6.44495,8.89879 6.66193,10.14397 2.61501,15.00654 -3.8971,4.68257 -6.80689,5.30382 -9.72311,2.07591 z"
     id="path1592" />
  <path
     style="fill:#1a2d2d;fill-opacity:1;stroke:#f0f0f0;stroke-width:0.395265"
     d="m 271.35885,108.15445 c -0.16402,-0.57067 -0.43581,-2.86073 -0.60399,-5.08904 -0.76775,-10.172728 -2.32463,-14.238589 -7.47546,-19.522438 -2.33123,-2.391436 -5.91626,-5.631866 -7.99956,-7.230635 -0.68601,-0.526459 -1.20314,-1.001343 -1.14919,-1.055298 0.30698,-0.306972 4.43695,1.564217 7.67909,3.479201 9.22743,5.450227 12.48673,12.022926 11.61954,23.43192 -0.45891,6.03759 -1.33097,8.55901 -2.07043,5.98629 z"
     id="path1594" />
  <path
     style="fill:#1a2d2d;fill-opacity:1;stroke:#f0f0f0;stroke-width:0.395265"
     d="m 238.98045,118.01323 -1.34081,-0.42182 -0.2863,-0.98817 c -0.72536,-2.50355 -0.91611,-6.52478 -0.3644,-7.68174 0.17814,-0.37356 0.54238,-0.77875 0.80942,-0.90042 0.43438,-0.19792 0.56361,-0.1427 1.22686,0.52427 0.43095,0.43337 0.92814,1.24195 1.18753,1.93128 1.15042,3.05729 1.32988,7.69786 0.30614,7.91626 -0.1087,0.0232 -0.80099,-0.14766 -1.53844,-0.37966 z"
     id="path1596" />
  <path
     style="fill:#1a2d2d;fill-opacity:1;stroke:#f0f0f0;stroke-width:0.395265"
     d="m 211.36808,93.516098 c 0,-3.131176 0.85722,-4.533328 5.92446,-9.690674 3.99444,-4.065477 6.41037,-6.142946 8.84625,-7.606957 1.62385,-0.975961 4.07765,-1.901492 5.6078,-2.115164 l 0.867,-0.121068 -0.49408,0.414054 c -0.27175,0.22773 -2.33913,1.575244 -4.59418,2.994477 -8.59929,5.412015 -10.75121,7.588252 -14.10196,14.261359 -0.91422,1.820691 -1.75066,3.310347 -1.85875,3.310347 -0.11239,0 -0.19654,-0.619272 -0.19654,-1.446374 z"
     id="path1598" />
</svg>
