<svg xmlns="http://www.w3.org/2000/svg" width="868.1" height="179" preserveAspectRatio="xMidYMid" viewBox="0 0 868.1 179"><defs><filter id="a" width="1.022" height="1.107" x="-.011" y="-.054" style="color-interpolation-filters:sRGB"><feGaussianBlur stdDeviation="40.015"/></filter></defs><g fill="#2bb5b8" class="logo-paths" style="fill:#011f20;fill-opacity:1;filter:url(#a)" transform="matrix(.1 0 0 -.1 2 181)"><path d="M5066 849c-302-730-323-785-305-793 12-6 23-6 28 0 4 5 136 318 292 697 156 378 286 687 289 687s147-324 319-720C5862 324 6006 0 6009 0c4 0 14 6 23 13 13 10-24 102-308 752-178 407-324 745-324 752 0 12 49 133 60 145 3 4 158-356 345-800 186-444 341-810 345-815 3-4 14-1 25 6 17 13-3 63-344 874l-367.63 858.613C5314.419 1445.244 5179.51 1121.793 5066 849m1274 76V60h23c12 0 144 16 292 35 318 41 433 71 574 148 121 67 243 192 296 302 47 99 75 217 75 313 0 137-71 341-159 461-56 76-165 183-231 228-59 40-192 106-255 126-45 15-572 117-602 117-10 0-13-180-13-865m-3335 815c-362-38-663-247-790-549-40-95-69-271-61-371 16-191 137-433 288-576C2634 63 2817 4 3160 11l165 4 41.81 26.573L3403 75l-6 170c-4 93-7 270-7 393v222h-53l6-384 6-384-34-16c-50-24-339-22-460 3-242 50-439 209-560 451-90 179-111 312-77 486 64 322 273 539 617 639 136 39 257 50 358 31 105-20 104-20 110 4 4 16-2 22-31 29-47 13-162 31-182 30-8-1-47-5-85-9M0 1010V310l36-71C83 145 138 87 218 48c55-28 78-33 156-36 75-3 101 0 149 18 74 28 163 110 205 188l32 60v1432h-50V285l-29-51C643 168 562 96 503 76c-26-9-77-16-114-16-132 0-235 63-300 182l-34 63-5 700-5 700-22 3-23 3zm7790-135V40h891l-3 23-3 22-417 3-418 2v720h480v50h-240c-207 0-240 2-240 15s33 15 240 15h240v50h-480v720l418 2c409 3 417 3 417 23s-8 20-442 23l-443 2zm-6515 819c-16-2-54-7-82-10l-53-5V30h50v1608l118 7c220 14 403-11 513-72 66-36 124-100 162-181 30-62 32-75 32-172 0-94-3-111-28-161-52-107-158-179-292-199-39-5-141-10-227-10h-158V30h50v770h129c259 0 380 37 479 145 75 82 96 144 97 280 0 106-1 113-37 187-94 198-253 277-568 283-85 2-168 1-185-1m2500-23q-70.5-6-69-18c1-7 2-371 3-809l1-795 23 3 22 3 3 782 2 781 88 8c108 9 315-2 403-20 183-39 280-150 310-350 25-167-58-316-209-376-51-21-79-24-282-29-224-6-225-6-228-28s0-23 61-23h64l259-390c142-214 262-390 265-390s12 6 21 13c14 10-16 59-233 387-136 206-244 377-238 378 5 2 16 2 23-1s120-169 251-369c131-199 244-370 251-378 12-12 16-12 30 1 14 15-7 50-224 380l-238 364 35 3c162 12 272 53 340 127 51 55 77 108 97 192 13 57 14 81 4 148-28 194-119 313-284 371-99 36-347 51-551 35M3200 490V90h50v800h-50z" style="fill:#011f20;fill-opacity:1"/></g><g fill="#2bb5b8" class="logo-paths" style="stroke:#f7f7f7;stroke-opacity:1"><path d="M5066 849c-302-730-323-785-305-793 12-6 23-6 28 0 4 5 136 318 292 697 156 378 286 687 289 687s147-324 319-720C5862 324 6006 0 6009 0c4 0 14 6 23 13 13 10-24 102-308 752-178 407-324 745-324 752 0 12 49 133 60 145 3 4 158-356 345-800 186-444 341-810 345-815 3-4 14-1 25 6 17 13-3 63-344 874l-367.63 858.613C5314.419 1445.244 5179.51 1121.793 5066 849Zm1274 76V60h23c12 0 144 16 292 35 318 41 433 71 574 148 121 67 243 192 296 302 47 99 75 217 75 313 0 137-71 341-159 461-56 76-165 183-231 228-59 40-192 106-255 126-45 15-572 117-602 117-10 0-13-180-13-865zm-3335 815c-362-38-663-247-790-549-40-95-69-271-61-371 16-191 137-433 288-576C2634 63 2817 4 3160 11l165 4 41.81 26.573L3403 75l-6 170c-4 93-7 270-7 393v222h-53l6-384 6-384-34-16c-50-24-339-22-460 3-242 50-439 209-560 451-90 179-111 312-77 486 64 322 273 539 617 639 136 39 257 50 358 31 105-20 104-20 110 4 4 16-2 22-31 29-47 13-162 31-182 30-8-1-47-5-85-9zM0 1010V310l36-71C83 145 138 87 218 48c55-28 78-33 156-36 75-3 101 0 149 18 74 28 163 110 205 188l32 60v1432h-50V285l-29-51C643 168 562 96 503 76c-26-9-77-16-114-16-132 0-235 63-300 182l-34 63-5 700-5 700-22 3-23 3zm7790-135V40h891l-3 23-3 22-417 3-418 2v720h480v50h-240c-207 0-240 2-240 15s33 15 240 15h240v50h-480v720l418 2c409 3 417 3 417 23s-8 20-442 23l-443 2zm-6515 819c-16-2-54-7-82-10l-53-5V30h50v1608l118 7c220 14 403-11 513-72 66-36 124-100 162-181 30-62 32-75 32-172 0-94-3-111-28-161-52-107-158-179-292-199-39-5-141-10-227-10h-158V30h50v770h129c259 0 380 37 479 145 75 82 96 144 97 280 0 106-1 113-37 187-94 198-253 277-568 283-85 2-168 1-185-1zm2500-23q-70.5-6-69-18c1-7 2-371 3-809l1-795 23 3 22 3 3 782 2 781 88 8c108 9 315-2 403-20 183-39 280-150 310-350 25-167-58-316-209-376-51-21-79-24-282-29-224-6-225-6-228-28s0-23 61-23h64l259-390c142-214 262-390 265-390s12 6 21 13c14 10-16 59-233 387-136 206-244 377-238 378 5 2 16 2 23-1s120-169 251-369c131-199 244-370 251-378 12-12 16-12 30 1 14 15-7 50-224 380l-238 364 35 3c162 12 272 53 340 127 51 55 77 108 97 192 13 57 14 81 4 148-28 194-119 313-284 371-99 36-347 51-551 35zM3200 490V90h50v800h-50z" style="stroke:#fafafa;stroke-opacity:1;stroke-width:6;stroke-dasharray:none;opacity:.97910212" transform="matrix(.1 0 0 -.1 0 179)"/></g></svg>