<?xml version="1.0" encoding="UTF-8" standalone="no"?>
<svg
   version="1.0"
   width="468.20737"
   height="445.98087"
   viewBox="0 -15 468.20737 445.98087"
   preserveAspectRatio="xMidYMid"
   id="svg6"
   sodipodi:docname="logo2.svg"
   inkscape:version="1.2.2 (b0a8486541, 2022-12-01)"
   xmlns:inkscape="http://www.inkscape.org/namespaces/inkscape"
   xmlns:sodipodi="http://sodipodi.sourceforge.net/DTD/sodipodi-0.dtd"
   xmlns:xlink="http://www.w3.org/1999/xlink"
   xmlns="http://www.w3.org/2000/svg"
   xmlns:svg="http://www.w3.org/2000/svg">
  <sodipodi:namedview
     id="namedview6"
     pagecolor="#ffffff"
     bordercolor="#000000"
     borderopacity="0.25"
     inkscape:showpageshadow="2"
     inkscape:pageopacity="0.0"
     inkscape:pagecheckerboard="0"
     inkscape:deskcolor="#d1d1d1"
     showgrid="false"
     inkscape:zoom="1.2224276"
     inkscape:cx="243.3682"
     inkscape:cy="250.32157"
     inkscape:window-width="1920"
     inkscape:window-height="940"
     inkscape:window-x="0"
     inkscape:window-y="32"
     inkscape:window-maximized="1"
     inkscape:current-layer="svg6" />
  <defs
     id="defs10">
    <filter
       inkscape:collect="always"
       style="color-interpolation-filters:sRGB"
       id="filter859"
       x="-0.011704639"
       y="-0.012710802"
       width="1.0234093"
       height="1.0254216">
      <feGaussianBlur
         inkscape:collect="always"
         stdDeviation="22.919854"
         id="feGaussianBlur861" />
    </filter>
  </defs>
  <g
     class="logo-paths"
     transform="matrix(0.1,0,0,-0.1,-188.6929,592.75148)"
     fill="#2bb5b8"
     stroke="none"
     id="g857"
     style="fill:#000000;fill-opacity:1;filter:url(#filter859)">
    <path
       sodipodi:type="inkscape:offset"
       inkscape:radius="8.8433161"
       inkscape:original="M 5408.1699 1637.707 C 5408.1699 1637.707 4597 1971 3645 2366 C 2693 2760 1911 3086 1907 3090 C 1902 3094 2162 3734 2485 4511 C 2808 5289 3075 5931 3077 5938 C 3080 5945 3088 5949 3094 5947 C 3204 5902 6586 4497 6589 4494 C 6590 4493 6340 3883 6031 3139 L 5470 1788 L 5408.1699 1637.707 z M 5386 1676 C 5396 1675 6551 4462 6546 4475 C 6544 4480 5774 4804 4834 5194 C 3894 5584 3118 5905 3110 5907 C 3099 5910 2957 5578 2518 4518 C 2200 3752 1940 3120 1940 3114 C 1940 3106 5356 1680 5386 1676 z M 3953.375 2325.25 C 3914 2324.5 3871.5 2329 3837 2339 C 3781 2355 3706 2421 3667 2490 C 3638 2540 3610 2678 3610 2769 C 3610 2940 3710 3113 3898 3269 C 4004 3356 4103 3459 4154 3534 C 4205 3610 4185 3722 4095 3861 C 4034 3956 4026 3973 3996 4077 C 3957 4215 3961 4240 4042 4316 C 4101 4373 4132 4386 4223 4393 C 4317 4400 4344 4415 4371 4476 C 4389 4519 4389 4570 4370 4570 C 4366 4570 4346 4550 4326 4526 C 4296 4489 4284 4481 4249 4478 C 4211 4475 4205 4478 4173 4515 C 4154 4537 4133 4565 4127 4578 C 4121 4591 4108 4600 4095 4600 C 4056 4600 4047 4622 4059 4681 C 4069 4728 4068 4735 4052 4754 C 4025 4783 4010 4834 4010 4894 C 4009 4922 4003 4956 3995 4970 C 3973 5008 3977 5041 4008 5091 C 4054 5163 4135 5222 4220 5246 C 4283 5263 4368 5263 4426 5245 C 4453 5236 4513 5223 4558 5215 C 4649 5200 4800 5132 4853 5082 C 4937 5003 4944 4862 4868 4783 C 4820 4733 4716 4707 4674 4735 C 4642 4756 4641 4734 4672 4694 C 4719 4633 4756 4616 4909 4585 C 5060 4554 5119 4529 5169 4475 C 5219 4420 5236 4364 5220 4302 C 5213 4272 5212 4255 5219 4251 C 5225 4247 5226 4231 5221 4209 C 5217 4190 5217 4141 5222 4100 C 5234 4005 5226 3941 5193 3865 C 5162 3793 5113 3607 5104 3527 C 5099 3483 5102 3459 5116 3422 C 5143 3352 5141 3125 5111 2911 C 5085 2729 5087 2694 5125 2644 C 5155 2605 5177 2602 5267 2625 C 5368 2652 5491 2638 5516 2598 C 5531 2574 5509 2542 5468 2527 C 5420 2510 5273 2490 5189 2490 C 5146 2489 5139 2487 5153 2479 C 5164 2472 5244 2468 5351 2467 C 5482 2466 5531 2462 5534 2453 C 5543 2432 5499 2426 5333 2428 C 5158 2429 5131 2435 5071 2485 C 5041 2511 5039 2515 5056 2521 C 5067 2525 5113 2529 5160 2529 C 5264 2530 5401 2545 5448 2561 C 5481 2572 5482 2574 5465 2586 C 5439 2605 5332 2604 5256 2583 C 5165 2559 5126 2569 5090 2627 C 5073 2653 5057 2689 5054 2708 C 5050 2726 5057 2812 5070 2898 C 5082 2985 5095 3116 5097 3190 C 5102 3309 5100 3334 5080 3403 C 5064 3462 5060 3495 5065 3533 C 5076 3616 5127 3815 5148 3857 C 5184 3928 5192 3976 5184 4092 L 5177 4201 L 5142 4153 C 5099 4093 5060 4010 5019 3889 C 5002 3837 4977 3774 4964 3748 C 4921 3662 4802 3494 4731 3417 C 4634 3312 4633 3303 4704 3149 C 4790 2965 4810 2894 4813 2770 C 4815 2671 4813 2661 4784 2600 C 4740 2510 4693 2459 4612 2417 C 4509 2363 4436 2346 4358 2360 C 4284 2374 4245 2393 4207 2434 C 4179 2463 4178 2463 4167 2445 C 4151 2415 4092 2363 4051 2343 C 4029 2332 3992.75 2326 3953.375 2325.25 z M 3970.8555 2361.2168 C 4027.6804 2361.7185 4120.375 2426.875 4141 2485 C 4159 2533 4183 2535 4212 2492 C 4243 2443 4290 2414 4356 2400 C 4423 2386 4482 2397 4573 2440 C 4650 2476 4706 2530 4745 2607 C 4773 2662 4775 2671 4773 2769 C 4771 2892 4746 2978 4670 3130 C 4590 3291 4593 3329 4696 3436 C 4733 3474 4801 3563 4848 3634 C 4915 3735 4941 3785 4970 3869 C 5025 4028 5048 4076 5112 4174 C 5181 4279 5197 4328 5181 4382 C 5154 4472 5094 4507 4895 4550 C 4746 4582 4687 4609 4646 4663 C 4633 4680 4620 4704 4617 4715 C 4615 4726 4612 4715 4612 4690 C 4611 4634 4627 4587 4668 4531 C 4719 4461 4737 4385 4745 4210 C 4751 4069 4750 4046 4730 3960 C 4689 3789 4656 3716 4540 3535 C 4497 3469 4439 3368 4410 3310 C 4358 3207 4357 3203 4350 3090 C 4341 2947 4292 2790 4221 2676 C 4157 2573 4059 2457 3994 2407 C 3950 2373 3944 2364 3960 2362 C 3963.4375 2361.4375 3967.0671 2361.1833 3970.8555 2361.2168 z M 3905.125 2363.6875 C 3915.0625 2362.9375 3916 2367.25 3913 2380 C 3910 2391 3912 2400 3917 2400 C 3948 2400 4092 2550 4167 2660 C 4249 2782 4299 2933 4310 3095 C 4318 3213 4319 3215 4374 3325 C 4404 3385 4461 3485 4501 3545 C 4587 3677 4640 3784 4677 3905 C 4703 3990 4705 4005 4703 4171 C 4702 4374 4691 4427 4633 4511 C 4577 4593 4569 4633 4572 4810 C 4574 4913 4570 4979 4562 5007 C 4547 5057 4489 5118 4415 5161 C 4356 5195 4321 5197 4260 5169 C 4149 5119 4081 5056 4064 4987 C 4058 4960 4059 4959 4077 4971 C 4102 4986 4162 4976 4184 4952 C 4193 4942 4204 4912 4209 4886 C 4218 4836 4230 4814 4230 4846 C 4230 4880 4259 4910 4291 4910 C 4317 4910 4324 4904 4340 4868 C 4364 4815 4366 4757 4344 4735 C 4330 4721 4329 4717 4342 4702 C 4371 4668 4422 4555 4422 4523 C 4422 4484 4384 4414 4349 4388 C 4318 4365 4261 4351 4197 4350 C 4124 4350 4030 4280 4014 4213 C 4000 4158 4055 3993 4124 3887 C 4220 3738 4244 3626 4199 3537 C 4165 3472 4045 3341 3931 3246 C 3690 3045 3617 2874 3664 2627 C 3682 2535 3699 2501 3757 2439 C 3799 2394 3823 2381 3892 2366 C 3897.5 2364.75 3901.8125 2363.9375 3905.125 2363.6875 z M 4243.0801 4514.0234 C 4260.946 4515.054 4281.125 4529.75 4307 4559 C 4347 4604 4344 4637 4293 4694 C 4268 4721 4259 4739 4263 4756 C 4267 4777 4263 4780 4240 4780 C 4206 4780 4183 4812 4171 4876 C 4166 4902 4156 4926 4149 4931 C 4130 4943 4100 4941 4071 4927 C 4050 4917 4048 4911 4052 4863 C 4056 4822 4063 4803 4085 4780 C 4113 4750 4114 4744 4094 4666 C 4089 4643 4091 4640 4114 4640 C 4133 4640 4144 4631 4160 4603 C 4171 4582 4190 4552 4204 4536 C 4216.6875 4520.6875 4229.1843 4513.2219 4243.0801 4514.0234 z M 4311.5625 4762.4062 C 4317.75 4763.0625 4320 4770.75 4320 4788 C 4320 4805 4316 4830 4310 4844 C 4299 4873 4282 4878 4274 4855 C 4268 4840 4277 4770 4285 4770 C 4287 4770 4295 4767 4304 4764 C 4307 4762.75 4309.5 4762.1875 4311.5625 4762.4062 z M 4719.7344 4763.4336 C 4727.4688 4763.2344 4736.75 4764.125 4748 4766 C 4838 4780 4880 4833 4880 4932 C 4880 5011 4851 5047 4738 5108 C 4687 5136 4632 5162 4615 5166 L 4585 5173 L 4617 5139 C 4668 5085 4683 5038 4680 4940 C 4675 4802 4676 4790 4692 4774 C 4698.25 4767.125 4706.8438 4763.7656 4719.7344 4763.4336 z M 4627.25 4853.875 C 4633 4856.25 4639 4879 4642 4921 C 4651 5040 4621 5103 4531 5158 C 4505 5174 4473 5190 4459 5194 C 4437 5201 4437 5199 4465 5179 C 4482 5166 4516 5135 4541 5110 C 4591 5059 4609 5010 4614 4909 C 4616 4869.5 4621.5 4851.5 4627.25 4853.875 z M 4022.0098 4995.2383 C 4024.5938 4994.5703 4030.5 5006.875 4044 5035 C 4072 5094 4104 5125 4185 5174 C 4218 5194 4241 5210 4235 5209 C 4189 5205 4148 5181 4088 5120 C 4031 5063 4020 5047 4020 5019 C 4020 5004.125 4020 4995.7578 4022.0098 4995.2383 z "
       xlink:href="#path2"
       id="path853"
       inkscape:href="#path2"
       d="m 5404.8086,1629.5273 c 0,0 -811.1813,333.2981 -1763.1973,728.3047 -476.0024,197.001 -909.5044,377.0028 -1224.5117,508.2559 -157.5046,65.6269 -285.3859,119.0662 -374.1504,156.3535 -44.3822,18.6437 -78.9828,33.2483 -102.6347,43.3262 -11.826,5.0389 -20.9105,8.9442 -27.1407,11.6699 -3.1151,1.3629 -5.5095,2.4269 -7.2265,3.2148 -0.8585,0.394 -1.5386,0.7124 -2.1289,1.0059 -0.2952,0.1467 -0.5589,0.2808 -0.8985,0.4707 -0.2783,0.1557 -0.5371,0.1627 -1.5722,1.0957 -3.575,2.9438 -3.1739,5.3422 -3.2422,6.4316 -0.069,1.1065 0.021,1.6693 0.092,2.1876 0.141,1.0365 0.3247,1.7666 0.5507,2.6269 0.4521,1.7207 1.1001,3.7778 1.9864,6.4219 1.7726,5.2881 4.4876,12.7959 8.1367,22.5449 7.2983,19.498 18.3161,47.8865 32.6855,84.2637 28.739,72.7543 70.8707,177.4258 123.252,306.2539 104.7627,257.6561 250.5179,611.9214 412.0254,1000.4394 161.4998,388.9996 308.9993,743.9992 416.373,1002.6211 53.6871,129.3115 97.3443,234.5294 127.7012,307.8516 15.1785,36.6611 27.0323,65.35 35.1504,85.082 4.059,9.866 7.1833,17.4942 9.3184,22.7481 1.0675,2.6269 1.8892,4.6621 2.4472,6.0664 0.558,1.4042 1.1681,3.4025 0.6719,1.666 a 8.8442004,8.8442004 0 0 0 0.375,1.0547 c 4.7618,11.1108 16.3328,17.7686 27.9258,13.9043 a 8.8442004,8.8442004 0 0 0 0.5508,-0.2032 c 55.4558,-22.6864 928.0452,-385.0188 1787.6718,-742.2695 429.8134,-178.6253 856.2827,-355.9384 1175.4883,-488.7832 159.6028,-66.4224 292.3878,-121.7265 385.3711,-160.5215 46.4917,-19.3975 83.0323,-34.6684 108.0039,-45.1386 12.4858,-5.2352 22.0789,-9.2698 28.5879,-12.0254 3.2545,-1.3778 5.7342,-2.4336 7.4414,-3.17 0.8536,-0.3681 1.5083,-0.6538 2.0078,-0.8769 0.2498,-0.1115 0.4528,-0.2029 0.6836,-0.3125 0.2309,-0.1096 -2.727,3.5434 2.6504,-1.834 0,-0 2.568,-7.1505 2.4688,-7.7461 -0.099,-0.5955 -0.1688,-0.8067 -0.2247,-1.0078 -0.1116,-0.4023 -0.1839,-0.6084 -0.2656,-0.8477 -0.1633,-0.4785 -0.3472,-0.9792 -0.5898,-1.625 -0.4852,-1.2915 -1.1868,-3.1007 -2.1211,-5.4746 -1.8686,-4.7477 -4.6576,-11.726 -8.334,-20.8515 -7.3528,-18.251 -18.2474,-45.0737 -32.3125,-79.5567 -28.1302,-68.966 -68.9431,-168.565 -119.4453,-291.3828 -101.0042,-245.6351 -240.7578,-584.1429 -395.2617,-956.1523 l -0,-0 -560.9941,-1350.9863 -61.8242,-150.2793 a 8.8442004,8.8442004 0 0 0 -11.5391,-4.8145 z m -23.0234,57.2618 c 0.1808,0.3781 0.2464,0.4821 0.4414,0.8945 2.4161,5.1125 5.9272,12.8751 10.416,23.0215 8.9774,20.2928 21.8873,50.1679 38.1445,88.2187 32.5143,76.1017 78.4298,184.9276 133.2305,315.5899 109.6013,261.3245 254.7536,610.0047 399.4375,959.1211 144.6839,349.1163 288.9004,698.6734 396.6269,961.748 53.8633,131.5373 98.6058,241.4566 129.7149,318.8711 15.5545,38.7073 27.7019,69.2939 35.8633,90.3535 4.0806,10.5298 7.169,18.6898 9.1621,24.2168 0.2672,0.741 0.3429,1.0147 0.5703,1.6602 -0.854,0.3995 -1.2702,0.6154 -2.3086,1.0918 -5.8865,2.7004 -14.6944,6.6171 -26.211,11.6562 -23.033,10.0782 -56.9331,24.6619 -100.498,43.2422 -87.1298,37.1606 -212.9343,90.3141 -368.0508,155.4981 -310.2329,130.3678 -737.7241,308.864 -1207.7129,503.8593 -469.9976,194.999 -898.9969,372.7481 -1211.4922,501.9961 -156.2476,64.6241 -283.3693,117.1225 -371.9238,153.5879 -44.2772,18.2327 -78.9134,32.4573 -102.7187,42.1817 -11.9027,4.8621 -21.1009,8.6014 -27.4258,11.1464 -1.975,0.7947 -3.1493,1.2562 -4.5547,1.8145 -1.3724,-2.1393 -2.966,-4.7218 -5.2832,-9.0664 -5.6279,-10.5518 -13.7603,-27.3316 -24.584,-50.8867 -21.6473,-47.1102 -54.1336,-121.4206 -99.9941,-228.9493 -91.7212,-215.0573 -236.969,-563.0489 -456.4649,-1093.039 a 8.8442004,8.8442004 0 0 0 -0,-0.01 c -158.997,-382.9928 -303.4952,-732.4865 -408.2403,-986.9746 -52.3725,-127.2441 -94.8085,-230.7397 -124.1445,-302.7832 -14.668,-36.0218 -26.061,-64.1837 -33.7773,-83.5 -3.8582,-9.6582 -6.7993,-17.1098 -8.7559,-22.1895 -0.1297,-0.3367 -0.1661,-0.4497 -0.2871,-0.7656 0.9222,-0.4259 1.3679,-0.6509 2.4902,-1.1602 6.3808,-2.8949 15.9533,-7.1177 28.4453,-12.5508 24.9841,-10.8661 61.6829,-26.5925 108.4043,-46.4707 93.4429,-39.7562 226.9905,-96.1275 387.3438,-163.5625 320.7066,-134.8699 748.6403,-313.9945 1177.5097,-492.9921 428.8695,-178.9977 858.6766,-357.8705 1183.1329,-492.2403 162.2281,-67.1849 298.122,-123.2435 394.3769,-162.625 48.1275,-19.6907 86.3488,-35.2139 112.9746,-45.8633 13.3129,-5.3246 23.7311,-9.4335 31,-12.2207 2.2089,-0.8469 3.5344,-1.325 5.1446,-1.9218 z m -1443.4239,629.582 c -35.6454,0.4938 -72.5745,5.081 -103.791,14.125 -0.01,0 -0.01,0 -0.016,0.01 -0.01,0 -0.012,0 -0.018,0 -60.1513,17.2023 -135.0041,83.9987 -175.2051,155.0918 -15.6443,26.9911 -29.651,74.1605 -40.373,126.7617 -10.7263,52.6218 -17.8027,110.2336 -17.8028,156.6406 0,174.4477 101.9107,349.7371 291.1973,506.8047 a 8.8442004,8.8442004 0 0 0 0.035,0.031 c 105.4222,86.5258 204.1363,189.3858 254.2695,263.0957 24.08,35.8862 31.5896,80.1638 22.0137,133.377 -9.5763,53.215 -36.5222,115.0435 -81.0957,183.8848 a 8.8442004,8.8442004 0 0 0 -0.018,0.029 c -61.0692,95.1078 -70.0098,114.1704 -100.0547,218.3261 a 8.8442004,8.8442004 0 0 0 -0.014,0.047 c -19.5595,69.2106 -28.9582,111.0102 -22.1797,146.8008 6.7731,35.7615 29.8068,62.7308 70.545,100.9629 59.63,57.6086 94.7851,72.4046 186.4668,79.457 a 8.8442004,8.8442004 0 0 0 0.021,0 c 46.596,3.4699 75.6338,9.0452 95.4609,20.1484 19.799,11.0875 31.9073,27.8253 45.0527,57.4941 8.5065,20.3396 12.7883,43.0073 12.6738,59.6036 -0.057,8.3043 -1.3254,15.0892 -2.9277,18.7441 -0.7363,1.6795 -1.135,2.3783 -1.4746,2.7988 -0.4391,-0.3222 -0.6865,-0.4661 -1.2793,-0.9512 -2.366,-1.9358 -5.726,-5.0404 -9.5957,-8.9101 -7.7394,-7.7395 -17.6156,-18.5938 -27.4609,-30.4082 -15.125,-18.6486 -26.1146,-30.6477 -38.709,-38.5723 -12.617,-7.9387 -26.2474,-11.0264 -44.3281,-12.5761 a 8.8442004,8.8442004 0 0 0 -0.061,-0.01 c -19.267,-1.5211 -32.3316,-1.7239 -44.8223,4.3691 -12.4906,6.0931 -22.4609,17.0447 -38.5625,35.6621 a 8.8442004,8.8442004 0 0 0 -0,0.01 c -19.3192,22.3696 -40.0705,49.3325 -47.3359,65.0742 -4.6141,9.9972 -15.0522,16.8614 -23.9707,16.8613 -10.5814,0 -19.7773,1.4332 -27.6309,5.25 -7.8536,3.8169 -14.0464,10.2995 -17.5976,18.4278 -7.1024,16.2565 -5.5664,37.7942 0.5625,67.9277 a 8.8442004,8.8442004 0 0 0 0.016,0.078 c 4.9689,23.3539 6.8925,36.3703 6.1016,44.2793 -0.7909,7.9091 -3.5011,12.0235 -11.2149,21.1836 l 0.291,-0.3281 c -29.4104,31.589 -44.3711,84.5515 -44.3711,146.0254 l 0.01,-0.3164 c -0.482,13.4971 -2.1914,28.6495 -4.7226,41.9082 -2.5313,13.2587 -6.1747,24.8721 -9.1172,30.0215 -11.6541,20.1464 -16.8241,40.1807 -14.4864,61.3574 2.3395,21.1927 11.7791,43.0937 27.6485,68.6895 a 8.8442004,8.8442004 0 0 0 0.062,0.1015 c 47.3557,74.122 129.8172,134.1174 217.0508,158.7481 a 8.8442004,8.8442004 0 0 0 0.098,0.027 c 64.9316,17.5212 150.5899,17.6332 210.9258,-1.0918 a 8.8442004,8.8442004 0 0 0 0.1758,-0.057 c 25.6949,-8.565 86.0437,-21.7335 130.7519,-29.6817 l -0.1113,0.018 c 46.8414,-7.7211 107.6732,-28.6768 163.9453,-54.0371 56.2658,-25.3575 107.58,-54.7449 135.6758,-81.2461 l 0.01,-0.01 c 87.6351,-82.4294 95.1342,-228.5745 15.3105,-311.5566 l -0,-0 c -25.6794,-26.7473 -64.8623,-46.11 -103.4941,-55.7031 -38.6338,-9.5936 -76.9329,-10.0949 -101.7871,6.4746 l 0.055,-0.035 c -4.2969,2.8199 -7.5734,4.3684 -10.0781,5.3653 0.6681,-2.2615 1.753,-5.2242 3.5371,-8.711 3.4161,-6.6761 8.8874,-15.1722 16.3828,-24.8437 a 8.8442004,8.8442004 0 0 0 0.016,-0.021 c 23.0576,-29.9259 42.4601,-47.9457 75.4394,-63.1113 32.9794,-15.1657 79.9829,-27.1522 156.3106,-42.6172 a 8.8442004,8.8442004 0 0 0 0.023,-0.01 c 151.473,-31.0971 213.2772,-57.1079 264.709,-112.6543 a 8.8442004,8.8442004 0 0 0 0.055,-0.059 c 51.3386,-56.4725 69.7202,-116.4432 53.0195,-181.1582 l 0.049,0.1992 c -3.4372,-14.7307 -5.3052,-26.146 -5.5215,-33.5 -0.1081,-3.677 0.2424,-6.3094 0.6055,-7.5293 0.1435,-0.4819 0.1742,-0.5398 0.1856,-0.5879 a 8.8442004,8.8442004 0 0 0 0.025,-0.016 c 7.3394,-4.8929 8.6134,-12.6925 9.0508,-21.1504 0.4375,-8.4579 -0.703,-18.59 -3.334,-30.166 l 0.031,0.1367 c -3.3676,-15.9958 -3.7737,-65.9169 1.1191,-106.0703 l 0,-0.037 c 12.1161,-95.954 3.844,-162.4174 -29.666,-239.5918 l 0.012,0.023 c -30.1508,-70.0279 -79.5643,-257.5206 -88.3359,-335.4903 a 8.8442004,8.8442004 0 0 0 0,-0.01 c -4.9144,-43.2473 -2.2157,-64.6658 11.4844,-100.8731 l -0.021,0.053 c 14.6814,-38.0629 20.348,-112.0712 19.4688,-204.7656 -0.8793,-92.6944 -8.9051,-203.2455 -23.961,-310.6445 a 8.8442004,8.8442004 0 0 0 -0,-0.021 c -12.9843,-90.89 -18.8507,-144.9113 -16.9238,-181.2812 1.9257,-36.3486 10.758,-54.8292 29.1797,-79.0762 l 0.01,-0.012 c 14.4244,-18.7493 24.6123,-26.9447 42.6563,-29.3653 18.0483,-2.4211 45.3916,2.1184 90.1347,13.5528 l -0.094,-0.025 c 51.7337,13.8298 108.5788,17.1273 156.252,11.873 23.8365,-2.6271 45.3739,-7.38 63.0078,-14.291 17.6338,-6.911 31.669,-15.8704 39.5234,-28.4375 9.4661,-15.1457 6.9315,-33.6467 -3.1855,-48.5332 -10.1171,-14.8865 -27.3492,-27.4372 -49.2754,-35.459 a 8.8442004,8.8442004 0 0 0 -0.086,-0.031 c -25.6492,-9.0841 -74.2372,-18.1404 -127.7812,-25.3047 -52.1625,-6.9795 -108.2508,-11.858 -150.6035,-12.1094 7.1339,-0.6018 15.1097,-1.1637 23.9394,-1.6719 34.5036,-1.9858 81.1563,-3.2351 134.5606,-3.7343 65.5815,-0.5007 110.6636,-1.7424 140.1152,-4.0274 14.7258,-1.1425 25.4983,-2.5106 33.3984,-4.3633 3.9501,-0.9263 7.1841,-1.9319 10.125,-3.4511 2.9034,-1.4999 6.0983,-3.71 7.6094,-8.0547 1.523,-3.7937 2.2475,-8.3143 0.8926,-12.7285 -1.4169,-4.6164 -4.811,-8.2237 -8.7129,-10.7168 -7.8037,-4.9864 -18.4189,-7.3958 -34.2617,-9.4004 -31.6857,-4.0093 -84.2259,-4.9448 -167.3418,-3.9434 l 0.057,-0 c -87.5984,0.5006 -138.4227,2.1459 -175.957,10.3282 -37.5344,8.1822 -61.2868,23.4164 -91.6543,48.7226 a 8.8442004,8.8442004 0 0 0 -0.1289,0.1094 c -15.0961,13.0833 -23.4677,19.3012 -27.4727,28.7246 -1.0012,2.3559 -1.6427,5.3372 -1.0605,8.4258 0.5822,3.0886 2.3763,5.7491 4.2304,7.4863 3.6859,3.4535 7.517,4.7504 12.0723,6.3574 0,0 0.01,10e-4 0.01,0 8.3316,3.0274 21.7951,4.481 40.8066,6.002 19.0179,1.5214 42.4542,2.5293 66.2051,2.5293 h -0.086 c 51.6122,0.4962 111.6534,4.4774 164.4882,10.3203 52.8349,5.8429 98.9315,13.7801 120.7481,21.207 a 8.8442004,8.8442004 0 0 0 0.053,0.018 c 8.1724,2.7241 14.2827,4.8816 18.2403,6.582 -1.2683,1.0088 -1.6171,1.4452 -3.543,2.8047 a 8.8442004,8.8442004 0 0 0 -0.1172,0.084 c -4.1372,3.0233 -14.8388,6.7479 -29.043,8.8965 -14.2041,2.1485 -31.996,3.1477 -51.3789,2.9023 -38.7657,-0.4907 -83.998,-5.9558 -121.0058,-16.1816 a 8.8442004,8.8442004 0 0 0 -0.1,-0.027 c -46.0941,-12.1567 -79.9986,-16.1609 -108.1329,-8.75 -28.1188,7.4069 -48.9787,26.5959 -67.6054,56.5899 -17.5498,26.8732 -33.6168,61.9664 -37.1895,84.0351 -1.3949,6.4635 -1.4835,15.0246 -1.1836,27.084 0.3034,12.1991 1.2205,27.4564 2.668,44.8262 2.8931,34.7175 7.9077,77.8346 14.4316,121.0058 11.9529,86.6664 24.9366,217.7589 26.9161,290.9981 a 8.8442004,8.8442004 0 0 0 0,0.1328 c 4.9936,118.8493 3.2266,141.5632 -16.6582,210.166 a 8.8442004,8.8442004 0 0 0 -0.041,0.1484 c -16.1205,59.4447 -20.3983,94.2075 -15.2324,133.4688 a 8.8442004,8.8442004 0 0 0 0,0.01 c 5.6129,42.3521 21.1474,112.8231 37.9512,178.4082 16.8038,65.5851 34.1884,124.9491 45.9062,148.3848 a 8.8442004,8.8442004 0 0 0 0.024,0.045 c 35.5119,70.0375 43.0251,114.9614 35.0644,230.3906 a 8.8442004,8.8442004 0 0 0 -0,0.043 l -5.4336,84.6035 -20.5547,-28.1894 c -42.2145,-58.904 -80.9454,-141.0969 -121.7813,-261.5957 -0.01,-0.016 -0.011,-0.033 -0.016,-0.049 -0,-0.014 -0.011,-0.027 -0.016,-0.041 -17.1392,-52.4111 -41.945,-115.0776 -55.4648,-142.1172 -43.8585,-87.7168 -162.4009,-254.9466 -234.4082,-333.039 a 8.8442004,8.8442004 0 0 0 -0.01,-0.01 c -48.4248,-52.4186 -71.0637,-79.514 -74.1973,-110.5137 -3.1329,-30.9934 13.2618,-70.8465 48.7129,-147.7422 l 0.02,-0.041 c 86.1294,-184.2814 106.7879,-257.6298 109.8086,-382.4883 a 8.8442004,8.8442004 0 0 0 0,-0.037 c 2.0026,-99.131 -0.7623,-112.7785 -29.8555,-173.9746 a 8.8442004,8.8442004 0 0 0 -0.041,-0.088 c -44.5059,-91.0347 -93.5056,-144.2473 -175.8398,-186.9472 -103.8459,-54.4435 -179.4984,-72.2625 -259.668,-57.8731 a 8.8442004,8.8442004 0 0 0 -0.082,0.016 c -74.8783,14.1662 -116.7171,34.4643 -155.8418,76.6778 l 0.125,-0.1309 c -6.9818,7.2311 -12.2449,12.5982 -16.0821,16.0645 -2.3346,2.1089 -3.907,3.196 -4.9687,3.8691 -0.9786,-1.1567 -2.6213,-3.4395 -5.043,-7.4023 l 0.2578,0.4492 c -9.1256,-17.1105 -28.2548,-37.5752 -50.5859,-57.2266 -22.3227,-19.644 -47.6079,-37.9519 -69.3145,-48.5449 -24.3255,-12.1455 -61.2171,-17.8936 -101.3593,-18.6582 -5.0212,-0.096 -10.0877,-0.1077 -15.1817,-0.037 z m 32.416,53.6894 c 25.0754,0.2214 61.714,15.7237 93.5645,38.6192 31.8505,22.8954 59.0597,53.1683 68.3242,79.2773 a 8.8442004,8.8442004 0 0 0 0.055,0.1485 c 4.7198,12.586 9.8908,22.5207 16.1016,29.955 6.2107,7.4344 13.9632,12.5397 22.7187,13.3692 8.7555,0.8295 17.3237,-2.6482 25.0703,-8.6367 7.7466,-5.9885 15.1368,-14.6025 22.7207,-25.8477 a 8.8442004,8.8442004 0 0 0 0.1407,-0.2168 c 29.6793,-46.9125 73.9425,-74.4078 138.3359,-88.0723 0.01,-10e-4 0.01,-8e-4 0.016,-0 0,-9e-4 0.01,-0 0.012,-0 65.063,-13.589 121.2078,-3.2663 211.3868,39.3457 a 8.8442004,8.8442004 0 0 0 0.031,0.016 c 75.4167,35.2598 129.6462,87.5417 167.8574,162.9844 a 8.8442004,8.8442004 0 0 0 0.01,0.016 c 13.9502,27.4021 20.887,42.2525 24.42,62.3906 3.533,20.1382 3.6178,46.4837 2.6191,95.418 a 8.8442004,8.8442004 0 0 0 0,0.035 c -1.9816,121.8692 -26.3181,205.689 -102.0684,357.1894 a 8.8442004,8.8442004 0 0 0 -0.01,0.02 c -40.143,80.7877 -60.4107,131.7473 -56.5176,177.9277 3.8931,46.1803 32.2334,84.2947 84.0664,138.1406 a 8.8442004,8.8442004 0 0 0 0.035,0.037 c 35.9633,36.9354 104.2524,126.1483 150.9629,196.711 a 8.8442004,8.8442004 0 0 0 0,0.01 c 66.8393,100.7578 92.1885,149.516 121.0097,232.998 a 8.8442004,8.8442004 0 0 0 0,0 c 55.0692,159.2002 78.7606,208.6506 142.9531,306.9453 a 8.8442004,8.8442004 0 0 0 0.014,0.021 c 34.3255,52.2346 55.1865,90.2575 65.3691,121.0449 10.1789,30.7763 10.1075,54.0379 2.5508,79.5586 -13.0726,43.5743 -32.8716,72.1113 -74.5039,96.5371 -41.6329,24.4263 -105.6974,43.9233 -204.8926,65.3575 -74.7594,16.056 -127.2681,30.8779 -166.793,48.8437 -39.5156,17.9617 -66.062,39.3795 -87.3652,67.4297 -0,0 -0.01,0.01 -0.01,0.014 -0,0 -0.01,0.01 -0.01,0.01 -6.4988,8.5009 -12.7512,18.1288 -18.0175,27.42 -0,-52.0519 15.1458,-95.5119 54.1953,-148.8477 a 8.8442004,8.8442004 0 0 0 0.014,-0.018 c 52.2108,-71.6618 70.6633,-150.3149 78.6856,-325.8027 a 8.8442004,8.8442004 0 0 0 0,-0.029 c 6.0035,-141.0825 4.8414,-166.1034 -15.2226,-252.3789 a 8.8442004,8.8442004 0 0 0 -0.014,-0.059 c -41.1178,-171.4913 -74.9826,-246.441 -191.1543,-427.709 a 8.8442004,8.8442004 0 0 0 -0.035,-0.057 c -42.7329,-65.59 -100.7728,-166.6725 -129.5,-224.127 a 8.8442004,8.8442004 0 0 0 -0.016,-0.031 c -51.979,-102.9585 -52.0707,-103.5996 -59.0683,-216.5606 a 8.8442004,8.8442004 0 0 0 0,-0.01 c -9.1007,-144.5998 -58.3563,-302.5711 -130.3145,-418.1133 l -0.01,-0.01 C 4163.9452,2567.4241 4066.2386,2451.417 3999.4062,2400.002 l -0.014,-0.012 c -18.0696,-13.9635 -29.3596,-23.7711 -34.8145,-29.4882 2.0174,-0.2021 3.9827,-0.4611 6.1992,-0.4415 z m -65.6093,2.5567 c 0.082,1.0264 -0.8945,6.3324 -0.6992,5.0566 -1.7924,6.572 -2.2848,12.6555 -1.129,18.2422 0.578,2.7934 1.5512,5.5683 3.7012,8.1563 2.15,2.5879 6.056,4.7715 9.959,4.7715 0.3091,0 5.4739,1.3952 11.9492,5.3593 6.4753,3.9641 14.6898,10.0395 24,17.7598 18.6204,15.4405 41.7087,37.4554 66.1738,62.9141 48.9223,50.9089 103.4812,115.7143 140.5508,170.0781 81.0355,120.5738 130.6021,270.0904 141.5039,430.6445 8.0028,118.0408 9.9125,123.3562 64.9121,233.3555 30.2461,60.4921 87.188,160.404 127.5528,220.9511 l -0.053,-0.078 c 85.714,131.561 138.2174,237.622 174.9532,357.7578 25.952,84.8431 27.6143,97.3841 25.6152,263.3067 a 8.8442004,8.8442004 0 0 0 -0,0.064 c -0.4992,101.3441 -3.5551,164.9069 -13.4433,212.8828 -9.8882,47.976 -26.3358,80.6353 -54.9902,122.1348 a 8.8442004,8.8442004 0 0 0 -0.025,0.039 c -28.2671,41.391 -45.1024,73.4408 -53.9883,117.0976 -8.8859,43.6569 -10.0532,98.3946 -8.5508,187.0391 a 8.8442004,8.8442004 0 0 0 0,0.021 c 1.9931,102.6452 -2.4534,169.103 -9.6523,194.3515 -13.7992,45.8792 -70.3884,106.6664 -142.9493,148.8301 -28.8951,16.6484 -50.9479,24.9159 -72.7714,26.0645 -21.8309,1.149 -44.2511,-4.7559 -74.0957,-18.4551 a 8.8442004,8.8442004 0 0 0 -0.057,-0.025 c -109.6493,-49.3916 -174.9969,-111.1042 -191.0215,-175.9687 -0.7161,-3.226 -0.923,-4.7422 -1.4004,-7.1524 0.4008,0.2638 0.4622,0.2606 0.8829,0.541 a 8.8442004,8.8442004 0 0 0 0.3554,0.2266 c 15.9198,9.5519 38.4801,10.1106 60.6895,6.2539 22.2094,-3.8567 44.0883,-12.3604 57.3808,-26.8613 a 8.8442004,8.8442004 0 0 0 0.053,-0.061 c 6.2431,-6.9368 11.0179,-17.3064 15.707,-29.8105 4.689,-12.5042 8.7963,-26.874 11.4043,-40.4356 a 8.8442004,8.8442004 0 0 0 0.019,-0.1035 c 1.7239,-9.5773 3.6208,-17.7718 5.4824,-25.0254 7.527,31.5607 35.7301,56.3028 67.8145,56.3028 13.6803,0 24.9521,-1.8686 34.0059,-9.629 9.0435,-7.7516 14.9446,-19.3313 23.0507,-37.5664 l 0.01,-0.02 c 12.4564,-27.5143 19.2319,-56.2197 20.0253,-81.4766 0.7936,-25.2627 -3.9935,-47.5639 -17.8359,-61.4062 -6.7767,-6.7767 -8.5359,-10.2338 -8.5644,-10.5859 -0.029,-0.3522 0.8224,-3.248 6.9941,-10.3692 a 8.8442004,8.8442004 0 0 0 0.045,-0.053 c 15.9781,-18.7329 35.6465,-55.4382 52.2149,-92.3692 8.2841,-18.4654 15.657,-36.8657 21.0195,-52.873 5.3624,-16.0073 8.8809,-29.1471 8.8809,-39.4961 0,-22.3722 -10.1213,-50.1388 -24.4415,-76.5859 -14.3201,-26.4472 -32.809,-51.1618 -52.1289,-65.5137 a 8.8442004,8.8442004 0 0 0 -0,-0 c -33.7868,-25.0676 -91.9237,-38.7213 -157.1308,-39.7402 a 8.8442004,8.8442004 0 0 0 -0.1387,-0 c -33.6734,0 -74.156,-16.6361 -107.582,-41.6152 -33.4261,-24.979 -59.5636,-58.2245 -66.8164,-88.5957 a 8.8442004,8.8442004 0 0 0 -0.031,-0.1269 c -2.8978,-11.3843 -2.4348,-31.3164 1.7246,-55.5567 4.1594,-24.2403 11.7636,-52.9696 21.9629,-83.3203 20.3987,-60.7014 51.2127,-127.9751 85.1543,-180.1172 a 8.8442004,8.8442004 0 0 0 0.022,-0.035 c 48.3647,-75.066 78.8853,-141.1569 91.5879,-200.4356 12.7026,-59.2787 7.3307,-111.9457 -16.1289,-158.3437 a 8.8442004,8.8442004 0 0 0 -0.057,-0.1094 c -17.8495,-34.1242 -56.5575,-83.0946 -105.3261,-136.1367 -48.768,-53.0415 -107.483,-109.7522 -164.8457,-157.5547 l -0,-0 c -119.8887,-99.9905 -197.3054,-191.9838 -239.0391,-288.9531 -41.7286,-96.9578 -48.2059,-199.2708 -24.9433,-321.5566 17.8774,-91.3733 33.2922,-122.2046 90.7793,-183.6563 a 8.8442004,8.8442004 0 0 0 0.01,-0.01 c 41.4331,-44.3926 62.0346,-55.5275 130.4141,-70.3926 a 8.8442004,8.8442004 0 0 0 0.08,-0.018 c 5.0526,-1.1483 8.7271,-1.7771 11.209,-2.0058 z m -1957.1739,747.164 c -0.9305,2.0318 -2.2952,1.1903 -2.6211,1.2657 0.2426,-0.1285 0.4705,-0.2507 1.002,-0.5117 0.339,-0.1666 1.1851,-0.5469 1.6191,-0.754 z m 2294.5762,1403.0704 c 13.4227,0.7743 32.4695,13.3657 57.8067,42.0078 a 8.8442004,8.8442004 0 0 0 0.014,0.016 c 19.214,21.6157 26.7466,38.3374 24.9356,56.2344 -1.811,17.8969 -13.9241,39.0619 -38.916,66.9941 l 0.1015,-0.1113 c -12.8062,13.8307 -21.8314,25.5916 -27.3359,36.8828 -5.5045,11.2912 -7.2813,22.5336 -4.7832,33.1504 l -0.08,-0.3711 c 0.9421,4.9459 1.2881,8.5574 1.1855,10.4863 -0.1025,1.929 -0.2922,1.6458 -0.1269,1.4805 0.1653,-0.1653 -0.4118,0.4208 -3.0098,0.8672 -2.5979,0.4463 -6.8035,0.6679 -12.3613,0.6679 -19.7744,0 -37.2263,10.0048 -49.9316,27.6817 -12.7053,17.6769 -21.6204,42.7897 -27.7598,75.5332 l 0.01,-0.041 c -2.3888,12.4219 -6.0165,24.4739 -9.7637,33.7246 -3.6999,9.1341 -8.8057,15.6972 -8.623,15.6406 -15.1343,9.3071 -42.1295,8.3553 -69.0859,-4.6582 a 8.8442004,8.8442004 0 0 0 -0.041,-0.021 c -4.9892,-2.3758 -8.3408,-4.3477 -10.3398,-6.1133 -1.999,-1.7656 -2.9588,-3.1653 -3.8672,-6.1933 -1.8152,-6.0507 -1.7692,-19.1103 0.2129,-42.918 3.9286,-40.2157 9.6287,-55.772 30.582,-77.6777 a 8.8442004,8.8442004 0 0 0 0.074,-0.08 c 14.1649,-15.1766 23.387,-26.7705 24.8477,-44.2988 1.4572,-17.4863 -3.7085,-38.7715 -13.6836,-77.6797 -1.2034,-5.5461 -1.9035,-9.7349 -2.0137,-12.2129 -0.049,-1.1092 0.019,-1.6221 0.064,-1.9512 0.2432,-0.085 0.5406,-0.2021 1.4531,-0.3769 2.2369,-0.4286 6.3094,-0.6699 11.8672,-0.6699 10.8963,0 21.0719,-3.0143 29.6797,-9.961 8.6078,-6.9467 15.7674,-17.0925 23.998,-31.4961 a 8.8442004,8.8442004 0 0 0 0.1563,-0.2832 c 10.6641,-20.3588 29.8186,-50.4179 42.8222,-65.2793 a 8.8442004,8.8442004 0 0 0 0.1524,-0.1816 c 11.7683,-14.2031 21.3219,-19.3932 31.7617,-18.791 z m 129.6406,38.5605 c 1.2875,0.4925 -0.8084,-0.1214 0,0 z m -62.5976,210.0918 c 0.054,0.1402 0.01,-0 0.068,0.1797 0.7706,2.3994 1.4746,8.0759 1.4746,16.3164 0,15.6128 -4.2261,40.7112 -9.2851,52.5156 a 8.8442004,8.8442004 0 0 0 -0.1387,0.3477 c -5.024,13.2451 -11.7756,19.1753 -13.414,19.6699 -0.8193,0.2473 -0.3449,0.4206 -1.3418,-0.377 -0.997,-0.7975 -2.977,-3.3223 -4.625,-8.0605 a 8.8442004,8.8442004 0 0 0 -0.1407,-0.3809 c -0.336,-0.84 -1.4251,-7.9781 -1.3066,-16.1972 0.1185,-8.2192 0.9053,-18.1199 2.1172,-27.5117 1.2118,-9.3919 2.8748,-18.3504 4.5664,-24.4825 0.7083,-2.5676 1.3706,-4.2041 1.8926,-5.3925 0.1497,-0.046 0.2886,-0.085 0.4511,-0.1309 1.4302,-0.4005 2.9906,-0.9031 4.7403,-1.4863 3.4993,-1.1665 7.7182,-2.6561 12.125,-4.125 a 8.8442004,8.8442004 0 0 0 0.6035,-0.2266 c 1.5477,-0.6449 1.7796,-0.5871 2.2129,-0.6582 z m 410.3496,0.7695 c 6.8742,-0.177 15.664,0.6293 26.584,2.4493 a 8.8442004,8.8442004 0 0 0 0.094,0.016 c 43.5317,6.7716 74.0528,22.5491 94.1856,47.8887 20.1327,25.3395 30.33,61.1236 30.33,109.373 0,38.4179 -6.6378,64.3695 -26.664,89.1973 -20.0262,24.8277 -54.555,48.7167 -110.6934,79.0215 a 8.8442004,8.8442004 0 0 0 -0.055,0.029 c -25.3366,13.9104 -51.7124,27.3459 -73.7675,37.754 -22.0552,10.408 -40.5905,17.882 -47.002,19.3906 l -1.4629,0.3418 11.918,-12.6621 0.01,-0.012 c 52.1559,-55.2286 68.4304,-106.3512 65.4003,-205.332 a 8.8442004,8.8442004 0 0 0 -0,-0.049 c -2.4989,-68.9694 -3.4458,-106.5179 -1.8926,-127.7852 0.7766,-10.6336 2.1726,-17.0197 3.9102,-21.2617 1.7375,-4.2419 3.7567,-6.7371 7.3984,-10.3789 a 8.8442004,8.8442004 0 0 0 0.2891,-0.3047 c 4.5004,-4.9504 9.9631,-7.3807 21.4199,-7.6758 z m -93.2891,100.9336 c 0.1219,0.496 0.2447,0.839 0.3653,1.3614 2.427,10.5123 4.6624,26.3672 6.1406,47.0625 a 8.8442004,8.8442004 0 0 0 0,0.035 c 4.4355,58.6462 -0.8193,102.4526 -17.5605,138.0723 -16.7412,35.6196 -45.1413,63.7722 -89.2324,90.7168 a 8.8442004,8.8442004 0 0 0 -0.024,0.014 c -12.3708,7.6128 -26.4389,15.2675 -38.9961,21.5566 18.0901,-15.5749 41.2669,-37.1536 59.8848,-55.7715 a 8.8442004,8.8442004 0 0 0 0.061,-0.062 c 51.2378,-52.2626 70.4719,-104.8451 75.5175,-206.7441 v -0.01 c 0.802,-15.8314 2.2244,-27.8692 3.8418,-36.2305 z m -597.5371,151.6016 c 2.3393,4.7983 3.7632,7.5035 6.8731,13.9824 0,0 0,0.01 0.01,0.012 0.01,0.011 0.01,0.013 0.012,0.024 5.3959,11.3668 10.9971,21.7683 17.0762,31.498 -5.3154,-6.1872 -9.9141,-11.8555 -13.1504,-16.6484 -7.6622,-11.3479 -10.1666,-19.1377 -10.8164,-28.8672 z m 107.1367,128.1504 c 13.1079,9.1331 27.422,18.4889 44.1485,28.6074 4.761,2.8855 8.7378,5.4235 13.0176,8.0996 -17.8193,-7.4891 -36.2847,-19.2671 -57.1661,-36.707 z m 99.1172,47.0898 c 0.6204,0.01 0.8915,0.2 1.0625,0.2285 a 8.8442004,8.8442004 0 0 0 -0.6875,-0.088 c -0.1974,-0.017 -0.3887,-0.066 -0.5859,-0.084 0.045,-10e-4 0.1694,-0.057 0.2109,-0.057 z"
       style="fill:#000000;fill-opacity:1" />
    <path
       d="m 3077,5938 c -2,-7 -269,-649 -592,-1427 -323,-777 -583,-1417 -578,-1421 4,-4 786,-330 1738,-724 952,-395 1763.1691,-728.2939 1763.1691,-728.2939 L 5470,1788 6031,3139 c 309,744 559,1354 558,1355 -3,3 -3385,1408 -3495,1453 -6,2 -14,-2 -17,-9 z m 1757,-744 c 940,-390 1710,-714 1712,-719 5,-13 -1150,-2800 -1160,-2799 -30,4 -3446,1430 -3446,1438 0,6 260,638 578,1404 439,1060 581,1392 592,1389 8,-2 784,-323 1724,-713 z m -614,52 c -85,-24 -166,-83 -212,-155 -31,-50 -35,-83 -13,-121 8,-14 14,-48 15,-76 0,-60 15,-111 42,-140 16,-19 17,-26 7,-73 -12,-59 -3,-81 36,-81 13,0 26,-9 32,-22 6,-13 27,-41 46,-63 32,-37 38,-40 76,-37 35,3 47,11 77,48 20,24 40,44 44,44 19,0 19,-51 1,-94 -27,-61 -54,-76 -148,-83 -91,-7 -122,-20 -181,-77 -81,-76 -85,-101 -46,-239 30,-104 38,-121 99,-216 90,-139 110,-251 59,-327 -51,-75 -150,-178 -256,-265 -188,-156 -288,-329 -288,-500 0,-91 28,-229 57,-279 39,-69 114,-135 170,-151 69,-20 170,-18 214,4 41,20 100,72 116,102 11,18 12,18 40,-11 38,-41 77,-60 151,-74 78,-14 151,3 254,57 81,42 128,93 172,183 29,61 31,71 29,170 -3,124 -23,195 -109,379 -71,154 -70,163 27,268 71,77 190,245 233,331 13,26 38,89 55,141 41,121 80,204 123,264 l 35,48 7,-109 c 8,-116 0,-164 -36,-235 -21,-42 -72,-241 -83,-324 -5,-38 -1,-71 15,-130 20,-69 22,-94 17,-213 -2,-74 -15,-205 -27,-292 -13,-86 -20,-172 -16,-190 3,-19 19,-55 36,-81 36,-58 75,-68 166,-44 76,21 183,22 209,3 17,-12 16,-14 -17,-25 -47,-16 -184,-31 -288,-32 -47,0 -93,-4 -104,-8 -17,-6 -15,-10 15,-36 60,-50 87,-56 262,-57 166,-2 210,4 201,25 -3,9 -52,13 -183,14 -107,1 -187,5 -198,12 -14,8 -7,10 36,11 84,0 231,20 279,37 41,15 63,47 48,71 -25,40 -148,54 -249,27 -90,-23 -112,-20 -142,19 -38,50 -40,85 -14,267 30,214 32,441 5,511 -14,37 -17,61 -12,105 9,80 58,266 89,338 33,76 41,140 29,235 -5,41 -5,90 -1,109 5,22 4,38 -2,42 -7,4 -6,21 1,51 16,62 -1,118 -51,173 -50,54 -109,79 -260,110 -153,31 -190,48 -237,109 -31,40 -30,62 2,41 42,-28 146,-2 194,48 76,79 69,220 -15,299 -53,50 -204,118 -295,133 -45,8 -105,21 -132,30 -58,18 -143,18 -206,1 z m -35,-72 c -81,-49 -113,-80 -141,-139 -24,-50 -24,-50 -24,-16 0,28 11,44 68,101 60,61 101,85 147,89 6,1 -17,-15 -50,-35 z m 346,-16 c 90,-55 120,-118 111,-237 -6,-84 -24,-91 -28,-12 -5,101 -23,150 -73,201 -25,25 -59,56 -76,69 -28,20 -28,22 -6,15 14,-4 46,-20 72,-36 z m -116,3 c 74,-43 132,-104 147,-154 8,-28 12,-94 10,-197 -3,-177 5,-217 61,-299 58,-84 69,-137 70,-340 2,-166 0,-181 -26,-266 -37,-121 -90,-228 -176,-360 -40,-60 -97,-160 -127,-220 -55,-110 -56,-112 -64,-230 -11,-162 -61,-313 -143,-435 -75,-110 -219,-260 -250,-260 -5,0 -7,-9 -4,-20 4,-17 1,-19 -21,-14 -69,15 -93,28 -135,73 -58,62 -75,96 -93,188 -47,247 26,418 267,619 114,95 234,226 268,291 45,89 21,201 -75,350 -69,106 -124,271 -110,326 16,67 110,137 183,137 64,1 121,15 152,38 35,26 73,96 73,135 0,32 -51,145 -80,179 -13,15 -12,19 2,33 22,22 20,80 -4,133 -16,36 -23,42 -49,42 -32,0 -61,-30 -61,-64 0,-32 -12,-10 -21,40 -5,26 -16,56 -25,66 -22,24 -82,34 -107,19 -18,-12 -19,-11 -13,16 17,69 85,132 196,182 61,28 96,26 155,-8 z m 323,-53 c 113,-61 142,-97 142,-176 0,-99 -42,-152 -132,-166 -30,-5 -46,-3 -56,8 -16,16 -17,28 -12,166 3,98 -12,145 -63,199 l -32,34 30,-7 c 17,-4 72,-30 123,-58 z m -589,-177 c 7,-5 17,-29 22,-55 12,-64 35,-96 69,-96 23,0 27,-3 23,-24 -4,-17 5,-35 30,-62 51,-57 54,-90 14,-135 -46,-52 -74,-58 -103,-23 -14,16 -33,46 -44,67 -16,28 -27,37 -46,37 -23,0 -25,3 -20,26 20,78 19,84 -9,114 -22,23 -29,42 -33,83 -4,48 -2,54 19,64 29,14 59,16 78,4 z m 161,-87 c 6,-14 10,-39 10,-56 0,-23 -4,-29 -16,-24 -9,3 -17,6 -19,6 -8,0 -17,70 -11,85 8,23 25,18 36,-11 z m 336,-181 c 41,-54 100,-81 249,-113 199,-43 259,-78 286,-168 16,-54 0,-103 -69,-208 -64,-98 -87,-146 -142,-305 -29,-84 -55,-134 -122,-235 -47,-71 -115,-160 -152,-198 -103,-107 -106,-145 -26,-306 76,-152 101,-238 103,-361 2,-98 0,-107 -28,-162 -39,-77 -95,-131 -172,-167 -91,-43 -150,-54 -217,-40 -66,14 -113,43 -144,92 -29,43 -53,41 -71,-7 -22,-62 -126,-132 -181,-123 -16,2 -10,11 34,45 65,50 163,166 227,269 71,114 120,271 129,414 7,113 8,117 60,220 29,58 87,159 130,225 116,181 149,254 190,425 20,86 21,109 15,250 -8,175 -26,251 -77,321 -41,56 -57,103 -56,159 0,25 3,36 5,25 3,-11 16,-35 29,-52 z"
       id="path855"
       style="fill:#000000;fill-opacity:1" />
  </g>
  <g
     class="logo-paths"
     transform="matrix(0.1,0,0,-0.1,-190.6929,590.75148)"
     fill="#2bb5b8"
     stroke="none"
     id="g4"
     style="stroke:#fbfbfb;stroke-opacity:1;stroke-width:3;stroke-dasharray:none">
    <path
       sodipodi:type="inkscape:offset"
       inkscape:radius="8.8433161"
       inkscape:original="M 5408.1699 1637.707 C 5408.1699 1637.707 4597 1971 3645 2366 C 2693 2760 1911 3086 1907 3090 C 1902 3094 2162 3734 2485 4511 C 2808 5289 3075 5931 3077 5938 C 3080 5945 3088 5949 3094 5947 C 3204 5902 6586 4497 6589 4494 C 6590 4493 6340 3883 6031 3139 L 5470 1788 L 5408.1699 1637.707 z M 5386 1676 C 5396 1675 6551 4462 6546 4475 C 6544 4480 5774 4804 4834 5194 C 3894 5584 3118 5905 3110 5907 C 3099 5910 2957 5578 2518 4518 C 2200 3752 1940 3120 1940 3114 C 1940 3106 5356 1680 5386 1676 z M 3953.375 2325.25 C 3914 2324.5 3871.5 2329 3837 2339 C 3781 2355 3706 2421 3667 2490 C 3638 2540 3610 2678 3610 2769 C 3610 2940 3710 3113 3898 3269 C 4004 3356 4103 3459 4154 3534 C 4205 3610 4185 3722 4095 3861 C 4034 3956 4026 3973 3996 4077 C 3957 4215 3961 4240 4042 4316 C 4101 4373 4132 4386 4223 4393 C 4317 4400 4344 4415 4371 4476 C 4389 4519 4389 4570 4370 4570 C 4366 4570 4346 4550 4326 4526 C 4296 4489 4284 4481 4249 4478 C 4211 4475 4205 4478 4173 4515 C 4154 4537 4133 4565 4127 4578 C 4121 4591 4108 4600 4095 4600 C 4056 4600 4047 4622 4059 4681 C 4069 4728 4068 4735 4052 4754 C 4025 4783 4010 4834 4010 4894 C 4009 4922 4003 4956 3995 4970 C 3973 5008 3977 5041 4008 5091 C 4054 5163 4135 5222 4220 5246 C 4283 5263 4368 5263 4426 5245 C 4453 5236 4513 5223 4558 5215 C 4649 5200 4800 5132 4853 5082 C 4937 5003 4944 4862 4868 4783 C 4820 4733 4716 4707 4674 4735 C 4642 4756 4641 4734 4672 4694 C 4719 4633 4756 4616 4909 4585 C 5060 4554 5119 4529 5169 4475 C 5219 4420 5236 4364 5220 4302 C 5213 4272 5212 4255 5219 4251 C 5225 4247 5226 4231 5221 4209 C 5217 4190 5217 4141 5222 4100 C 5234 4005 5226 3941 5193 3865 C 5162 3793 5113 3607 5104 3527 C 5099 3483 5102 3459 5116 3422 C 5143 3352 5141 3125 5111 2911 C 5085 2729 5087 2694 5125 2644 C 5155 2605 5177 2602 5267 2625 C 5368 2652 5491 2638 5516 2598 C 5531 2574 5509 2542 5468 2527 C 5420 2510 5273 2490 5189 2490 C 5146 2489 5139 2487 5153 2479 C 5164 2472 5244 2468 5351 2467 C 5482 2466 5531 2462 5534 2453 C 5543 2432 5499 2426 5333 2428 C 5158 2429 5131 2435 5071 2485 C 5041 2511 5039 2515 5056 2521 C 5067 2525 5113 2529 5160 2529 C 5264 2530 5401 2545 5448 2561 C 5481 2572 5482 2574 5465 2586 C 5439 2605 5332 2604 5256 2583 C 5165 2559 5126 2569 5090 2627 C 5073 2653 5057 2689 5054 2708 C 5050 2726 5057 2812 5070 2898 C 5082 2985 5095 3116 5097 3190 C 5102 3309 5100 3334 5080 3403 C 5064 3462 5060 3495 5065 3533 C 5076 3616 5127 3815 5148 3857 C 5184 3928 5192 3976 5184 4092 L 5177 4201 L 5142 4153 C 5099 4093 5060 4010 5019 3889 C 5002 3837 4977 3774 4964 3748 C 4921 3662 4802 3494 4731 3417 C 4634 3312 4633 3303 4704 3149 C 4790 2965 4810 2894 4813 2770 C 4815 2671 4813 2661 4784 2600 C 4740 2510 4693 2459 4612 2417 C 4509 2363 4436 2346 4358 2360 C 4284 2374 4245 2393 4207 2434 C 4179 2463 4178 2463 4167 2445 C 4151 2415 4092 2363 4051 2343 C 4029 2332 3992.75 2326 3953.375 2325.25 z M 3970.8555 2361.2168 C 4027.6804 2361.7185 4120.375 2426.875 4141 2485 C 4159 2533 4183 2535 4212 2492 C 4243 2443 4290 2414 4356 2400 C 4423 2386 4482 2397 4573 2440 C 4650 2476 4706 2530 4745 2607 C 4773 2662 4775 2671 4773 2769 C 4771 2892 4746 2978 4670 3130 C 4590 3291 4593 3329 4696 3436 C 4733 3474 4801 3563 4848 3634 C 4915 3735 4941 3785 4970 3869 C 5025 4028 5048 4076 5112 4174 C 5181 4279 5197 4328 5181 4382 C 5154 4472 5094 4507 4895 4550 C 4746 4582 4687 4609 4646 4663 C 4633 4680 4620 4704 4617 4715 C 4615 4726 4612 4715 4612 4690 C 4611 4634 4627 4587 4668 4531 C 4719 4461 4737 4385 4745 4210 C 4751 4069 4750 4046 4730 3960 C 4689 3789 4656 3716 4540 3535 C 4497 3469 4439 3368 4410 3310 C 4358 3207 4357 3203 4350 3090 C 4341 2947 4292 2790 4221 2676 C 4157 2573 4059 2457 3994 2407 C 3950 2373 3944 2364 3960 2362 C 3963.4375 2361.4375 3967.0671 2361.1833 3970.8555 2361.2168 z M 3905.125 2363.6875 C 3915.0625 2362.9375 3916 2367.25 3913 2380 C 3910 2391 3912 2400 3917 2400 C 3948 2400 4092 2550 4167 2660 C 4249 2782 4299 2933 4310 3095 C 4318 3213 4319 3215 4374 3325 C 4404 3385 4461 3485 4501 3545 C 4587 3677 4640 3784 4677 3905 C 4703 3990 4705 4005 4703 4171 C 4702 4374 4691 4427 4633 4511 C 4577 4593 4569 4633 4572 4810 C 4574 4913 4570 4979 4562 5007 C 4547 5057 4489 5118 4415 5161 C 4356 5195 4321 5197 4260 5169 C 4149 5119 4081 5056 4064 4987 C 4058 4960 4059 4959 4077 4971 C 4102 4986 4162 4976 4184 4952 C 4193 4942 4204 4912 4209 4886 C 4218 4836 4230 4814 4230 4846 C 4230 4880 4259 4910 4291 4910 C 4317 4910 4324 4904 4340 4868 C 4364 4815 4366 4757 4344 4735 C 4330 4721 4329 4717 4342 4702 C 4371 4668 4422 4555 4422 4523 C 4422 4484 4384 4414 4349 4388 C 4318 4365 4261 4351 4197 4350 C 4124 4350 4030 4280 4014 4213 C 4000 4158 4055 3993 4124 3887 C 4220 3738 4244 3626 4199 3537 C 4165 3472 4045 3341 3931 3246 C 3690 3045 3617 2874 3664 2627 C 3682 2535 3699 2501 3757 2439 C 3799 2394 3823 2381 3892 2366 C 3897.5 2364.75 3901.8125 2363.9375 3905.125 2363.6875 z M 4243.0801 4514.0234 C 4260.946 4515.054 4281.125 4529.75 4307 4559 C 4347 4604 4344 4637 4293 4694 C 4268 4721 4259 4739 4263 4756 C 4267 4777 4263 4780 4240 4780 C 4206 4780 4183 4812 4171 4876 C 4166 4902 4156 4926 4149 4931 C 4130 4943 4100 4941 4071 4927 C 4050 4917 4048 4911 4052 4863 C 4056 4822 4063 4803 4085 4780 C 4113 4750 4114 4744 4094 4666 C 4089 4643 4091 4640 4114 4640 C 4133 4640 4144 4631 4160 4603 C 4171 4582 4190 4552 4204 4536 C 4216.6875 4520.6875 4229.1843 4513.2219 4243.0801 4514.0234 z M 4311.5625 4762.4062 C 4317.75 4763.0625 4320 4770.75 4320 4788 C 4320 4805 4316 4830 4310 4844 C 4299 4873 4282 4878 4274 4855 C 4268 4840 4277 4770 4285 4770 C 4287 4770 4295 4767 4304 4764 C 4307 4762.75 4309.5 4762.1875 4311.5625 4762.4062 z M 4719.7344 4763.4336 C 4727.4688 4763.2344 4736.75 4764.125 4748 4766 C 4838 4780 4880 4833 4880 4932 C 4880 5011 4851 5047 4738 5108 C 4687 5136 4632 5162 4615 5166 L 4585 5173 L 4617 5139 C 4668 5085 4683 5038 4680 4940 C 4675 4802 4676 4790 4692 4774 C 4698.25 4767.125 4706.8438 4763.7656 4719.7344 4763.4336 z M 4627.25 4853.875 C 4633 4856.25 4639 4879 4642 4921 C 4651 5040 4621 5103 4531 5158 C 4505 5174 4473 5190 4459 5194 C 4437 5201 4437 5199 4465 5179 C 4482 5166 4516 5135 4541 5110 C 4591 5059 4609 5010 4614 4909 C 4616 4869.5 4621.5 4851.5 4627.25 4853.875 z M 4022.0098 4995.2383 C 4024.5938 4994.5703 4030.5 5006.875 4044 5035 C 4072 5094 4104 5125 4185 5174 C 4218 5194 4241 5210 4235 5209 C 4189 5205 4148 5181 4088 5120 C 4031 5063 4020 5047 4020 5019 C 4020 5004.125 4020 4995.7578 4022.0098 4995.2383 z "
       xlink:href="#path2"
       id="path386"
       inkscape:href="#path2"
       d="m 5404.8086,1629.5273 c 0,0 -811.1813,333.2981 -1763.1973,728.3047 -476.0024,197.001 -909.5044,377.0028 -1224.5117,508.2559 -157.5046,65.6269 -285.3859,119.0662 -374.1504,156.3535 -44.3822,18.6437 -78.9828,33.2483 -102.6347,43.3262 -11.826,5.0389 -20.9105,8.9442 -27.1407,11.6699 -3.1151,1.3629 -5.5095,2.4269 -7.2265,3.2148 -0.8585,0.394 -1.5386,0.7124 -2.1289,1.0059 -0.2952,0.1467 -0.5589,0.2808 -0.8985,0.4707 -0.2783,0.1557 -0.5371,0.1627 -1.5722,1.0957 -3.575,2.9438 -3.1739,5.3422 -3.2422,6.4316 -0.069,1.1065 0.021,1.6693 0.092,2.1876 0.141,1.0365 0.3247,1.7666 0.5507,2.6269 0.4521,1.7207 1.1001,3.7778 1.9864,6.4219 1.7726,5.2881 4.4876,12.7959 8.1367,22.5449 7.2983,19.498 18.3161,47.8865 32.6855,84.2637 28.739,72.7543 70.8707,177.4258 123.252,306.2539 104.7627,257.6561 250.5179,611.9214 412.0254,1000.4394 161.4998,388.9996 308.9993,743.9992 416.373,1002.6211 53.6871,129.3115 97.3443,234.5294 127.7012,307.8516 15.1785,36.6611 27.0323,65.35 35.1504,85.082 4.059,9.866 7.1833,17.4942 9.3184,22.7481 1.0675,2.6269 1.8892,4.6621 2.4472,6.0664 0.558,1.4042 1.1681,3.4025 0.6719,1.666 a 8.8442004,8.8442004 0 0 0 0.375,1.0547 c 4.7618,11.1108 16.3328,17.7686 27.9258,13.9043 a 8.8442004,8.8442004 0 0 0 0.5508,-0.2032 c 55.4558,-22.6864 928.0452,-385.0188 1787.6718,-742.2695 429.8134,-178.6253 856.2827,-355.9384 1175.4883,-488.7832 159.6028,-66.4224 292.3878,-121.7265 385.3711,-160.5215 46.4917,-19.3975 83.0323,-34.6684 108.0039,-45.1386 12.4858,-5.2352 22.0789,-9.2698 28.5879,-12.0254 3.2545,-1.3778 5.7342,-2.4336 7.4414,-3.17 0.8536,-0.3681 1.5083,-0.6538 2.0078,-0.8769 0.2498,-0.1115 0.4528,-0.2029 0.6836,-0.3125 0.2309,-0.1096 -2.727,3.5434 2.6504,-1.834 0,-0 2.568,-7.1505 2.4688,-7.7461 -0.099,-0.5955 -0.1688,-0.8067 -0.2247,-1.0078 -0.1116,-0.4023 -0.1839,-0.6084 -0.2656,-0.8477 -0.1633,-0.4785 -0.3472,-0.9792 -0.5898,-1.625 -0.4852,-1.2915 -1.1868,-3.1007 -2.1211,-5.4746 -1.8686,-4.7477 -4.6576,-11.726 -8.334,-20.8515 -7.3528,-18.251 -18.2474,-45.0737 -32.3125,-79.5567 -28.1302,-68.966 -68.9431,-168.565 -119.4453,-291.3828 -101.0042,-245.6351 -240.7578,-584.1429 -395.2617,-956.1523 l -0,-0 -560.9941,-1350.9863 -61.8242,-150.2793 a 8.8442004,8.8442004 0 0 0 -11.5391,-4.8145 z m -23.0234,57.2618 c 0.1808,0.3781 0.2464,0.4821 0.4414,0.8945 2.4161,5.1125 5.9272,12.8751 10.416,23.0215 8.9774,20.2928 21.8873,50.1679 38.1445,88.2187 32.5143,76.1017 78.4298,184.9276 133.2305,315.5899 109.6013,261.3245 254.7536,610.0047 399.4375,959.1211 144.6839,349.1163 288.9004,698.6734 396.6269,961.748 53.8633,131.5373 98.6058,241.4566 129.7149,318.8711 15.5545,38.7073 27.7019,69.2939 35.8633,90.3535 4.0806,10.5298 7.169,18.6898 9.1621,24.2168 0.2672,0.741 0.3429,1.0147 0.5703,1.6602 -0.854,0.3995 -1.2702,0.6154 -2.3086,1.0918 -5.8865,2.7004 -14.6944,6.6171 -26.211,11.6562 -23.033,10.0782 -56.9331,24.6619 -100.498,43.2422 -87.1298,37.1606 -212.9343,90.3141 -368.0508,155.4981 -310.2329,130.3678 -737.7241,308.864 -1207.7129,503.8593 -469.9976,194.999 -898.9969,372.7481 -1211.4922,501.9961 -156.2476,64.6241 -283.3693,117.1225 -371.9238,153.5879 -44.2772,18.2327 -78.9134,32.4573 -102.7187,42.1817 -11.9027,4.8621 -21.1009,8.6014 -27.4258,11.1464 -1.975,0.7947 -3.1493,1.2562 -4.5547,1.8145 -1.3724,-2.1393 -2.966,-4.7218 -5.2832,-9.0664 -5.6279,-10.5518 -13.7603,-27.3316 -24.584,-50.8867 -21.6473,-47.1102 -54.1336,-121.4206 -99.9941,-228.9493 -91.7212,-215.0573 -236.969,-563.0489 -456.4649,-1093.039 a 8.8442004,8.8442004 0 0 0 -0,-0.01 c -158.997,-382.9928 -303.4952,-732.4865 -408.2403,-986.9746 -52.3725,-127.2441 -94.8085,-230.7397 -124.1445,-302.7832 -14.668,-36.0218 -26.061,-64.1837 -33.7773,-83.5 -3.8582,-9.6582 -6.7993,-17.1098 -8.7559,-22.1895 -0.1297,-0.3367 -0.1661,-0.4497 -0.2871,-0.7656 0.9222,-0.4259 1.3679,-0.6509 2.4902,-1.1602 6.3808,-2.8949 15.9533,-7.1177 28.4453,-12.5508 24.9841,-10.8661 61.6829,-26.5925 108.4043,-46.4707 93.4429,-39.7562 226.9905,-96.1275 387.3438,-163.5625 320.7066,-134.8699 748.6403,-313.9945 1177.5097,-492.9921 428.8695,-178.9977 858.6766,-357.8705 1183.1329,-492.2403 162.2281,-67.1849 298.122,-123.2435 394.3769,-162.625 48.1275,-19.6907 86.3488,-35.2139 112.9746,-45.8633 13.3129,-5.3246 23.7311,-9.4335 31,-12.2207 2.2089,-0.8469 3.5344,-1.325 5.1446,-1.9218 z m -1443.4239,629.582 c -35.6454,0.4938 -72.5745,5.081 -103.791,14.125 -0.01,0 -0.01,0 -0.016,0.01 -0.01,0 -0.012,0 -0.018,0 -60.1513,17.2023 -135.0041,83.9987 -175.2051,155.0918 -15.6443,26.9911 -29.651,74.1605 -40.373,126.7617 -10.7263,52.6218 -17.8027,110.2336 -17.8028,156.6406 0,174.4477 101.9107,349.7371 291.1973,506.8047 a 8.8442004,8.8442004 0 0 0 0.035,0.031 c 105.4222,86.5258 204.1363,189.3858 254.2695,263.0957 24.08,35.8862 31.5896,80.1638 22.0137,133.377 -9.5763,53.215 -36.5222,115.0435 -81.0957,183.8848 a 8.8442004,8.8442004 0 0 0 -0.018,0.029 c -61.0692,95.1078 -70.0098,114.1704 -100.0547,218.3261 a 8.8442004,8.8442004 0 0 0 -0.014,0.047 c -19.5595,69.2106 -28.9582,111.0102 -22.1797,146.8008 6.7731,35.7615 29.8068,62.7308 70.545,100.9629 59.63,57.6086 94.7851,72.4046 186.4668,79.457 a 8.8442004,8.8442004 0 0 0 0.021,0 c 46.596,3.4699 75.6338,9.0452 95.4609,20.1484 19.799,11.0875 31.9073,27.8253 45.0527,57.4941 8.5065,20.3396 12.7883,43.0073 12.6738,59.6036 -0.057,8.3043 -1.3254,15.0892 -2.9277,18.7441 -0.7363,1.6795 -1.135,2.3783 -1.4746,2.7988 -0.4391,-0.3222 -0.6865,-0.4661 -1.2793,-0.9512 -2.366,-1.9358 -5.726,-5.0404 -9.5957,-8.9101 -7.7394,-7.7395 -17.6156,-18.5938 -27.4609,-30.4082 -15.125,-18.6486 -26.1146,-30.6477 -38.709,-38.5723 -12.617,-7.9387 -26.2474,-11.0264 -44.3281,-12.5761 a 8.8442004,8.8442004 0 0 0 -0.061,-0.01 c -19.267,-1.5211 -32.3316,-1.7239 -44.8223,4.3691 -12.4906,6.0931 -22.4609,17.0447 -38.5625,35.6621 a 8.8442004,8.8442004 0 0 0 -0,0.01 c -19.3192,22.3696 -40.0705,49.3325 -47.3359,65.0742 -4.6141,9.9972 -15.0522,16.8614 -23.9707,16.8613 -10.5814,0 -19.7773,1.4332 -27.6309,5.25 -7.8536,3.8169 -14.0464,10.2995 -17.5976,18.4278 -7.1024,16.2565 -5.5664,37.7942 0.5625,67.9277 a 8.8442004,8.8442004 0 0 0 0.016,0.078 c 4.9689,23.3539 6.8925,36.3703 6.1016,44.2793 -0.7909,7.9091 -3.5011,12.0235 -11.2149,21.1836 l 0.291,-0.3281 c -29.4104,31.589 -44.3711,84.5515 -44.3711,146.0254 l 0.01,-0.3164 c -0.482,13.4971 -2.1914,28.6495 -4.7226,41.9082 -2.5313,13.2587 -6.1747,24.8721 -9.1172,30.0215 -11.6541,20.1464 -16.8241,40.1807 -14.4864,61.3574 2.3395,21.1927 11.7791,43.0937 27.6485,68.6895 a 8.8442004,8.8442004 0 0 0 0.062,0.1015 c 47.3557,74.122 129.8172,134.1174 217.0508,158.7481 a 8.8442004,8.8442004 0 0 0 0.098,0.027 c 64.9316,17.5212 150.5899,17.6332 210.9258,-1.0918 a 8.8442004,8.8442004 0 0 0 0.1758,-0.057 c 25.6949,-8.565 86.0437,-21.7335 130.7519,-29.6817 l -0.1113,0.018 c 46.8414,-7.7211 107.6732,-28.6768 163.9453,-54.0371 56.2658,-25.3575 107.58,-54.7449 135.6758,-81.2461 l 0.01,-0.01 c 87.6351,-82.4294 95.1342,-228.5745 15.3105,-311.5566 l -0,-0 c -25.6794,-26.7473 -64.8623,-46.11 -103.4941,-55.7031 -38.6338,-9.5936 -76.9329,-10.0949 -101.7871,6.4746 l 0.055,-0.035 c -4.2969,2.8199 -7.5734,4.3684 -10.0781,5.3653 0.6681,-2.2615 1.753,-5.2242 3.5371,-8.711 3.4161,-6.6761 8.8874,-15.1722 16.3828,-24.8437 a 8.8442004,8.8442004 0 0 0 0.016,-0.021 c 23.0576,-29.9259 42.4601,-47.9457 75.4394,-63.1113 32.9794,-15.1657 79.9829,-27.1522 156.3106,-42.6172 a 8.8442004,8.8442004 0 0 0 0.023,-0.01 c 151.473,-31.0971 213.2772,-57.1079 264.709,-112.6543 a 8.8442004,8.8442004 0 0 0 0.055,-0.059 c 51.3386,-56.4725 69.7202,-116.4432 53.0195,-181.1582 l 0.049,0.1992 c -3.4372,-14.7307 -5.3052,-26.146 -5.5215,-33.5 -0.1081,-3.677 0.2424,-6.3094 0.6055,-7.5293 0.1435,-0.4819 0.1742,-0.5398 0.1856,-0.5879 a 8.8442004,8.8442004 0 0 0 0.025,-0.016 c 7.3394,-4.8929 8.6134,-12.6925 9.0508,-21.1504 0.4375,-8.4579 -0.703,-18.59 -3.334,-30.166 l 0.031,0.1367 c -3.3676,-15.9958 -3.7737,-65.9169 1.1191,-106.0703 l 0,-0.037 c 12.1161,-95.954 3.844,-162.4174 -29.666,-239.5918 l 0.012,0.023 c -30.1508,-70.0279 -79.5643,-257.5206 -88.3359,-335.4903 a 8.8442004,8.8442004 0 0 0 0,-0.01 c -4.9144,-43.2473 -2.2157,-64.6658 11.4844,-100.8731 l -0.021,0.053 c 14.6814,-38.0629 20.348,-112.0712 19.4688,-204.7656 -0.8793,-92.6944 -8.9051,-203.2455 -23.961,-310.6445 a 8.8442004,8.8442004 0 0 0 -0,-0.021 c -12.9843,-90.89 -18.8507,-144.9113 -16.9238,-181.2812 1.9257,-36.3486 10.758,-54.8292 29.1797,-79.0762 l 0.01,-0.012 c 14.4244,-18.7493 24.6123,-26.9447 42.6563,-29.3653 18.0483,-2.4211 45.3916,2.1184 90.1347,13.5528 l -0.094,-0.025 c 51.7337,13.8298 108.5788,17.1273 156.252,11.873 23.8365,-2.6271 45.3739,-7.38 63.0078,-14.291 17.6338,-6.911 31.669,-15.8704 39.5234,-28.4375 9.4661,-15.1457 6.9315,-33.6467 -3.1855,-48.5332 -10.1171,-14.8865 -27.3492,-27.4372 -49.2754,-35.459 a 8.8442004,8.8442004 0 0 0 -0.086,-0.031 c -25.6492,-9.0841 -74.2372,-18.1404 -127.7812,-25.3047 -52.1625,-6.9795 -108.2508,-11.858 -150.6035,-12.1094 7.1339,-0.6018 15.1097,-1.1637 23.9394,-1.6719 34.5036,-1.9858 81.1563,-3.2351 134.5606,-3.7343 65.5815,-0.5007 110.6636,-1.7424 140.1152,-4.0274 14.7258,-1.1425 25.4983,-2.5106 33.3984,-4.3633 3.9501,-0.9263 7.1841,-1.9319 10.125,-3.4511 2.9034,-1.4999 6.0983,-3.71 7.6094,-8.0547 1.523,-3.7937 2.2475,-8.3143 0.8926,-12.7285 -1.4169,-4.6164 -4.811,-8.2237 -8.7129,-10.7168 -7.8037,-4.9864 -18.4189,-7.3958 -34.2617,-9.4004 -31.6857,-4.0093 -84.2259,-4.9448 -167.3418,-3.9434 l 0.057,-0 c -87.5984,0.5006 -138.4227,2.1459 -175.957,10.3282 -37.5344,8.1822 -61.2868,23.4164 -91.6543,48.7226 a 8.8442004,8.8442004 0 0 0 -0.1289,0.1094 c -15.0961,13.0833 -23.4677,19.3012 -27.4727,28.7246 -1.0012,2.3559 -1.6427,5.3372 -1.0605,8.4258 0.5822,3.0886 2.3763,5.7491 4.2304,7.4863 3.6859,3.4535 7.517,4.7504 12.0723,6.3574 0,0 0.01,10e-4 0.01,0 8.3316,3.0274 21.7951,4.481 40.8066,6.002 19.0179,1.5214 42.4542,2.5293 66.2051,2.5293 h -0.086 c 51.6122,0.4962 111.6534,4.4774 164.4882,10.3203 52.8349,5.8429 98.9315,13.7801 120.7481,21.207 a 8.8442004,8.8442004 0 0 0 0.053,0.018 c 8.1724,2.7241 14.2827,4.8816 18.2403,6.582 -1.2683,1.0088 -1.6171,1.4452 -3.543,2.8047 a 8.8442004,8.8442004 0 0 0 -0.1172,0.084 c -4.1372,3.0233 -14.8388,6.7479 -29.043,8.8965 -14.2041,2.1485 -31.996,3.1477 -51.3789,2.9023 -38.7657,-0.4907 -83.998,-5.9558 -121.0058,-16.1816 a 8.8442004,8.8442004 0 0 0 -0.1,-0.027 c -46.0941,-12.1567 -79.9986,-16.1609 -108.1329,-8.75 -28.1188,7.4069 -48.9787,26.5959 -67.6054,56.5899 -17.5498,26.8732 -33.6168,61.9664 -37.1895,84.0351 -1.3949,6.4635 -1.4835,15.0246 -1.1836,27.084 0.3034,12.1991 1.2205,27.4564 2.668,44.8262 2.8931,34.7175 7.9077,77.8346 14.4316,121.0058 11.9529,86.6664 24.9366,217.7589 26.9161,290.9981 a 8.8442004,8.8442004 0 0 0 0,0.1328 c 4.9936,118.8493 3.2266,141.5632 -16.6582,210.166 a 8.8442004,8.8442004 0 0 0 -0.041,0.1484 c -16.1205,59.4447 -20.3983,94.2075 -15.2324,133.4688 a 8.8442004,8.8442004 0 0 0 0,0.01 c 5.6129,42.3521 21.1474,112.8231 37.9512,178.4082 16.8038,65.5851 34.1884,124.9491 45.9062,148.3848 a 8.8442004,8.8442004 0 0 0 0.024,0.045 c 35.5119,70.0375 43.0251,114.9614 35.0644,230.3906 a 8.8442004,8.8442004 0 0 0 -0,0.043 l -5.4336,84.6035 -20.5547,-28.1894 c -42.2145,-58.904 -80.9454,-141.0969 -121.7813,-261.5957 -0.01,-0.016 -0.011,-0.033 -0.016,-0.049 -0,-0.014 -0.011,-0.027 -0.016,-0.041 -17.1392,-52.4111 -41.945,-115.0776 -55.4648,-142.1172 -43.8585,-87.7168 -162.4009,-254.9466 -234.4082,-333.039 a 8.8442004,8.8442004 0 0 0 -0.01,-0.01 c -48.4248,-52.4186 -71.0637,-79.514 -74.1973,-110.5137 -3.1329,-30.9934 13.2618,-70.8465 48.7129,-147.7422 l 0.02,-0.041 c 86.1294,-184.2814 106.7879,-257.6298 109.8086,-382.4883 a 8.8442004,8.8442004 0 0 0 0,-0.037 c 2.0026,-99.131 -0.7623,-112.7785 -29.8555,-173.9746 a 8.8442004,8.8442004 0 0 0 -0.041,-0.088 c -44.5059,-91.0347 -93.5056,-144.2473 -175.8398,-186.9472 -103.8459,-54.4435 -179.4984,-72.2625 -259.668,-57.8731 a 8.8442004,8.8442004 0 0 0 -0.082,0.016 c -74.8783,14.1662 -116.7171,34.4643 -155.8418,76.6778 l 0.125,-0.1309 c -6.9818,7.2311 -12.2449,12.5982 -16.0821,16.0645 -2.3346,2.1089 -3.907,3.196 -4.9687,3.8691 -0.9786,-1.1567 -2.6213,-3.4395 -5.043,-7.4023 l 0.2578,0.4492 c -9.1256,-17.1105 -28.2548,-37.5752 -50.5859,-57.2266 -22.3227,-19.644 -47.6079,-37.9519 -69.3145,-48.5449 -24.3255,-12.1455 -61.2171,-17.8936 -101.3593,-18.6582 -5.0212,-0.096 -10.0877,-0.1077 -15.1817,-0.037 z m 32.416,53.6894 c 25.0754,0.2214 61.714,15.7237 93.5645,38.6192 31.8505,22.8954 59.0597,53.1683 68.3242,79.2773 a 8.8442004,8.8442004 0 0 0 0.055,0.1485 c 4.7198,12.586 9.8908,22.5207 16.1016,29.955 6.2107,7.4344 13.9632,12.5397 22.7187,13.3692 8.7555,0.8295 17.3237,-2.6482 25.0703,-8.6367 7.7466,-5.9885 15.1368,-14.6025 22.7207,-25.8477 a 8.8442004,8.8442004 0 0 0 0.1407,-0.2168 c 29.6793,-46.9125 73.9425,-74.4078 138.3359,-88.0723 0.01,-10e-4 0.01,-8e-4 0.016,-0 0,-9e-4 0.01,-0 0.012,-0 65.063,-13.589 121.2078,-3.2663 211.3868,39.3457 a 8.8442004,8.8442004 0 0 0 0.031,0.016 c 75.4167,35.2598 129.6462,87.5417 167.8574,162.9844 a 8.8442004,8.8442004 0 0 0 0.01,0.016 c 13.9502,27.4021 20.887,42.2525 24.42,62.3906 3.533,20.1382 3.6178,46.4837 2.6191,95.418 a 8.8442004,8.8442004 0 0 0 0,0.035 c -1.9816,121.8692 -26.3181,205.689 -102.0684,357.1894 a 8.8442004,8.8442004 0 0 0 -0.01,0.02 c -40.143,80.7877 -60.4107,131.7473 -56.5176,177.9277 3.8931,46.1803 32.2334,84.2947 84.0664,138.1406 a 8.8442004,8.8442004 0 0 0 0.035,0.037 c 35.9633,36.9354 104.2524,126.1483 150.9629,196.711 a 8.8442004,8.8442004 0 0 0 0,0.01 c 66.8393,100.7578 92.1885,149.516 121.0097,232.998 a 8.8442004,8.8442004 0 0 0 0,0 c 55.0692,159.2002 78.7606,208.6506 142.9531,306.9453 a 8.8442004,8.8442004 0 0 0 0.014,0.021 c 34.3255,52.2346 55.1865,90.2575 65.3691,121.0449 10.1789,30.7763 10.1075,54.0379 2.5508,79.5586 -13.0726,43.5743 -32.8716,72.1113 -74.5039,96.5371 -41.6329,24.4263 -105.6974,43.9233 -204.8926,65.3575 -74.7594,16.056 -127.2681,30.8779 -166.793,48.8437 -39.5156,17.9617 -66.062,39.3795 -87.3652,67.4297 -0,0 -0.01,0.01 -0.01,0.014 -0,0 -0.01,0.01 -0.01,0.01 -6.4988,8.5009 -12.7512,18.1288 -18.0175,27.42 -0,-52.0519 15.1458,-95.5119 54.1953,-148.8477 a 8.8442004,8.8442004 0 0 0 0.014,-0.018 c 52.2108,-71.6618 70.6633,-150.3149 78.6856,-325.8027 a 8.8442004,8.8442004 0 0 0 0,-0.029 c 6.0035,-141.0825 4.8414,-166.1034 -15.2226,-252.3789 a 8.8442004,8.8442004 0 0 0 -0.014,-0.059 c -41.1178,-171.4913 -74.9826,-246.441 -191.1543,-427.709 a 8.8442004,8.8442004 0 0 0 -0.035,-0.057 c -42.7329,-65.59 -100.7728,-166.6725 -129.5,-224.127 a 8.8442004,8.8442004 0 0 0 -0.016,-0.031 c -51.979,-102.9585 -52.0707,-103.5996 -59.0683,-216.5606 a 8.8442004,8.8442004 0 0 0 0,-0.01 c -9.1007,-144.5998 -58.3563,-302.5711 -130.3145,-418.1133 l -0.01,-0.01 C 4163.9452,2567.4241 4066.2386,2451.417 3999.4062,2400.002 l -0.014,-0.012 c -18.0696,-13.9635 -29.3596,-23.7711 -34.8145,-29.4882 2.0174,-0.2021 3.9827,-0.4611 6.1992,-0.4415 z m -65.6093,2.5567 c 0.082,1.0264 -0.8945,6.3322 -0.6992,5.0566 -1.7924,6.572 -2.2848,12.6555 -1.129,18.2422 0.578,2.7934 1.5512,5.5683 3.7012,8.1563 2.15,2.5879 6.056,4.7715 9.959,4.7715 0.3091,0 5.4739,1.3952 11.9492,5.3593 6.4753,3.9641 14.6898,10.0395 24,17.7598 18.6204,15.4405 41.7087,37.4554 66.1738,62.9141 48.9223,50.9089 103.4812,115.7143 140.5508,170.0781 81.0355,120.5738 130.6021,270.0904 141.5039,430.6445 8.0028,118.0408 9.9125,123.3562 64.9121,233.3555 30.2461,60.4921 87.188,160.404 127.5528,220.9511 l -0.053,-0.078 c 85.714,131.561 138.2174,237.622 174.9532,357.7578 25.952,84.8431 27.6143,97.3841 25.6152,263.3067 a 8.8442004,8.8442004 0 0 0 -0,0.064 c -0.4992,101.3441 -3.5551,164.9069 -13.4433,212.8828 -9.8882,47.976 -26.3358,80.6353 -54.9902,122.1348 a 8.8442004,8.8442004 0 0 0 -0.025,0.039 c -28.2671,41.391 -45.1024,73.4408 -53.9883,117.0976 -8.8859,43.6569 -10.0532,98.3946 -8.5508,187.0391 a 8.8442004,8.8442004 0 0 0 0,0.021 c 1.9931,102.6452 -2.4534,169.103 -9.6523,194.3515 -13.7992,45.8792 -70.3884,106.6664 -142.9493,148.8301 -28.8951,16.6484 -50.9479,24.9159 -72.7714,26.0645 -21.8309,1.149 -44.2511,-4.7559 -74.0957,-18.4551 a 8.8442004,8.8442004 0 0 0 -0.057,-0.025 c -109.6493,-49.3916 -174.9969,-111.1042 -191.0215,-175.9687 -0.7161,-3.226 -0.923,-4.7422 -1.4004,-7.1524 0.4008,0.2638 0.4622,0.2606 0.8829,0.541 a 8.8442004,8.8442004 0 0 0 0.3554,0.2266 c 15.9198,9.5519 38.4801,10.1106 60.6895,6.2539 22.2094,-3.8567 44.0883,-12.3604 57.3808,-26.8613 a 8.8442004,8.8442004 0 0 0 0.053,-0.061 c 6.2431,-6.9368 11.0179,-17.3064 15.707,-29.8105 4.689,-12.5042 8.7963,-26.874 11.4043,-40.4356 a 8.8442004,8.8442004 0 0 0 0.019,-0.1035 c 1.7239,-9.5773 3.6208,-17.7718 5.4824,-25.0254 7.527,31.5607 35.7301,56.3028 67.8145,56.3028 13.6803,0 24.9521,-1.8686 34.0059,-9.629 9.0435,-7.7516 14.9446,-19.3313 23.0507,-37.5664 l 0.01,-0.02 c 12.4564,-27.5143 19.2319,-56.2197 20.0253,-81.4766 0.7936,-25.2627 -3.9935,-47.5639 -17.8359,-61.4062 -6.7767,-6.7767 -8.5359,-10.2338 -8.5644,-10.5859 -0.029,-0.3522 0.8224,-3.248 6.9941,-10.3692 a 8.8442004,8.8442004 0 0 0 0.045,-0.053 c 15.9781,-18.7329 35.6465,-55.4382 52.2149,-92.3692 8.2841,-18.4654 15.657,-36.8657 21.0195,-52.873 5.3624,-16.0073 8.8809,-29.1471 8.8809,-39.4961 0,-22.3722 -10.1213,-50.1388 -24.4415,-76.5859 -14.3201,-26.4472 -32.809,-51.1618 -52.1289,-65.5137 a 8.8442004,8.8442004 0 0 0 -0,-0 c -33.7868,-25.0676 -91.9237,-38.7213 -157.1308,-39.7402 a 8.8442004,8.8442004 0 0 0 -0.1387,-0 c -33.6734,0 -74.156,-16.6361 -107.582,-41.6152 -33.4261,-24.979 -59.5636,-58.2245 -66.8164,-88.5957 a 8.8442004,8.8442004 0 0 0 -0.031,-0.1269 c -2.8978,-11.3843 -2.4348,-31.3164 1.7246,-55.5567 4.1594,-24.2403 11.7636,-52.9696 21.9629,-83.3203 20.3987,-60.7014 51.2127,-127.9751 85.1543,-180.1172 a 8.8442004,8.8442004 0 0 0 0.022,-0.035 c 48.3647,-75.066 78.8853,-141.1569 91.5879,-200.4356 12.7026,-59.2787 7.3307,-111.9457 -16.1289,-158.3437 a 8.8442004,8.8442004 0 0 0 -0.057,-0.1094 c -17.8495,-34.1242 -56.5575,-83.0946 -105.3261,-136.1367 -48.768,-53.0415 -107.483,-109.7522 -164.8457,-157.5547 l -0,-0 c -119.8887,-99.9905 -197.3054,-191.9838 -239.0391,-288.9531 -41.7286,-96.9578 -48.2059,-199.2708 -24.9433,-321.5566 17.8774,-91.3733 33.2922,-122.2046 90.7793,-183.6563 a 8.8442004,8.8442004 0 0 0 0.01,-0.01 c 41.4331,-44.3926 62.0346,-55.5275 130.4141,-70.3926 a 8.8442004,8.8442004 0 0 0 0.08,-0.018 c 5.0526,-1.1483 8.7271,-1.7771 11.209,-2.0058 z m -1957.1739,747.164 c -0.9305,2.0318 -2.2952,1.1903 -2.6211,1.2657 0.2426,-0.1285 0.4705,-0.2507 1.002,-0.5117 0.339,-0.1666 1.1851,-0.5469 1.6191,-0.754 z m 2294.5762,1403.0704 c 13.4227,0.7743 32.4695,13.3657 57.8067,42.0078 a 8.8442004,8.8442004 0 0 0 0.014,0.016 c 19.214,21.6157 26.7466,38.3374 24.9356,56.2344 -1.811,17.8969 -13.9241,39.0619 -38.916,66.9941 l 0.1015,-0.1113 c -12.8062,13.8307 -21.8314,25.5916 -27.3359,36.8828 -5.5045,11.2912 -7.2813,22.5336 -4.7832,33.1504 l -0.08,-0.3711 c 0.9421,4.9459 1.2881,8.5574 1.1855,10.4863 -0.1025,1.929 -0.2922,1.6458 -0.1269,1.4805 0.1653,-0.1653 -0.4118,0.4208 -3.0098,0.8672 -2.5979,0.4463 -6.8035,0.6679 -12.3613,0.6679 -19.7744,0 -37.2263,10.0048 -49.9316,27.6817 -12.7053,17.6769 -21.6204,42.7897 -27.7598,75.5332 l 0.01,-0.041 c -2.3888,12.4219 -6.0165,24.4739 -9.7637,33.7246 -3.6999,9.1341 -8.8057,15.6972 -8.623,15.6406 -15.1343,9.3071 -42.1295,8.3553 -69.0859,-4.6582 a 8.8442004,8.8442004 0 0 0 -0.041,-0.021 c -4.9892,-2.3758 -8.3408,-4.3477 -10.3398,-6.1133 -1.999,-1.7656 -2.9588,-3.1653 -3.8672,-6.1933 -1.8152,-6.0507 -1.7692,-19.1103 0.2129,-42.918 3.9286,-40.2157 9.6287,-55.772 30.582,-77.6777 a 8.8442004,8.8442004 0 0 0 0.074,-0.08 c 14.1649,-15.1766 23.387,-26.7705 24.8477,-44.2988 1.4572,-17.4863 -3.7085,-38.7715 -13.6836,-77.6797 -1.2034,-5.5461 -1.9035,-9.7349 -2.0137,-12.2129 -0.049,-1.1092 0.019,-1.6221 0.064,-1.9512 0.2432,-0.085 0.5406,-0.2021 1.4531,-0.3769 2.2369,-0.4286 6.3094,-0.6699 11.8672,-0.6699 10.8963,0 21.0719,-3.0143 29.6797,-9.961 8.6078,-6.9467 15.7674,-17.0925 23.998,-31.4961 a 8.8442004,8.8442004 0 0 0 0.1563,-0.2832 c 10.6641,-20.3588 29.8186,-50.4179 42.8222,-65.2793 a 8.8442004,8.8442004 0 0 0 0.1524,-0.1816 c 11.7683,-14.2031 21.3219,-19.3932 31.7617,-18.791 z m 129.6406,38.5605 c 1.2875,0.4925 -0.8084,-0.1214 0,0 z m -62.5976,210.0918 c 0.054,0.1402 0.01,-0 0.068,0.1797 0.7706,2.3994 1.4746,8.0759 1.4746,16.3164 0,15.6128 -4.2261,40.7112 -9.2851,52.5156 a 8.8442004,8.8442004 0 0 0 -0.1387,0.3477 c -5.024,13.2451 -11.7756,19.1753 -13.414,19.6699 -0.8193,0.2473 -0.3449,0.4206 -1.3418,-0.377 -0.997,-0.7975 -2.977,-3.3223 -4.625,-8.0605 a 8.8442004,8.8442004 0 0 0 -0.1407,-0.3809 c -0.336,-0.84 -1.4251,-7.9781 -1.3066,-16.1972 0.1185,-8.2192 0.9053,-18.1199 2.1172,-27.5117 1.2118,-9.3919 2.8748,-18.3504 4.5664,-24.4825 0.7083,-2.5676 1.3706,-4.2041 1.8926,-5.3925 0.1497,-0.046 0.2886,-0.085 0.4511,-0.1309 1.4302,-0.4005 2.9906,-0.9031 4.7403,-1.4863 3.4993,-1.1665 7.7182,-2.6561 12.125,-4.125 a 8.8442004,8.8442004 0 0 0 0.6035,-0.2266 c 1.5477,-0.6449 1.7796,-0.5871 2.2129,-0.6582 z m 410.3496,0.7695 c 6.8742,-0.177 15.664,0.6293 26.584,2.4493 a 8.8442004,8.8442004 0 0 0 0.094,0.016 c 43.5317,6.7716 74.0528,22.5491 94.1856,47.8887 20.1327,25.3395 30.33,61.1236 30.33,109.373 0,38.4179 -6.6378,64.3695 -26.664,89.1973 -20.0262,24.8277 -54.555,48.7167 -110.6934,79.0215 a 8.8442004,8.8442004 0 0 0 -0.055,0.029 c -25.3366,13.9104 -51.7124,27.3459 -73.7675,37.754 -22.0552,10.408 -40.5905,17.882 -47.002,19.3906 l -1.4629,0.3418 11.918,-12.6621 0.01,-0.012 c 52.1559,-55.2286 68.4304,-106.3512 65.4003,-205.332 a 8.8442004,8.8442004 0 0 0 -0,-0.049 c -2.4989,-68.9694 -3.4458,-106.5179 -1.8926,-127.7852 0.7766,-10.6336 2.1726,-17.0197 3.9102,-21.2617 1.7375,-4.2419 3.7567,-6.7371 7.3984,-10.3789 a 8.8442004,8.8442004 0 0 0 0.2891,-0.3047 c 4.5004,-4.9504 9.9631,-7.3807 21.4199,-7.6758 z m -93.2891,100.9336 c 0.1219,0.496 0.2447,0.839 0.3653,1.3614 2.427,10.5123 4.6624,26.3672 6.1406,47.0625 a 8.8442004,8.8442004 0 0 0 0,0.035 c 4.4355,58.6462 -0.8193,102.4526 -17.5605,138.0723 -16.7412,35.6196 -45.1413,63.7722 -89.2324,90.7168 a 8.8442004,8.8442004 0 0 0 -0.024,0.014 c -12.3708,7.6128 -26.4389,15.2675 -38.9961,21.5566 18.0901,-15.5749 41.2669,-37.1536 59.8848,-55.7715 a 8.8442004,8.8442004 0 0 0 0.061,-0.062 c 51.2378,-52.2626 70.4719,-104.8451 75.5175,-206.7441 v -0.01 c 0.802,-15.8314 2.2244,-27.8692 3.8418,-36.2305 z m -597.5371,151.6016 c 2.3393,4.7983 3.7632,7.5035 6.8731,13.9824 0,0 0,0.01 0.01,0.012 0.01,0.011 0.01,0.013 0.012,0.024 5.3959,11.3668 10.9971,21.7683 17.0762,31.498 -5.3154,-6.1872 -9.9141,-11.8555 -13.1504,-16.6484 -7.6622,-11.3479 -10.1666,-19.1377 -10.8164,-28.8672 z m 107.1367,128.1504 c 13.1079,9.1331 27.422,18.4889 44.1485,28.6074 4.761,2.8855 8.7378,5.4235 13.0176,8.0996 -17.8193,-7.4891 -36.2847,-19.2671 -57.1661,-36.707 z m 99.1172,47.0898 c 0.6204,0.01 0.8915,0.2 1.0625,0.2285 a 8.8442004,8.8442004 0 0 0 -0.6875,-0.088 c -0.1974,-0.017 -0.3887,-0.066 -0.5859,-0.084 0.045,-10e-4 0.1694,-0.057 0.2109,-0.057 z"
       style="stroke:#fbfbfb;stroke-opacity:1;stroke-width:3;stroke-dasharray:none" />
    <path
       d="m 3077,5938 c -2,-7 -269,-649 -592,-1427 -323,-777 -583,-1417 -578,-1421 4,-4 786,-330 1738,-724 952,-395 1763.1691,-728.2939 1763.1691,-728.2939 L 5470,1788 6031,3139 c 309,744 559,1354 558,1355 -3,3 -3385,1408 -3495,1453 -6,2 -14,-2 -17,-9 z m 1757,-744 c 940,-390 1710,-714 1712,-719 5,-13 -1150,-2800 -1160,-2799 -30,4 -3446,1430 -3446,1438 0,6 260,638 578,1404 439,1060 581,1392 592,1389 8,-2 784,-323 1724,-713 z m -614,52 c -85,-24 -166,-83 -212,-155 -31,-50 -35,-83 -13,-121 8,-14 14,-48 15,-76 0,-60 15,-111 42,-140 16,-19 17,-26 7,-73 -12,-59 -3,-81 36,-81 13,0 26,-9 32,-22 6,-13 27,-41 46,-63 32,-37 38,-40 76,-37 35,3 47,11 77,48 20,24 40,44 44,44 19,0 19,-51 1,-94 -27,-61 -54,-76 -148,-83 -91,-7 -122,-20 -181,-77 -81,-76 -85,-101 -46,-239 30,-104 38,-121 99,-216 90,-139 110,-251 59,-327 -51,-75 -150,-178 -256,-265 -188,-156 -288,-329 -288,-500 0,-91 28,-229 57,-279 39,-69 114,-135 170,-151 69,-20 170,-18 214,4 41,20 100,72 116,102 11,18 12,18 40,-11 38,-41 77,-60 151,-74 78,-14 151,3 254,57 81,42 128,93 172,183 29,61 31,71 29,170 -3,124 -23,195 -109,379 -71,154 -70,163 27,268 71,77 190,245 233,331 13,26 38,89 55,141 41,121 80,204 123,264 l 35,48 7,-109 c 8,-116 0,-164 -36,-235 -21,-42 -72,-241 -83,-324 -5,-38 -1,-71 15,-130 20,-69 22,-94 17,-213 -2,-74 -15,-205 -27,-292 -13,-86 -20,-172 -16,-190 3,-19 19,-55 36,-81 36,-58 75,-68 166,-44 76,21 183,22 209,3 17,-12 16,-14 -17,-25 -47,-16 -184,-31 -288,-32 -47,0 -93,-4 -104,-8 -17,-6 -15,-10 15,-36 60,-50 87,-56 262,-57 166,-2 210,4 201,25 -3,9 -52,13 -183,14 -107,1 -187,5 -198,12 -14,8 -7,10 36,11 84,0 231,20 279,37 41,15 63,47 48,71 -25,40 -148,54 -249,27 -90,-23 -112,-20 -142,19 -38,50 -40,85 -14,267 30,214 32,441 5,511 -14,37 -17,61 -12,105 9,80 58,266 89,338 33,76 41,140 29,235 -5,41 -5,90 -1,109 5,22 4,38 -2,42 -7,4 -6,21 1,51 16,62 -1,118 -51,173 -50,54 -109,79 -260,110 -153,31 -190,48 -237,109 -31,40 -30,62 2,41 42,-28 146,-2 194,48 76,79 69,220 -15,299 -53,50 -204,118 -295,133 -45,8 -105,21 -132,30 -58,18 -143,18 -206,1 z m -35,-72 c -81,-49 -113,-80 -141,-139 -24,-50 -24,-50 -24,-16 0,28 11,44 68,101 60,61 101,85 147,89 6,1 -17,-15 -50,-35 z m 346,-16 c 90,-55 120,-118 111,-237 -6,-84 -24,-91 -28,-12 -5,101 -23,150 -73,201 -25,25 -59,56 -76,69 -28,20 -28,22 -6,15 14,-4 46,-20 72,-36 z m -116,3 c 74,-43 132,-104 147,-154 8,-28 12,-94 10,-197 -3,-177 5,-217 61,-299 58,-84 69,-137 70,-340 2,-166 0,-181 -26,-266 -37,-121 -90,-228 -176,-360 -40,-60 -97,-160 -127,-220 -55,-110 -56,-112 -64,-230 -11,-162 -61,-313 -143,-435 -75,-110 -219,-260 -250,-260 -5,0 -7,-9 -4,-20 4,-17 1,-19 -21,-14 -69,15 -93,28 -135,73 -58,62 -75,96 -93,188 -47,247 26,418 267,619 114,95 234,226 268,291 45,89 21,201 -75,350 -69,106 -124,271 -110,326 16,67 110,137 183,137 64,1 121,15 152,38 35,26 73,96 73,135 0,32 -51,145 -80,179 -13,15 -12,19 2,33 22,22 20,80 -4,133 -16,36 -23,42 -49,42 -32,0 -61,-30 -61,-64 0,-32 -12,-10 -21,40 -5,26 -16,56 -25,66 -22,24 -82,34 -107,19 -18,-12 -19,-11 -13,16 17,69 85,132 196,182 61,28 96,26 155,-8 z m 323,-53 c 113,-61 142,-97 142,-176 0,-99 -42,-152 -132,-166 -30,-5 -46,-3 -56,8 -16,16 -17,28 -12,166 3,98 -12,145 -63,199 l -32,34 30,-7 c 17,-4 72,-30 123,-58 z m -589,-177 c 7,-5 17,-29 22,-55 12,-64 35,-96 69,-96 23,0 27,-3 23,-24 -4,-17 5,-35 30,-62 51,-57 54,-90 14,-135 -46,-52 -74,-58 -103,-23 -14,16 -33,46 -44,67 -16,28 -27,37 -46,37 -23,0 -25,3 -20,26 20,78 19,84 -9,114 -22,23 -29,42 -33,83 -4,48 -2,54 19,64 29,14 59,16 78,4 z m 161,-87 c 6,-14 10,-39 10,-56 0,-23 -4,-29 -16,-24 -9,3 -17,6 -19,6 -8,0 -17,70 -11,85 8,23 25,18 36,-11 z m 336,-181 c 41,-54 100,-81 249,-113 199,-43 259,-78 286,-168 16,-54 0,-103 -69,-208 -64,-98 -87,-146 -142,-305 -29,-84 -55,-134 -122,-235 -47,-71 -115,-160 -152,-198 -103,-107 -106,-145 -26,-306 76,-152 101,-238 103,-361 2,-98 0,-107 -28,-162 -39,-77 -95,-131 -172,-167 -91,-43 -150,-54 -217,-40 -66,14 -113,43 -144,92 -29,43 -53,41 -71,-7 -22,-62 -126,-132 -181,-123 -16,2 -10,11 34,45 65,50 163,166 227,269 71,114 120,271 129,414 7,113 8,117 60,220 29,58 87,159 130,225 116,181 149,254 190,425 20,86 21,109 15,250 -8,175 -26,251 -77,321 -41,56 -57,103 -56,159 0,25 3,36 5,25 3,-11 16,-35 29,-52 z"
       id="path2"
       style="stroke:#fbfbfb;stroke-opacity:1;stroke-width:3;stroke-dasharray:none" />
  </g>
</svg>
