<svg xmlns="http://www.w3.org/2000/svg" width="868" height="595" viewBox="0 0 868 595"><path fill="#2bb5b8" d="M307.7 1.2c-.2.7-26.9 64.9-59.2 142.7-32.3 77.7-58.3 141.7-57.8 142.1.4.4 78.6 33 173.8 72.4 95.2 39.5 173.4 72.1 173.8 72.5.5.5-13.8 36.1-31.7 79.2-30.2 73-32.3 78.5-30.5 79.3 1.2.6 2.3.6 2.8 0 .4-.5 13.6-31.8 29.2-69.7 15.6-37.8 28.6-68.7 28.9-68.7s14.7 32.4 31.9 72c17.3 39.6 31.7 72 32 72 .4 0 1.4-.6 2.3-1.3 1.3-1-2.4-10.2-30.8-75.2-17.8-40.7-32.4-74.5-32.4-75.2 0-1.2 4.9-13.3 6-14.5.3-.4 15.8 35.6 34.5 80 18.6 44.4 34.1 81 34.5 81.5.3.4 1.4.1 2.5-.6 1.7-1.3-.3-6.3-34.4-87.4L547 416.2l56.1-135.1c30.9-74.4 55.9-135.4 55.8-135.5-.3-.3-338.5-140.8-349.5-145.3-.6-.2-1.4.2-1.7.9m175.7 74.4c94 39 171 71.4 171.2 71.9.5 1.3-115 280-116 279.9-3-.4-344.6-143-344.6-143.8 0-.6 26-63.8 57.8-140.4C295.7 37.2 309.9 4 311 4.3c.8.2 78.4 32.3 172.4 71.3M422 70.4c-8.5 2.4-16.6 8.3-21.2 15.5-3.1 5-3.5 8.3-1.3 12.1.8 1.4 1.4 4.8 1.5 7.6 0 6 1.5 11.1 4.2 14 1.6 1.9 1.7 2.6.7 7.3-1.2 5.9-.3 8.1 3.6 8.1 1.3 0 2.6.9 3.2 2.2s2.7 4.1 4.6 6.3c3.2 3.7 3.8 4 7.6 3.7 3.5-.3 4.7-1.1 7.7-4.8 2-2.4 4-4.4 4.4-4.4 1.9 0 1.9 5.1.1 9.4-2.7 6.1-5.4 7.6-14.8 8.3-9.1.7-12.2 2-18.1 7.7-8.1 7.6-8.5 10.1-4.6 23.9 3 10.4 3.8 12.1 9.9 21.6 9 13.9 11 25.1 5.9 32.7-5.1 7.5-15 17.8-25.6 26.5-18.8 15.6-28.8 32.9-28.8 50 0 9.1 2.8 22.9 5.7 27.9 3.9 6.9 11.4 13.5 17 15.1 6.9 2 17 1.8 21.4-.4 4.1-2 10-7.2 11.6-10.2 1.1-1.8 1.2-1.8 4 1.1 3.8 4.1 7.7 6 15.1 7.4 7.8 1.4 15.1-.3 25.4-5.7 8.1-4.2 12.8-9.3 17.2-18.3 2.9-6.1 3.1-7.1 2.9-17-.3-12.4-2.3-19.5-10.9-37.9-7.1-15.4-7-16.3 2.7-26.8 7.1-7.7 19-24.5 23.3-33.1 1.3-2.6 3.8-8.9 5.5-14.1 4.1-12.1 8-20.4 12.3-26.4l3.5-4.8.7 10.9c.8 11.6 0 16.4-3.6 23.5-2.1 4.2-7.2 24.1-8.3 32.4-.5 3.8-.1 7.1 1.5 13 2 6.9 2.2 9.4 1.7 21.3-.2 7.4-1.5 20.5-2.7 29.2-1.3 8.6-2 17.2-1.6 19 .3 1.9 1.9 5.5 3.6 8.1 3.6 5.8 7.5 6.8 16.6 4.4 7.6-2.1 18.3-2.2 20.9-.3 1.7 1.2 1.6 1.4-1.7 2.5-4.7 1.6-18.4 3.1-28.8 3.2-4.7 0-9.3.4-10.4.8-1.7.6-1.5 1 1.5 3.6 6 5 8.7 5.6 26.2 5.7 16.6.2 21-.4 20.1-2.5-.3-.9-5.2-1.3-18.3-1.4-10.7-.1-18.7-.5-19.8-1.2-1.4-.8-.7-1 3.6-1.1 8.4 0 23.1-2 27.9-3.7 4.1-1.5 6.3-4.7 4.8-7.1-2.5-4-14.8-5.4-24.9-2.7-9 2.3-11.2 2-14.2-1.9-3.8-5-4-8.5-1.4-26.7 3-21.4 3.2-44.1.5-51.1-1.4-3.7-1.7-6.1-1.2-10.5.9-8 5.8-26.6 8.9-33.8 3.3-7.6 4.1-14 2.9-23.5-.5-4.1-.5-9-.1-10.9.5-2.2.4-3.8-.2-4.2-.7-.4-.6-2.1.1-5.1 1.6-6.2-.1-11.8-5.1-17.3-5-5.4-10.9-7.9-26-11-15.3-3.1-19-4.8-23.7-10.9-3.1-4-3-6.2.2-4.1 4.2 2.8 14.6.2 19.4-4.8 7.6-7.9 6.9-22-1.5-29.9-5.3-5-20.4-11.8-29.5-13.3-4.5-.8-10.5-2.1-13.2-3-5.8-1.8-14.3-1.8-20.6-.1m-3.5 7.2c-8.1 4.9-11.3 8-14.1 13.9-2.4 5-2.4 5-2.4 1.6 0-2.8 1.1-4.4 6.8-10.1 6-6.1 10.1-8.5 14.7-8.9.6-.1-1.7 1.5-5 3.5m34.6 1.6c9 5.5 12 11.8 11.1 23.7-.6 8.4-2.4 9.1-2.8 1.2-.5-10.1-2.3-15-7.3-20.1-2.5-2.5-5.9-5.6-7.6-6.9-2.8-2-2.8-2.2-.6-1.5 1.4.4 4.6 2 7.2 3.6m-11.6-.3c7.4 4.3 13.2 10.4 14.7 15.4.8 2.8 1.2 9.4 1 19.7-.3 17.7.5 21.7 6.1 29.9 5.8 8.4 6.9 13.7 7 34 .2 16.6 0 18.1-2.6 26.6-3.7 12.1-9 22.8-17.6 36-4 6-9.7 16-12.7 22-5.5 11-5.6 11.2-6.4 23-1.1 16.2-6.1 31.3-14.3 43.5-7.5 11-21.9 26-25 26-.5 0-.7.9-.4 2 .4 1.7.1 1.9-2.1 1.4-6.9-1.5-9.3-2.8-13.5-7.3-5.8-6.2-7.5-9.6-9.3-18.8-4.7-24.7 2.6-41.8 26.7-61.9 11.4-9.5 23.4-22.6 26.8-29.1 4.5-8.9 2.1-20.1-7.5-35-6.9-10.6-12.4-27.1-11-32.6 1.6-6.7 11-13.7 18.3-13.7 6.4-.1 12.1-1.5 15.2-3.8 3.5-2.6 7.3-9.6 7.3-13.5 0-3.2-5.1-14.5-8-17.9-1.3-1.5-1.2-1.9.2-3.3 2.2-2.2 2-8-.4-13.3-1.6-3.6-2.3-4.2-4.9-4.2-3.2 0-6.1 3-6.1 6.4 0 3.2-1.2 1-2.1-4-.5-2.6-1.6-5.6-2.5-6.6-2.2-2.4-8.2-3.4-10.7-1.9-1.8 1.2-1.9 1.1-1.3-1.6 1.7-6.9 8.5-13.2 19.6-18.2 6.1-2.8 9.6-2.6 15.5.8m32.3 5.3c11.3 6.1 14.2 9.7 14.2 17.6 0 9.9-4.2 15.2-13.2 16.6-3 .5-4.6.3-5.6-.8-1.6-1.6-1.7-2.8-1.2-16.6.3-9.8-1.2-14.5-6.3-19.9l-3.2-3.4 3 .7c1.7.4 7.2 3 12.3 5.8m-58.9 17.7c.7.5 1.7 2.9 2.2 5.5q1.8 9.6 6.9 9.6c2.3 0 2.7.3 2.3 2.4-.4 1.7.5 3.5 3 6.2 5.1 5.7 5.4 9 1.4 13.5-4.6 5.2-7.4 5.8-10.3 2.3-1.4-1.6-3.3-4.6-4.4-6.7-1.6-2.8-2.7-3.7-4.6-3.7-2.3 0-2.5-.3-2-2.6 2-7.8 1.9-8.4-.9-11.4-2.2-2.3-2.9-4.2-3.3-8.3-.4-4.8-.2-5.4 1.9-6.4 2.9-1.4 5.9-1.6 7.8-.4m16.1 8.7c.6 1.4 1 3.9 1 5.6 0 2.3-.4 2.9-1.6 2.4-.9-.3-1.7-.6-1.9-.6-.8 0-1.7-7-1.1-8.5.8-2.3 2.5-1.8 3.6 1.1m33.6 18.1c4.1 5.4 10 8.1 24.9 11.3 19.9 4.3 25.9 7.8 28.6 16.8 1.6 5.4 0 10.3-6.9 20.8-6.4 9.8-8.7 14.6-14.2 30.5-2.9 8.4-5.5 13.4-12.2 23.5-4.7 7.1-11.5 16-15.2 19.8-10.3 10.7-10.6 14.5-2.6 30.6 7.6 15.2 10.1 23.8 10.3 36.1.2 9.8 0 10.7-2.8 16.2-3.9 7.7-9.5 13.1-17.2 16.7-9.1 4.3-15 5.4-21.7 4-6.6-1.4-11.3-4.3-14.4-9.2-2.9-4.3-5.3-4.1-7.1.7-2.2 6.2-12.6 13.2-18.1 12.3-1.6-.2-1-1.1 3.4-4.5 6.5-5 16.3-16.6 22.7-26.9 7.1-11.4 12-27.1 12.9-41.4.7-11.3.8-11.7 6-22 2.9-5.8 8.7-15.9 13-22.5 11.6-18.1 14.9-25.4 19-42.5 2-8.6 2.1-10.9 1.5-25-.8-17.5-2.6-25.1-7.7-32.1-4.1-5.6-5.7-10.3-5.6-15.9 0-2.5.3-3.6.5-2.5.3 1.1 1.6 3.5 2.9 5.2M634 502.5V589h2.3c1.2 0 14.4-1.6 29.2-3.5 31.8-4.1 43.3-7.1 57.4-14.8 12.1-6.7 24.3-19.2 29.6-30.2 4.7-9.9 7.5-21.7 7.5-31.3 0-13.7-7.1-34.1-15.9-46.1-5.6-7.6-16.5-18.3-23.1-22.8-5.9-4-19.2-10.6-25.5-12.6-4.5-1.5-57.2-11.7-60.2-11.7-1 0-1.3 18-1.3 86.5M300.5 421c-36.2 3.8-66.3 24.7-79 54.9-4 9.5-6.9 27.1-6.1 37.1 1.6 19.1 13.7 43.3 28.8 57.6 19.2 18.1 37.5 24 71.8 23.3l16.5-.4 3.9-3 3.9-3-.6-17c-.4-9.3-.7-27-.7-39.3V509h-5.3l.6 38.4.6 38.4-3.4 1.6c-5 2.4-33.9 2.2-46-.3-24.2-5-43.9-20.9-56-45.1-9-17.9-11.1-31.2-7.7-48.6 6.4-32.2 27.3-53.9 61.7-63.9 13.6-3.9 25.7-5 35.8-3.1 10.5 2 10.4 2 11-.4.4-1.6-.2-2.2-3.1-2.9-4.7-1.3-16.2-3.1-18.2-3-.8.1-4.7.5-8.5.9M0 494v70l3.6 7.1c4.7 9.4 10.2 15.2 18.2 19.1 5.5 2.8 7.8 3.3 15.6 3.6 7.5.3 10.1 0 14.9-1.8 7.4-2.8 16.3-11 20.5-18.8l3.2-6V424h-5v142.5l-2.9 5.1c-3.8 6.6-11.9 13.8-17.8 15.8-2.6.9-7.7 1.6-11.4 1.6-13.2 0-23.5-6.3-30-18.2l-3.4-6.3-.5-70-.5-70-2.2-.3-2.3-.3zm779 13.5V591h89.1l-.3-2.3-.3-2.2-41.7-.3-41.8-.2v-72h48v-5h-24c-20.7 0-24-.2-24-1.5s3.3-1.5 24-1.5h24v-5h-48v-72l41.8-.2c40.9-.3 41.7-.3 41.7-2.3s-.8-2-44.2-2.3L779 424zm-651.5-81.9c-1.6.2-5.4.7-8.2 1l-5.3.5V592h5V431.2l11.8-.7c22-1.4 40.3 1.1 51.3 7.2 6.6 3.6 12.4 10 16.2 18.1 3 6.2 3.2 7.5 3.2 17.2 0 9.4-.3 11.1-2.8 16.1-5.2 10.7-15.8 17.9-29.2 19.9-3.9.5-14.1 1-22.7 1H131v82h5v-77h12.9c25.9 0 38-3.7 47.9-14.5 7.5-8.2 9.6-14.4 9.7-28 0-10.6-.1-11.3-3.7-18.7-9.4-19.8-25.3-27.7-56.8-28.3-8.5-.2-16.8-.1-18.5.1m250 2.3q-7.05.6-6.9 1.8c.1.7.2 37.1.3 80.9l.1 79.5 2.3-.3 2.2-.3.3-78.2.2-78.1 8.8-.8c10.8-.9 31.5.2 40.3 2 18.3 3.9 28 15 31 35 2.5 16.7-5.8 31.6-20.9 37.6-5.1 2.1-7.9 2.4-28.2 2.9-22.4.6-22.5.6-22.8 2.8s0 2.3 6.1 2.3h6.4l25.9 39c14.2 21.4 26.2 39 26.5 39s1.2-.6 2.1-1.3c1.4-1-1.6-5.9-23.3-38.7-13.6-20.6-24.4-37.7-23.8-37.8.5-.2 1.6-.2 2.3.1s12 16.9 25.1 36.9c13.1 19.9 24.4 37 25.1 37.8 1.2 1.2 1.6 1.2 3-.1 1.4-1.5-.7-5-22.4-38l-23.8-36.4 3.5-.3c16.2-1.2 27.2-5.3 34-12.7 5.1-5.5 7.7-10.8 9.7-19.2 1.3-5.7 1.4-8.1.4-14.8-2.8-19.4-11.9-31.3-28.4-37.1-9.9-3.6-34.7-5.1-55.1-3.5M320 546v40h5v-80h-5z" class="logo-paths"/></svg>