<svg xmlns="http://www.w3.org/2000/svg" width="868.1" height="179" preserveAspectRatio="xMidYMid" viewBox="0 0 868.1 179"><path fill="#2bb5b8" d="M506.6 94.1c-30.2 73-32.3 78.5-30.5 79.3 1.2.6 2.3.6 2.8 0 .4-.5 13.6-31.8 29.2-69.7C523.7 65.9 536.7 35 537 35s14.7 32.4 31.9 72c17.3 39.6 31.7 72 32 72 .4 0 1.4-.6 2.3-1.3 1.3-1-2.4-10.2-30.8-75.2C554.6 61.8 540 28 540 27.3c0-1.2 4.9-13.3 6-14.5.3-.4 15.8 35.6 34.5 80 18.6 44.4 34.1 81 34.5 81.5.3.4 1.4.1 2.5-.6 1.7-1.3-.3-6.3-34.4-87.4L546.337.439C531.442 34.476 517.951 66.82 506.6 94.1M634 86.5V173h2.3c1.2 0 14.4-1.6 29.2-3.5 31.8-4.1 43.3-7.1 57.4-14.8 12.1-6.7 24.3-19.2 29.6-30.2 4.7-9.9 7.5-21.7 7.5-31.3 0-13.7-7.1-34.1-15.9-46.1-5.6-7.6-16.5-18.3-23.1-22.8-5.9-4-19.2-10.6-25.5-12.6C691 10.2 638.3 0 635.3 0c-1 0-1.3 18-1.3 86.5M300.5 5c-36.2 3.8-66.3 24.7-79 54.9-4 9.5-6.9 27.1-6.1 37.1 1.6 19.1 13.7 43.3 28.8 57.6 19.2 18.1 37.5 24 71.8 23.3l16.5-.4 4.181-2.657 3.619-3.343-.6-17c-.4-9.3-.7-27-.7-39.3V93h-5.3l.6 38.4.6 38.4-3.4 1.6c-5 2.4-33.9 2.2-46-.3-24.2-5-43.9-20.9-56-45.1-9-17.9-11.1-31.2-7.7-48.6 6.4-32.2 27.3-53.9 61.7-63.9 13.6-3.9 25.7-5 35.8-3.1 10.5 2 10.4 2 11-.4.4-1.6-.2-2.2-3.1-2.9-4.7-1.3-16.2-3.1-18.2-3-.8.1-4.7.5-8.5.9M0 78v70l3.6 7.1c4.7 9.4 10.2 15.2 18.2 19.1 5.5 2.8 7.8 3.3 15.6 3.6 7.5.3 10.1 0 14.9-1.8 7.4-2.8 16.3-11 20.5-18.8l3.2-6V8h-5v142.5l-2.9 5.1c-3.8 6.6-11.9 13.8-17.8 15.8-2.6.9-7.7 1.6-11.4 1.6-13.2 0-23.5-6.3-30-18.2l-3.4-6.3-.5-70-.5-70-2.2-.3L0 7.9zm779 13.5V175h89.1l-.3-2.3-.3-2.2-41.7-.3-41.8-.2V98h48v-5h-24c-20.7 0-24-.2-24-1.5s3.3-1.5 24-1.5h24v-5h-48V13l41.8-.2c40.9-.3 41.7-.3 41.7-2.3s-.8-2-44.2-2.3L779 8zM127.5 9.6c-1.6.2-5.4.7-8.2 1l-5.3.5V176h5V15.2l11.8-.7c22-1.4 40.3 1.1 51.3 7.2 6.6 3.6 12.4 10 16.2 18.1 3 6.2 3.2 7.5 3.2 17.2 0 9.4-.3 11.1-2.8 16.1-5.2 10.7-15.8 17.9-29.2 19.9-3.9.5-14.1 1-22.7 1H131v82h5V99h12.9c25.9 0 38-3.7 47.9-14.5 7.5-8.2 9.6-14.4 9.7-28 0-10.6-.1-11.3-3.7-18.7C193.4 18 177.5 10.1 146 9.5c-8.5-.2-16.8-.1-18.5.1m250 2.3q-7.05.6-6.9 1.8c.1.7.2 37.1.3 80.9l.1 79.5 2.3-.3 2.2-.3.3-78.2.2-78.1 8.8-.8c10.8-.9 31.5.2 40.3 2 18.3 3.9 28 15 31 35 2.5 16.7-5.8 31.6-20.9 37.6-5.1 2.1-7.9 2.4-28.2 2.9-22.4.6-22.5.6-22.8 2.8s0 2.3 6.1 2.3h6.4l25.9 39c14.2 21.4 26.2 39 26.5 39s1.2-.6 2.1-1.3c1.4-1-1.6-5.9-23.3-38.7-13.6-20.6-24.4-37.7-23.8-37.8.5-.2 1.6-.2 2.3.1s12 16.9 25.1 36.9c13.1 19.9 24.4 37 25.1 37.8 1.2 1.2 1.6 1.2 3-.1 1.4-1.5-.7-5-22.4-38l-23.8-36.4 3.5-.3c16.2-1.2 27.2-5.3 34-12.7 5.1-5.5 7.7-10.8 9.7-19.2 1.3-5.7 1.4-8.1.4-14.8-2.8-19.4-11.9-31.3-28.4-37.1-9.9-3.6-34.7-5.1-55.1-3.5M320 130v40h5V90h-5z" class="logo-paths"/></svg>