<svg xmlns="http://www.w3.org/2000/svg" width="868" height="595" viewBox="0 0 868 595"><defs><filter id="a" width="1.017" height="1.024" x="-.008" y="-.012" style="color-interpolation-filters:sRGB"><feGaussianBlur stdDeviation="30.138"/></filter></defs><g fill="#2bb5b8" class="logo-paths" style="fill:#161515;fill-opacity:1;filter:url(#a)" transform="matrix(.1 0 0 -.1 2 597)"><path d="M3077 5938c-2-7-269-649-592-1427-323-777-583-1417-578-1421 4-4 786-330 1738-724 952-395 1734-721 1738-725 5-5-138-361-317-792-302-730-323-785-305-793 12-6 23-6 28 0 4 5 136 318 292 697 156 378 286 687 289 687s147-324 319-720C5862 324 6006 0 6009 0c4 0 14 6 23 13 13 10-24 102-308 752-178 407-324 745-324 752 0 12 49 133 60 145 3 4 158-356 345-800 186-444 341-810 345-815 3-4 14-1 25 6 17 13-3 63-344 874l-361 861 561 1351c309 744 559 1354 558 1355-3 3-3385 1408-3495 1453-6 2-14-2-17-9m1757-744c940-390 1710-714 1712-719 5-13-1150-2800-1160-2799-30 4-3446 1430-3446 1438 0 6 260 638 578 1404 439 1060 581 1392 592 1389 8-2 784-323 1724-713m-614 52c-85-24-166-83-212-155-31-50-35-83-13-121 8-14 14-48 15-76 0-60 15-111 42-140 16-19 17-26 7-73-12-59-3-81 36-81 13 0 26-9 32-22s27-41 46-63c32-37 38-40 76-37 35 3 47 11 77 48 20 24 40 44 44 44 19 0 19-51 1-94-27-61-54-76-148-83-91-7-122-20-181-77-81-76-85-101-46-239 30-104 38-121 99-216 90-139 110-251 59-327-51-75-150-178-256-265-188-156-288-329-288-500 0-91 28-229 57-279 39-69 114-135 170-151 69-20 170-18 214 4 41 20 100 72 116 102 11 18 12 18 40-11 38-41 77-60 151-74 78-14 151 3 254 57 81 42 128 93 172 183 29 61 31 71 29 170-3 124-23 195-109 379-71 154-70 163 27 268 71 77 190 245 233 331 13 26 38 89 55 141 41 121 80 204 123 264l35 48 7-109c8-116 0-164-36-235-21-42-72-241-83-324-5-38-1-71 15-130 20-69 22-94 17-213-2-74-15-205-27-292-13-86-20-172-16-190 3-19 19-55 36-81 36-58 75-68 166-44 76 21 183 22 209 3 17-12 16-14-17-25-47-16-184-31-288-32-47 0-93-4-104-8-17-6-15-10 15-36 60-50 87-56 262-57 166-2 210 4 201 25-3 9-52 13-183 14-107 1-187 5-198 12-14 8-7 10 36 11 84 0 231 20 279 37 41 15 63 47 48 71-25 40-148 54-249 27-90-23-112-20-142 19-38 50-40 85-14 267 30 214 32 441 5 511-14 37-17 61-12 105 9 80 58 266 89 338 33 76 41 140 29 235-5 41-5 90-1 109 5 22 4 38-2 42-7 4-6 21 1 51 16 62-1 118-51 173-50 54-109 79-260 110-153 31-190 48-237 109-31 40-30 62 2 41 42-28 146-2 194 48 76 79 69 220-15 299-53 50-204 118-295 133-45 8-105 21-132 30-58 18-143 18-206 1m-35-72c-81-49-113-80-141-139-24-50-24-50-24-16 0 28 11 44 68 101 60 61 101 85 147 89 6 1-17-15-50-35m346-16c90-55 120-118 111-237-6-84-24-91-28-12-5 101-23 150-73 201-25 25-59 56-76 69-28 20-28 22-6 15 14-4 46-20 72-36m-116 3c74-43 132-104 147-154 8-28 12-94 10-197-3-177 5-217 61-299 58-84 69-137 70-340 2-166 0-181-26-266-37-121-90-228-176-360-40-60-97-160-127-220-55-110-56-112-64-230-11-162-61-313-143-435-75-110-219-260-250-260-5 0-7-9-4-20 4-17 1-19-21-14-69 15-93 28-135 73-58 62-75 96-93 188-47 247 26 418 267 619 114 95 234 226 268 291 45 89 21 201-75 350-69 106-124 271-110 326 16 67 110 137 183 137 64 1 121 15 152 38 35 26 73 96 73 135 0 32-51 145-80 179-13 15-12 19 2 33 22 22 20 80-4 133-16 36-23 42-49 42-32 0-61-30-61-64 0-32-12-10-21 40-5 26-16 56-25 66-22 24-82 34-107 19-18-12-19-11-13 16 17 69 85 132 196 182 61 28 96 26 155-8m323-53c113-61 142-97 142-176 0-99-42-152-132-166-30-5-46-3-56 8-16 16-17 28-12 166 3 98-12 145-63 199l-32 34 30-7c17-4 72-30 123-58m-589-177c7-5 17-29 22-55q18-96 69-96c23 0 27-3 23-24-4-17 5-35 30-62 51-57 54-90 14-135-46-52-74-58-103-23-14 16-33 46-44 67-16 28-27 37-46 37-23 0-25 3-20 26 20 78 19 84-9 114-22 23-29 42-33 83-4 48-2 54 19 64 29 14 59 16 78 4m161-87c6-14 10-39 10-56 0-23-4-29-16-24-9 3-17 6-19 6-8 0-17 70-11 85 8 23 25 18 36-11m336-181c41-54 100-81 249-113 199-43 259-78 286-168 16-54 0-103-69-208-64-98-87-146-142-305-29-84-55-134-122-235-47-71-115-160-152-198-103-107-106-145-26-306 76-152 101-238 103-361 2-98 0-107-28-162-39-77-95-131-172-167-91-43-150-54-217-40-66 14-113 43-144 92-29 43-53 41-71-7-22-62-126-132-181-123-16 2-10 11 34 45 65 50 163 166 227 269 71 114 120 271 129 414 7 113 8 117 60 220 29 58 87 159 130 225 116 181 149 254 190 425 20 86 21 109 15 250-8 175-26 251-77 321-41 56-57 103-56 159 0 25 3 36 5 25 3-11 16-35 29-52M6340 925V60h23c12 0 144 16 292 35 318 41 433 71 574 148 121 67 243 192 296 302 47 99 75 217 75 313 0 137-71 341-159 461-56 76-165 183-231 228-59 40-192 106-255 126-45 15-572 117-602 117-10 0-13-180-13-865m-3335 815c-362-38-663-247-790-549-40-95-69-271-61-371 16-191 137-433 288-576C2634 63 2817 4 3160 11l165 4 39 30 39 30-6 170c-4 93-7 270-7 393v222h-53l6-384 6-384-34-16c-50-24-339-22-460 3-242 50-439 209-560 451-90 179-111 312-77 486 64 322 273 539 617 639 136 39 257 50 358 31 105-20 104-20 110 4 4 16-2 22-31 29-47 13-162 31-182 30-8-1-47-5-85-9M0 1010V310l36-71C83 145 138 87 218 48c55-28 78-33 156-36 75-3 101 0 149 18 74 28 163 110 205 188l32 60v1432h-50V285l-29-51C643 168 562 96 503 76c-26-9-77-16-114-16-132 0-235 63-300 182l-34 63-5 700-5 700-22 3-23 3zm7790-135V40h891l-3 23-3 22-417 3-418 2v720h480v50h-240c-207 0-240 2-240 15s33 15 240 15h240v50h-480v720l418 2c409 3 417 3 417 23s-8 20-442 23l-443 2zm-6515 819c-16-2-54-7-82-10l-53-5V30h50v1608l118 7c220 14 403-11 513-72 66-36 124-100 162-181 30-62 32-75 32-172 0-94-3-111-28-161-52-107-158-179-292-199-39-5-141-10-227-10h-158V30h50v770h129c259 0 380 37 479 145 75 82 96 144 97 280 0 106-1 113-37 187-94 198-253 277-568 283-85 2-168 1-185-1m2500-23q-70.5-6-69-18c1-7 2-371 3-809l1-795 23 3 22 3 3 782 2 781 88 8c108 9 315-2 403-20 183-39 280-150 310-350 25-167-58-316-209-376-51-21-79-24-282-29-224-6-225-6-228-28s0-23 61-23h64l259-390c142-214 262-390 265-390s12 6 21 13c14 10-16 59-233 387-136 206-244 377-238 378 5 2 16 2 23-1s120-169 251-369c131-199 244-370 251-378 12-12 16-12 30 1 14 15-7 50-224 380l-238 364 35 3c162 12 272 53 340 127 51 55 77 108 97 192 13 57 14 81 4 148-28 194-119 313-284 371-99 36-347 51-551 35M3200 490V90h50v800h-50z" style="fill:#161515;fill-opacity:1"/></g><path fill="#2bb5b8" d="M3077 5938c-2-7-269-649-592-1427-323-777-583-1417-578-1421 4-4 786-330 1738-724 952-395 1734-721 1738-725 5-5-138-361-317-792-302-730-323-785-305-793 12-6 23-6 28 0 4 5 136 318 292 697 156 378 286 687 289 687s147-324 319-720C5862 324 6006 0 6009 0c4 0 14 6 23 13 13 10-24 102-308 752-178 407-324 745-324 752 0 12 49 133 60 145 3 4 158-356 345-800 186-444 341-810 345-815 3-4 14-1 25 6 17 13-3 63-344 874l-361 861 561 1351c309 744 559 1354 558 1355-3 3-3385 1408-3495 1453-6 2-14-2-17-9zm1757-744c940-390 1710-714 1712-719 5-13-1150-2800-1160-2799-30 4-3446 1430-3446 1438 0 6 260 638 578 1404 439 1060 581 1392 592 1389 8-2 784-323 1724-713zm-614 52c-85-24-166-83-212-155-31-50-35-83-13-121 8-14 14-48 15-76 0-60 15-111 42-140 16-19 17-26 7-73-12-59-3-81 36-81 13 0 26-9 32-22s27-41 46-63c32-37 38-40 76-37 35 3 47 11 77 48 20 24 40 44 44 44 19 0 19-51 1-94-27-61-54-76-148-83-91-7-122-20-181-77-81-76-85-101-46-239 30-104 38-121 99-216 90-139 110-251 59-327-51-75-150-178-256-265-188-156-288-329-288-500 0-91 28-229 57-279 39-69 114-135 170-151 69-20 170-18 214 4 41 20 100 72 116 102 11 18 12 18 40-11 38-41 77-60 151-74 78-14 151 3 254 57 81 42 128 93 172 183 29 61 31 71 29 170-3 124-23 195-109 379-71 154-70 163 27 268 71 77 190 245 233 331 13 26 38 89 55 141 41 121 80 204 123 264l35 48 7-109c8-116 0-164-36-235-21-42-72-241-83-324-5-38-1-71 15-130 20-69 22-94 17-213-2-74-15-205-27-292-13-86-20-172-16-190 3-19 19-55 36-81 36-58 75-68 166-44 76 21 183 22 209 3 17-12 16-14-17-25-47-16-184-31-288-32-47 0-93-4-104-8-17-6-15-10 15-36 60-50 87-56 262-57 166-2 210 4 201 25-3 9-52 13-183 14-107 1-187 5-198 12-14 8-7 10 36 11 84 0 231 20 279 37 41 15 63 47 48 71-25 40-148 54-249 27-90-23-112-20-142 19-38 50-40 85-14 267 30 214 32 441 5 511-14 37-17 61-12 105 9 80 58 266 89 338 33 76 41 140 29 235-5 41-5 90-1 109 5 22 4 38-2 42-7 4-6 21 1 51 16 62-1 118-51 173-50 54-109 79-260 110-153 31-190 48-237 109-31 40-30 62 2 41 42-28 146-2 194 48 76 79 69 220-15 299-53 50-204 118-295 133-45 8-105 21-132 30-58 18-143 18-206 1zm-35-72c-81-49-113-80-141-139-24-50-24-50-24-16 0 28 11 44 68 101 60 61 101 85 147 89 6 1-17-15-50-35zm346-16c90-55 120-118 111-237-6-84-24-91-28-12-5 101-23 150-73 201-25 25-59 56-76 69-28 20-28 22-6 15 14-4 46-20 72-36zm-116 3c74-43 132-104 147-154 8-28 12-94 10-197-3-177 5-217 61-299 58-84 69-137 70-340 2-166 0-181-26-266-37-121-90-228-176-360-40-60-97-160-127-220-55-110-56-112-64-230-11-162-61-313-143-435-75-110-219-260-250-260-5 0-7-9-4-20 4-17 1-19-21-14-69 15-93 28-135 73-58 62-75 96-93 188-47 247 26 418 267 619 114 95 234 226 268 291 45 89 21 201-75 350-69 106-124 271-110 326 16 67 110 137 183 137 64 1 121 15 152 38 35 26 73 96 73 135 0 32-51 145-80 179-13 15-12 19 2 33 22 22 20 80-4 133-16 36-23 42-49 42-32 0-61-30-61-64 0-32-12-10-21 40-5 26-16 56-25 66-22 24-82 34-107 19-18-12-19-11-13 16 17 69 85 132 196 182 61 28 96 26 155-8zm323-53c113-61 142-97 142-176 0-99-42-152-132-166-30-5-46-3-56 8-16 16-17 28-12 166 3 98-12 145-63 199l-32 34 30-7c17-4 72-30 123-58zm-589-177c7-5 17-29 22-55q18-96 69-96c23 0 27-3 23-24-4-17 5-35 30-62 51-57 54-90 14-135-46-52-74-58-103-23-14 16-33 46-44 67-16 28-27 37-46 37-23 0-25 3-20 26 20 78 19 84-9 114-22 23-29 42-33 83-4 48-2 54 19 64 29 14 59 16 78 4zm161-87c6-14 10-39 10-56 0-23-4-29-16-24-9 3-17 6-19 6-8 0-17 70-11 85 8 23 25 18 36-11zm336-181c41-54 100-81 249-113 199-43 259-78 286-168 16-54 0-103-69-208-64-98-87-146-142-305-29-84-55-134-122-235-47-71-115-160-152-198-103-107-106-145-26-306 76-152 101-238 103-361 2-98 0-107-28-162-39-77-95-131-172-167-91-43-150-54-217-40-66 14-113 43-144 92-29 43-53 41-71-7-22-62-126-132-181-123-16 2-10 11 34 45 65 50 163 166 227 269 71 114 120 271 129 414 7 113 8 117 60 220 29 58 87 159 130 225 116 181 149 254 190 425 20 86 21 109 15 250-8 175-26 251-77 321-41 56-57 103-56 159 0 25 3 36 5 25 3-11 16-35 29-52zM6340 925V60h23c12 0 144 16 292 35 318 41 433 71 574 148 121 67 243 192 296 302 47 99 75 217 75 313 0 137-71 341-159 461-56 76-165 183-231 228-59 40-192 106-255 126-45 15-572 117-602 117-10 0-13-180-13-865zm-3335 815c-362-38-663-247-790-549-40-95-69-271-61-371 16-191 137-433 288-576C2634 63 2817 4 3160 11l165 4 39 30 39 30-6 170c-4 93-7 270-7 393v222h-53l6-384 6-384-34-16c-50-24-339-22-460 3-242 50-439 209-560 451-90 179-111 312-77 486 64 322 273 539 617 639 136 39 257 50 358 31 105-20 104-20 110 4 4 16-2 22-31 29-47 13-162 31-182 30-8-1-47-5-85-9zM0 1010V310l36-71C83 145 138 87 218 48c55-28 78-33 156-36 75-3 101 0 149 18 74 28 163 110 205 188l32 60v1432h-50V285l-29-51C643 168 562 96 503 76c-26-9-77-16-114-16-132 0-235 63-300 182l-34 63-5 700-5 700-22 3-23 3zm7790-135V40h891l-3 23-3 22-417 3-418 2v720h480v50h-240c-207 0-240 2-240 15s33 15 240 15h240v50h-480v720l418 2c409 3 417 3 417 23s-8 20-442 23l-443 2zm-6515 819c-16-2-54-7-82-10l-53-5V30h50v1608l118 7c220 14 403-11 513-72 66-36 124-100 162-181 30-62 32-75 32-172 0-94-3-111-28-161-52-107-158-179-292-199-39-5-141-10-227-10h-158V30h50v770h129c259 0 380 37 479 145 75 82 96 144 97 280 0 106-1 113-37 187-94 198-253 277-568 283-85 2-168 1-185-1zm2500-23q-70.5-6-69-18c1-7 2-371 3-809l1-795 23 3 22 3 3 782 2 781 88 8c108 9 315-2 403-20 183-39 280-150 310-350 25-167-58-316-209-376-51-21-79-24-282-29-224-6-225-6-228-28s0-23 61-23h64l259-390c142-214 262-390 265-390s12 6 21 13c14 10-16 59-233 387-136 206-244 377-238 378 5 2 16 2 23-1s120-169 251-369c131-199 244-370 251-378 12-12 16-12 30 1 14 15-7 50-224 380l-238 364 35 3c162 12 272 53 340 127 51 55 77 108 97 192 13 57 14 81 4 148-28 194-119 313-284 371-99 36-347 51-551 35zM3200 490V90h50v800h-50z" class="logo-paths" style="stroke:#fff;stroke-opacity:1;stroke-width:6;stroke-dasharray:none" transform="matrix(.1 0 0 -.1 0 595)"/></svg>