<svg xmlns="http://www.w3.org/2000/svg" width="468.207" height="445.981" preserveAspectRatio="xMidYMid" viewBox="0 -15 468.207 445.981"><g fill="#2bb5b8" class="logo-paths" transform="matrix(.1 0 0 -.1 -190.693 590.751)"><path d="M5404.809 1629.527s-811.182 333.298-1763.198 728.305c-476.002 197.001-909.504 377.003-1224.511 508.256-157.505 65.627-285.386 119.066-374.15 156.353-44.383 18.644-78.984 33.249-102.635 43.327-11.826 5.039-20.911 8.944-27.141 11.67a476 476 0 0 0-7.227 3.214c-.858.394-1.538.713-2.129 1.006-.295.147-.558.281-.898.47-.278.157-.537.164-1.572 1.097-3.575 2.943-3.174 5.342-3.242 6.431-.07 1.107.02 1.67.092 2.188.14 1.036.324 1.766.55 2.627.452 1.72 1.1 3.778 1.987 6.422 1.772 5.288 4.487 12.796 8.136 22.545 7.299 19.497 18.316 47.886 32.686 84.263 28.739 72.754 70.87 177.426 123.252 306.254 104.763 257.656 250.518 611.922 412.025 1000.44 161.5 389 309 743.999 416.373 1002.62 53.687 129.312 97.345 234.53 127.701 307.852 15.179 36.661 27.033 65.35 35.15 85.082a6141 6141 0 0 1 9.32 22.748 922 922 0 0 1 2.446 6.067c.558 1.404 1.169 3.402.672 1.666a9 9 0 0 0 .375 1.054c4.762 11.111 16.333 17.769 27.926 13.905a9 9 0 0 0 .55-.203c55.457-22.687 928.046-385.02 1787.673-742.27 429.813-178.625 856.282-355.938 1175.488-488.783 159.603-66.423 292.388-121.727 385.371-160.522 46.492-19.397 83.032-34.668 108.004-45.138a9830 9830 0 0 0 28.588-12.026q4.88-2.066 7.441-3.17c.854-.368 1.509-.654 2.008-.877.25-.111.453-.203.684-.312.23-.11-2.727 3.543 2.65-1.834 0 0 2.568-7.15 2.469-7.746s-.169-.807-.225-1.008c-.111-.402-.184-.608-.265-.848-.164-.478-.348-.979-.59-1.625-.485-1.291-1.187-3.1-2.121-5.474-1.869-4.748-4.658-11.726-8.334-20.852-7.353-18.25-18.248-45.074-32.313-79.557-28.13-68.966-68.943-168.565-119.445-291.382-101.004-245.635-240.758-584.143-395.262-956.153l-560.994-1350.986-61.824-150.28a8.844 8.844 0 0 0-11.54-4.814zm-23.024 57.262c.181.378.247.482.442.895 2.416 5.112 5.927 12.875 10.416 23.021 8.977 20.293 21.887 50.168 38.144 88.219 32.514 76.102 78.43 184.927 133.23 315.59 109.602 261.324 254.754 610.004 399.438 959.12 144.684 349.117 288.9 698.674 396.627 961.749 53.863 131.537 98.606 241.456 129.715 318.87 15.554 38.708 27.702 69.295 35.863 90.354 4.08 10.53 7.17 18.69 9.162 24.217.267.741.343 1.015.57 1.66-.853.4-1.27.616-2.308 1.092-5.886 2.7-14.694 6.617-26.211 11.656-23.033 10.079-56.933 24.662-100.498 43.243-87.13 37.16-212.934 90.314-368.05 155.498-310.234 130.368-737.725 308.864-1207.714 503.859-469.997 194.999-898.997 372.748-1211.492 501.996-156.247 64.624-283.37 117.123-371.924 153.588-44.277 18.233-78.913 32.457-102.718 42.182a6139 6139 0 0 1-27.426 11.146c-1.975.795-3.15 1.256-4.555 1.815-1.372-2.14-2.966-4.722-5.283-9.067-5.628-10.552-13.76-27.331-24.584-50.886-21.647-47.11-54.134-121.421-99.994-228.95-91.721-215.057-236.97-563.049-456.465-1093.039v-.01c-158.997-382.993-303.495-732.486-408.24-986.974-52.373-127.244-94.809-230.74-124.145-302.784-14.668-36.021-26.06-64.183-33.777-83.5-3.858-9.658-6.8-17.11-8.756-22.19-.13-.336-.166-.449-.287-.765.922-.426 1.368-.65 2.49-1.16 6.38-2.895 15.953-7.118 28.445-12.55 24.984-10.867 61.683-26.593 108.405-46.471 93.443-39.757 226.99-96.128 387.343-163.563 320.707-134.87 748.64-313.994 1177.51-492.992s858.677-357.87 1183.133-492.24c162.228-67.185 298.122-123.244 394.377-162.625 48.127-19.691 86.349-35.214 112.975-45.864 13.312-5.324 23.73-9.433 31-12.22 2.208-.847 3.534-1.325 5.144-1.922zm-1443.424 629.582c-35.645.494-72.574 5.081-103.79 14.125-.01 0-.01 0-.017.01h-.018c-60.151 17.202-135.004 83.999-175.205 155.092-15.644 26.991-29.65 74.16-40.373 126.762-10.726 52.621-17.803 110.233-17.803 156.64 0 174.448 101.911 349.737 291.198 506.805l.035.03c105.422 86.527 204.136 189.387 254.27 263.097 24.08 35.886 31.589 80.163 22.013 133.377s-36.522 115.043-81.096 183.884l-.018.03c-61.069 95.107-70.01 114.17-100.054 218.326l-.015.046c-19.559 69.211-28.958 111.01-22.18 146.801 6.774 35.762 29.808 62.731 70.546 100.963 59.63 57.609 94.785 72.405 186.467 79.457h.02c46.597 3.47 75.634 9.045 95.461 20.149 19.8 11.087 31.908 27.825 45.053 57.494 8.507 20.34 12.789 43.007 12.674 59.603-.057 8.305-1.325 15.09-2.928 18.744-.736 1.68-1.135 2.379-1.474 2.8-.44-.323-.687-.467-1.28-.952-2.366-1.936-5.726-5.04-9.595-8.91-7.74-7.74-17.616-18.594-27.461-30.408-15.125-18.649-26.115-30.648-38.71-38.573-12.616-7.938-26.247-11.026-44.327-12.576l-.061-.01c-19.267-1.52-32.332-1.724-44.823 4.37-12.49 6.093-22.46 17.044-38.562 35.662v.01c-19.32 22.37-40.07 49.332-47.336 65.074-4.614 9.997-15.052 16.861-23.97 16.861-10.582 0-19.778 1.433-27.632 5.25-7.853 3.817-14.046 10.3-17.597 18.428-7.103 16.256-5.567 37.794.562 67.927l.016.079c4.97 23.353 6.893 36.37 6.102 44.279s-3.501 12.023-11.215 21.183l.291-.328c-29.41 31.59-44.371 84.552-44.371 146.026l.01-.317c-.482 13.497-2.191 28.65-4.723 41.909-2.531 13.258-6.174 24.872-9.117 30.021-11.654 20.146-16.824 40.18-14.486 61.357 2.34 21.193 11.779 43.094 27.648 68.69l.062.101c47.356 74.122 129.817 134.118 217.051 158.749l.098.027c64.932 17.52 150.59 17.633 210.926-1.092l.176-.057c25.695-8.565 86.043-21.734 130.752-29.682l-.112.018c46.842-7.721 107.673-28.677 163.946-54.037 56.265-25.358 107.58-54.745 135.675-81.246l.01-.01c87.635-82.43 95.135-228.575 15.31-311.557-25.679-26.747-64.861-46.11-103.493-55.703-38.634-9.593-76.933-10.095-101.787 6.475l.055-.035c-4.297 2.82-7.574 4.368-10.078 5.365.668-2.261 1.753-5.224 3.537-8.711 3.416-6.676 8.887-15.172 16.382-24.844l.016-.02c23.058-29.927 42.46-47.946 75.44-63.112s79.983-27.152 156.31-42.617l.023-.01c151.473-31.097 213.278-57.108 264.71-112.654l.054-.06c51.339-56.472 69.72-116.443 53.02-181.158l.049.2c-3.437-14.731-5.305-26.146-5.522-33.5-.108-3.677.243-6.31.606-7.53.143-.482.174-.54.186-.588l.025-.016c7.339-4.893 8.613-12.692 9.05-21.15s-.703-18.59-3.334-30.166l.031.137c-3.367-15.996-3.773-65.917 1.12-106.07v-.038c12.116-95.954 3.843-162.417-29.667-239.591l.012.023c-30.15-70.028-79.564-257.521-88.335-335.49v-.01c-4.915-43.248-2.216-64.667 11.484-100.874l-.021.053c14.681-38.063 20.348-112.071 19.469-204.765-.88-92.695-8.905-203.246-23.961-310.645v-.021c-12.985-90.89-18.851-144.911-16.924-181.281 1.926-36.349 10.758-54.83 29.18-79.076l.01-.012c14.424-18.75 24.612-26.945 42.656-29.366 18.048-2.42 45.392 2.119 90.135 13.553l-.094-.025c51.733 13.83 108.578 17.127 156.252 11.873 23.836-2.627 45.374-7.38 63.007-14.29 17.634-6.912 31.67-15.871 39.524-28.438 9.466-15.146 6.931-33.647-3.186-48.534-10.117-14.886-27.349-27.437-49.275-35.459l-.086-.03c-25.65-9.085-74.237-18.141-127.781-25.305-52.163-6.98-108.251-11.858-150.604-12.11 7.134-.601 15.11-1.163 23.94-1.672 34.503-1.985 81.156-3.235 134.56-3.734 65.582-.5 110.664-1.742 140.115-4.027 14.726-1.143 25.499-2.51 33.399-4.364 3.95-.926 7.184-1.931 10.125-3.45 2.903-1.5 6.098-3.71 7.61-8.055 1.522-3.794 2.247-8.315.892-12.729-1.417-4.616-4.811-8.224-8.713-10.717-7.804-4.986-18.419-7.395-34.262-9.4-31.685-4.01-84.226-4.945-167.342-3.944h.057c-87.598.501-138.422 2.146-175.957 10.329s-61.286 23.416-91.654 48.722l-.129.11c-15.096 13.083-23.467 19.3-27.472 28.724-1.002 2.356-1.643 5.337-1.061 8.426s2.376 5.75 4.23 7.486c3.686 3.454 7.517 4.75 12.073 6.358h.01c8.331 3.027 21.795 4.48 40.806 6.002 19.018 1.521 42.455 2.53 66.205 2.53h-.086c51.613.495 111.654 4.476 164.489 10.32 52.835 5.842 98.931 13.78 120.748 21.206l.053.018c8.172 2.724 14.282 4.882 18.24 6.582-1.268 1.01-1.617 1.446-3.543 2.805l-.117.084c-4.137 3.023-14.839 6.748-29.043 8.897s-31.996 3.147-51.38 2.902c-38.765-.49-83.997-5.956-121.005-16.182l-.1-.027c-46.094-12.156-79.998-16.16-108.133-8.75-28.119 7.407-48.978 26.596-67.605 56.59-17.55 26.873-33.617 61.967-37.19 84.035-1.395 6.464-1.483 15.025-1.183 27.084.303 12.2 1.22 27.457 2.668 44.826 2.893 34.718 7.907 77.835 14.431 121.006 11.953 86.667 24.937 217.76 26.916 290.998v.133c4.994 118.85 3.227 141.563-16.658 210.166l-.04.149c-16.121 59.444-20.4 94.207-15.233 133.468v.01c5.613 42.352 21.147 112.823 37.951 178.409 16.804 65.585 34.188 124.949 45.906 148.384l.024.045c35.512 70.038 43.025 114.962 35.065 230.391v.043l-5.434 84.603-20.555-28.189c-42.214-58.904-80.945-141.097-121.781-261.596-.01-.016-.011-.033-.016-.049 0-.014-.011-.027-.016-.04-17.14-52.412-41.945-115.078-55.465-142.118-43.858-87.717-162.4-254.946-234.408-333.039l-.01-.01c-48.425-52.418-71.064-79.514-74.197-110.514-3.133-30.993 13.262-70.846 48.713-147.742l.02-.04c86.129-184.282 106.788-257.63 109.808-382.489v-.037c2.003-99.131-.762-112.779-29.855-173.975l-.041-.088c-44.506-91.034-93.506-144.247-175.84-186.947-103.846-54.443-179.498-72.262-259.668-57.873l-.082.016c-74.878 14.166-116.717 34.464-155.842 76.678l.125-.131c-6.982 7.231-12.245 12.598-16.082 16.064-2.335 2.11-3.907 3.196-4.969 3.87-.978-1.157-2.621-3.44-5.043-7.403l.258.45c-9.125-17.111-28.255-37.576-50.586-57.227-22.322-19.644-47.608-37.952-69.314-48.545-24.326-12.146-61.217-17.894-101.36-18.658a460 460 0 0 0-15.181-.037zm32.416 53.69c25.076.22 61.714 15.723 93.565 38.619 31.85 22.895 59.06 53.168 68.324 79.277l.055.149c4.72 12.585 9.89 22.52 16.102 29.954 6.21 7.435 13.963 12.54 22.718 13.37s17.324-2.648 25.07-8.637c7.747-5.988 15.137-14.602 22.721-25.848l.141-.216c29.68-46.913 73.943-74.408 138.336-88.073h.028c65.063-13.589 121.208-3.266 211.387 39.346l.03.016c75.417 35.26 129.647 87.542 167.858 162.984l.01.016c13.95 27.402 20.887 42.253 24.42 62.39 3.533 20.14 3.618 46.485 2.62 95.419v.035c-1.982 121.87-26.319 205.689-102.07 357.19l-.01.02c-40.142 80.787-60.41 131.747-56.517 177.927s32.234 84.295 84.067 138.14l.035.038c35.963 36.935 104.252 126.148 150.962 196.71v.01c66.84 100.758 92.189 149.517 121.01 232.999 55.07 159.2 78.76 208.65 142.953 306.945l.014.02c34.326 52.236 55.187 90.258 65.37 121.046 10.178 30.776 10.107 54.038 2.55 79.558-13.072 43.575-32.871 72.112-74.504 96.537-41.633 24.427-105.697 43.924-204.892 65.358-74.76 16.056-127.268 30.878-166.793 48.844-39.516 17.961-66.062 39.38-87.366 67.43 0 0-.01.01-.01.013l-.01.01c-6.498 8.501-12.75 18.13-18.017 27.42 0-52.052 15.146-95.512 54.195-148.847l.014-.018c52.211-71.662 70.664-150.315 78.686-325.803v-.029c6.003-141.083 4.841-166.103-15.223-252.379l-.014-.059c-41.118-171.491-74.982-246.44-191.154-427.709l-.035-.057c-42.733-65.59-100.773-166.672-129.5-224.127l-.016-.03c-51.979-102.96-52.07-103.6-59.068-216.562v-.01c-9.101-144.6-58.357-302.57-130.315-418.113l-.01-.01c-64.549-103.9-162.255-219.907-229.088-271.322l-.014-.012c-18.07-13.963-29.36-23.771-34.814-29.488 2.017-.202 3.982-.461 6.199-.442zm-65.609 2.556c.082 1.027-.894 6.332-.7 5.057-1.792 6.572-2.284 12.655-1.128 18.242.578 2.793 1.551 5.568 3.701 8.156s6.056 4.772 9.959 4.772c.31 0 5.474 1.395 11.95 5.36 6.475 3.963 14.689 10.039 24 17.759 18.62 15.44 41.708 37.455 66.173 62.914 48.922 50.909 103.481 115.714 140.55 170.078 81.036 120.574 130.603 270.09 141.505 430.645 8.003 118.04 9.912 123.356 64.912 233.355 30.246 60.492 87.188 160.404 127.553 220.951l-.053-.078c85.714 131.561 138.217 237.622 174.953 357.758 25.952 84.843 27.614 97.384 25.615 263.307v.064c-.5 101.344-3.555 164.907-13.443 212.883s-26.336 80.635-54.99 122.134l-.026.04c-28.267 41.39-45.102 73.44-53.988 117.097s-10.053 98.395-8.55 187.039v.021c1.993 102.645-2.454 169.103-9.653 194.352-13.8 45.879-70.388 106.666-142.95 148.83-28.894 16.648-50.947 24.916-72.77 26.064-21.831 1.15-44.252-4.756-74.096-18.455l-.057-.025c-109.65-49.392-174.997-111.104-191.022-175.969-.716-3.226-.923-4.742-1.4-7.152.4.264.462.26.883.54a9 9 0 0 0 .355.228c15.92 9.551 38.48 10.11 60.69 6.253 22.209-3.856 44.088-12.36 57.38-26.86l.053-.062c6.244-6.937 11.018-17.306 15.707-29.81 4.69-12.505 8.797-26.874 11.405-40.436l.019-.103c1.724-9.578 3.62-17.772 5.482-25.026 7.527 31.56 35.73 56.303 67.815 56.303 13.68 0 24.952-1.869 34.006-9.63 9.043-7.75 14.944-19.33 23.05-37.565l.01-.02c12.457-27.515 19.232-56.22 20.026-81.477.793-25.263-3.994-47.564-17.836-61.406-6.777-6.777-8.536-10.234-8.565-10.586s.823-3.248 6.994-10.37l.045-.052c15.978-18.733 35.647-55.439 52.215-92.37 8.284-18.465 15.657-36.865 21.02-52.873s8.88-29.147 8.88-39.496c0-22.372-10.12-50.138-24.44-76.586-14.321-26.447-32.81-51.161-52.13-65.513-33.787-25.068-91.923-38.722-157.13-39.74h-.14c-33.673 0-74.155-16.637-107.581-41.616s-59.564-58.224-66.817-88.595l-.03-.127c-2.898-11.385-2.435-31.317 1.724-55.557 4.16-24.24 11.764-52.97 21.963-83.32 20.399-60.702 51.213-127.975 85.154-180.117l.022-.036c48.365-75.065 78.885-141.156 91.588-200.435s7.33-111.946-16.129-158.344l-.057-.11c-17.85-34.123-56.557-83.094-105.326-136.136-48.768-53.041-107.483-109.752-164.846-157.555-119.888-99.99-197.305-191.983-239.039-288.953-41.728-96.957-48.206-199.27-24.943-321.556 17.877-91.374 33.292-122.205 90.78-183.657l.01-.01c41.432-44.392 62.034-55.527 130.413-70.392l.08-.018c5.053-1.148 8.727-1.777 11.21-2.006zm-1957.174 747.164c-.93 2.032-2.295 1.19-2.621 1.266.243-.129.47-.25 1.002-.512.339-.166 1.185-.547 1.62-.754m2294.576 1403.07c13.423.775 32.47 13.366 57.807 42.008l.014.016c19.214 21.616 26.747 38.338 24.936 56.235s-13.924 39.062-38.916 66.994l.101-.111c-12.806 13.83-21.831 25.591-27.336 36.882-5.504 11.292-7.281 22.534-4.783 33.15l-.08-.37c.942 4.946 1.288 8.557 1.186 10.486s-.293 1.646-.127 1.48-.412.421-3.01.868c-2.598.446-6.804.668-12.362.668-19.774 0-37.226 10.004-49.931 27.681s-21.62 42.79-27.76 75.534l.01-.042c-2.389 12.422-6.016 24.474-9.764 33.725-3.7 9.134-8.805 15.697-8.623 15.64-15.134 9.308-42.13 8.356-69.085-4.658l-.041-.02c-4.99-2.376-8.341-4.348-10.34-6.114-2-1.765-2.96-3.165-3.867-6.193-1.816-6.05-1.77-19.11.212-42.918 3.929-40.216 9.63-55.772 30.582-77.678l.074-.08c14.165-15.176 23.387-26.77 24.848-44.299 1.457-17.486-3.708-38.771-13.683-77.68-1.204-5.545-1.904-9.734-2.014-12.212-.05-1.11.019-1.622.064-1.951.243-.085.54-.202 1.453-.377 2.237-.429 6.31-.67 11.867-.67 10.896 0 21.072-3.015 29.68-9.961 8.608-6.947 15.767-17.093 23.998-31.496a9 9 0 0 0 .156-.284c10.664-20.358 29.819-50.417 42.822-65.279l.153-.181c11.768-14.204 21.322-19.394 31.761-18.791zm129.64 38.561c1.288.493-.807-.121 0 0m-62.597 210.092c.054.14.01 0 .068.18.77 2.399 1.475 8.075 1.475 16.316 0 15.613-4.226 40.711-9.285 52.516a9 9 0 0 0-.139.347c-5.024 13.245-11.776 19.176-13.414 19.67-.82.247-.345.42-1.342-.377s-2.977-3.322-4.625-8.06a9 9 0 0 0-.14-.381c-.336-.84-1.426-7.978-1.307-16.197.118-8.22.905-18.12 2.117-27.512s2.875-18.35 4.567-24.483c.708-2.567 1.37-4.204 1.892-5.392.15-.046.289-.085.451-.131 1.43-.4 2.99-.903 4.74-1.486 3.5-1.167 7.719-2.656 12.126-4.125a9 9 0 0 0 .603-.227c1.548-.645 1.78-.587 2.213-.658zm410.35.77c6.874-.178 15.664.629 26.584 2.449l.094.016c43.532 6.771 74.053 22.549 94.186 47.888 20.132 25.34 30.33 61.124 30.33 109.373 0 38.418-6.638 64.37-26.665 89.198-20.026 24.827-54.554 48.716-110.693 79.021l-.055.03c-25.336 13.91-51.712 27.345-73.767 37.753-22.056 10.408-40.59 17.882-47.002 19.39l-1.463.343 11.918-12.662.01-.013c52.156-55.228 68.43-106.35 65.4-205.331v-.05c-2.499-68.969-3.446-106.517-1.893-127.785.777-10.633 2.173-17.02 3.91-21.261 1.738-4.242 3.757-6.737 7.399-10.38a9 9 0 0 0 .29-.304c4.5-4.95 9.962-7.38 21.419-7.676zm-93.29 100.933c.123.496.246.839.366 1.361 2.427 10.513 4.663 26.368 6.14 47.063v.035c4.436 58.646-.819 102.452-17.56 138.072s-45.141 63.772-89.232 90.717l-.024.014c-12.371 7.613-26.44 15.268-38.996 21.557 18.09-15.575 41.267-37.154 59.885-55.772l.06-.062c51.238-52.262 70.472-104.845 75.518-206.744v-.01c.802-15.831 2.224-27.87 3.842-36.23zm-597.536 151.602c2.339 4.798 3.763 7.503 6.873 13.982 0 0 0 .01.01.012.01.011.01.013.012.024 5.396 11.367 10.997 21.768 17.076 31.498-5.315-6.187-9.914-11.855-13.15-16.648-7.663-11.348-10.167-19.138-10.817-28.868zm107.136 128.15c13.108 9.133 27.422 18.489 44.149 28.607 4.76 2.886 8.738 5.424 13.018 8.1-17.82-7.49-36.285-19.267-57.167-36.707m99.118 47.09c.62.01.891.2 1.062.228a9 9 0 0 0-.687-.088c-.198-.017-.39-.066-.586-.084.045 0 .17-.057.21-.057z"/><path id="a" d="M3077 5938c-2-7-269-649-592-1427-323-777-583-1417-578-1421 4-4 786-330 1738-724 952-395 1763.17-728.294 1763.17-728.294L5470 1788l561 1351c309 744 559 1354 558 1355-3 3-3385 1408-3495 1453-6 2-14-2-17-9m1757-744c940-390 1710-714 1712-719 5-13-1150-2800-1160-2799-30 4-3446 1430-3446 1438 0 6 260 638 578 1404 439 1060 581 1392 592 1389 8-2 784-323 1724-713m-614 52c-85-24-166-83-212-155-31-50-35-83-13-121 8-14 14-48 15-76 0-60 15-111 42-140 16-19 17-26 7-73-12-59-3-81 36-81 13 0 26-9 32-22s27-41 46-63c32-37 38-40 76-37 35 3 47 11 77 48 20 24 40 44 44 44 19 0 19-51 1-94-27-61-54-76-148-83-91-7-122-20-181-77-81-76-85-101-46-239 30-104 38-121 99-216 90-139 110-251 59-327-51-75-150-178-256-265-188-156-288-329-288-500 0-91 28-229 57-279 39-69 114-135 170-151 69-20 170-18 214 4 41 20 100 72 116 102 11 18 12 18 40-11 38-41 77-60 151-74 78-14 151 3 254 57 81 42 128 93 172 183 29 61 31 71 29 170-3 124-23 195-109 379-71 154-70 163 27 268 71 77 190 245 233 331 13 26 38 89 55 141 41 121 80 204 123 264l35 48 7-109c8-116 0-164-36-235-21-42-72-241-83-324-5-38-1-71 15-130 20-69 22-94 17-213-2-74-15-205-27-292-13-86-20-172-16-190 3-19 19-55 36-81 36-58 75-68 166-44 76 21 183 22 209 3 17-12 16-14-17-25-47-16-184-31-288-32-47 0-93-4-104-8-17-6-15-10 15-36 60-50 87-56 262-57 166-2 210 4 201 25-3 9-52 13-183 14-107 1-187 5-198 12-14 8-7 10 36 11 84 0 231 20 279 37 41 15 63 47 48 71-25 40-148 54-249 27-90-23-112-20-142 19-38 50-40 85-14 267 30 214 32 441 5 511-14 37-17 61-12 105 9 80 58 266 89 338 33 76 41 140 29 235-5 41-5 90-1 109 5 22 4 38-2 42-7 4-6 21 1 51 16 62-1 118-51 173-50 54-109 79-260 110-153 31-190 48-237 109-31 40-30 62 2 41 42-28 146-2 194 48 76 79 69 220-15 299-53 50-204 118-295 133-45 8-105 21-132 30-58 18-143 18-206 1m-35-72c-81-49-113-80-141-139-24-50-24-50-24-16 0 28 11 44 68 101 60 61 101 85 147 89 6 1-17-15-50-35m346-16c90-55 120-118 111-237-6-84-24-91-28-12-5 101-23 150-73 201-25 25-59 56-76 69-28 20-28 22-6 15 14-4 46-20 72-36m-116 3c74-43 132-104 147-154 8-28 12-94 10-197-3-177 5-217 61-299 58-84 69-137 70-340 2-166 0-181-26-266-37-121-90-228-176-360-40-60-97-160-127-220-55-110-56-112-64-230-11-162-61-313-143-435-75-110-219-260-250-260-5 0-7-9-4-20 4-17 1-19-21-14-69 15-93 28-135 73-58 62-75 96-93 188-47 247 26 418 267 619 114 95 234 226 268 291 45 89 21 201-75 350-69 106-124 271-110 326 16 67 110 137 183 137 64 1 121 15 152 38 35 26 73 96 73 135 0 32-51 145-80 179-13 15-12 19 2 33 22 22 20 80-4 133-16 36-23 42-49 42-32 0-61-30-61-64 0-32-12-10-21 40-5 26-16 56-25 66-22 24-82 34-107 19-18-12-19-11-13 16 17 69 85 132 196 182 61 28 96 26 155-8m323-53c113-61 142-97 142-176 0-99-42-152-132-166-30-5-46-3-56 8-16 16-17 28-12 166 3 98-12 145-63 199l-32 34 30-7c17-4 72-30 123-58m-589-177c7-5 17-29 22-55q18-96 69-96c23 0 27-3 23-24-4-17 5-35 30-62 51-57 54-90 14-135-46-52-74-58-103-23-14 16-33 46-44 67-16 28-27 37-46 37-23 0-25 3-20 26 20 78 19 84-9 114-22 23-29 42-33 83-4 48-2 54 19 64 29 14 59 16 78 4m161-87c6-14 10-39 10-56 0-23-4-29-16-24-9 3-17 6-19 6-8 0-17 70-11 85 8 23 25 18 36-11m336-181c41-54 100-81 249-113 199-43 259-78 286-168 16-54 0-103-69-208-64-98-87-146-142-305-29-84-55-134-122-235-47-71-115-160-152-198-103-107-106-145-26-306 76-152 101-238 103-361 2-98 0-107-28-162-39-77-95-131-172-167-91-43-150-54-217-40-66 14-113 43-144 92-29 43-53 41-71-7-22-62-126-132-181-123-16 2-10 11 34 45 65 50 163 166 227 269 71 114 120 271 129 414 7 113 8 117 60 220 29 58 87 159 130 225 116 181 149 254 190 425 20 86 21 109 15 250-8 175-26 251-77 321-41 56-57 103-56 159 0 25 3 36 5 25 3-11 16-35 29-52"/></g></svg>